<svg width="24" height="25" viewBox="0 0 24 25" fill="none" xmlns="http://www.w3.org/2000/svg">
<path d="M12 1.33398C14.3869 1.33398 16.6761 2.2822 18.364 3.97002C20.0518 5.65785 21 7.94704 21 10.334C21 14.06 18.16 17.964 12.6 22.134C12.4269 22.2638 12.2164 22.334 12 22.334C11.7836 22.334 11.5731 22.2638 11.4 22.134C5.84 17.964 3 14.06 3 10.334C3 7.94704 3.94821 5.65785 5.63604 3.97002C7.32387 2.2822 9.61305 1.33398 12 1.33398ZM12 3.33398C10.1435 3.33398 8.36301 4.07148 7.05025 5.38424C5.7375 6.69699 5 8.47747 5 10.334C5 13.044 7.118 16.17 11.448 19.64L12 20.076L12.552 19.64C16.882 16.17 19 13.044 19 10.334C19 8.47747 18.2625 6.69699 16.9497 5.38424C15.637 4.07148 13.8565 3.33398 12 3.33398ZM12 8.33398C12.5304 8.33398 13.0391 8.5447 13.4142 8.91977C13.7893 9.29484 14 9.80355 14 10.334C14 10.8644 13.7893 11.3731 13.4142 11.7482C13.0391 12.1233 12.5304 12.334 12 12.334C11.4696 12.334 10.9609 12.1233 10.5858 11.7482C10.2107 11.3731 10 10.8644 10 10.334C10 9.80355 10.2107 9.29484 10.5858 8.91977C10.9609 8.5447 11.4696 8.33398 12 8.33398Z" fill="#FDA3C4"/>
</svg>
