<svg width="96" height="25" viewBox="0 0 96 25" fill="none" xmlns="http://www.w3.org/2000/svg">
<path d="M1.11051 15.099C1.13146 14.6799 1.15242 14.3237 1.15242 14.0304C1.17337 13.5065 1.19432 12.9618 1.21527 12.417C1.23623 11.8722 1.23623 11.1807 1.23623 10.3426C1.23623 9.52546 1.21528 8.60353 1.17337 7.63969C1.13146 6.63394 1.08956 5.92154 1.06861 5.52343C1.04765 5.12532 1.00575 4.70626 0.96384 4.22435C0.921934 3.74243 0.880028 3.38622 0.859075 3.15574C0.838122 2.9043 0.796216 2.61096 0.75431 2.29666L0.712402 1.8357C0.691449 1.62617 0.754306 1.43759 0.900977 1.26997C1.04765 1.10234 1.25718 1.01853 1.48767 0.997581C1.71815 0.976628 1.94863 1.03949 2.1372 1.18616C2.32578 1.33283 2.43055 1.50045 2.4515 1.73094L2.49341 2.1919C2.53531 2.50619 2.57722 2.77858 2.59817 3.00907C2.61913 3.23955 2.66103 3.61671 2.70294 4.09863C2.74484 4.58055 2.78675 5.04151 2.8077 5.48153C2.82866 5.90059 2.87056 6.59204 2.91247 7.57683C2.95438 8.60353 2.97533 9.52546 2.97533 10.3845C2.97533 11.1598 2.95438 11.8512 2.93342 12.417C3.05914 12.2913 3.14295 12.1865 3.22676 12.0817C3.45725 11.8722 3.70869 11.6627 3.98107 11.4531C4.25346 11.2436 4.58871 11.0131 5.02873 10.7617C5.46874 10.5312 5.82494 10.3426 6.09733 10.2379C6.45353 10.1331 6.93545 10.0493 7.54309 9.98643C8.17168 9.94452 8.63264 9.96547 8.98885 10.0493C9.30314 10.1121 9.59648 10.196 9.88982 10.3007C10.2041 10.4474 10.5394 10.6779 10.9375 10.9922C11.3146 11.3274 11.6289 11.6417 11.8385 11.9351C12.048 12.2494 12.2366 12.5846 12.3832 12.9408C12.5509 13.3389 12.6766 14.0094 12.7813 14.9942C12.9071 15.9999 12.928 16.7123 12.8861 17.1105C12.8652 17.5295 12.8023 17.9067 12.6975 18.2838C12.5718 18.661 12.4251 19.0172 12.2575 19.3524C12.0899 19.7086 11.8385 20.0858 11.5242 20.4839C11.2099 20.882 10.9165 21.1963 10.6441 21.4058C10.3717 21.6154 9.97364 21.8668 9.42886 22.1811C8.88408 22.4744 8.44407 22.663 8.12977 22.7678C7.83643 22.8516 7.50118 22.9354 7.08212 22.9983C6.70497 23.0611 6.39067 23.103 6.13923 23.124C5.9297 23.1449 5.72017 23.1659 5.5316 23.1868C5.30111 23.2078 4.98682 23.2078 4.58871 23.1868C4.1487 23.1659 3.79249 23.103 3.52011 22.9983L3.26867 22.8935C3.03819 22.8306 2.87056 22.684 2.7658 22.4954C2.66103 22.2858 2.66104 22.0763 2.74485 21.8668C2.82866 21.6573 2.97533 21.5106 3.20581 21.4268C3.43629 21.343 3.64583 21.343 3.87631 21.4268L4.16965 21.5315C4.27442 21.5525 4.44204 21.5734 4.67252 21.5944C4.96586 21.5944 5.19635 21.5944 5.36398 21.5944C5.5316 21.5734 5.74113 21.5525 5.97161 21.5315C6.18114 21.5106 6.45353 21.4687 6.76782 21.4268C7.10307 21.3639 7.37546 21.3011 7.58499 21.2382C7.77357 21.1963 8.08786 21.0496 8.52788 20.8191C8.98884 20.5677 9.30314 20.3582 9.49172 20.2325C9.65934 20.0858 9.86887 19.8553 10.1203 19.562C10.3717 19.2686 10.5603 18.9962 10.686 18.7238C10.8118 18.4724 10.8956 18.2 10.9794 17.9067C11.0422 17.6343 11.1051 17.32 11.168 16.9847C11.1889 16.6495 11.147 16.0628 11.0632 15.1828C10.9375 14.3027 10.8327 13.737 10.7489 13.4856C10.6441 13.2341 10.5394 12.9827 10.3927 12.7732C10.246 12.5846 10.0365 12.3751 9.78506 12.1446C9.51267 11.956 9.32409 11.8093 9.17742 11.7465C9.0098 11.6627 8.82122 11.5998 8.63264 11.5579C8.46502 11.537 8.17168 11.537 7.73166 11.5579C7.29165 11.5998 6.99831 11.6627 6.83069 11.7255C6.6002 11.7884 6.30686 11.9141 5.97161 12.1236C5.63636 12.3122 5.36397 12.5008 5.17539 12.6475C4.96586 12.8151 4.73538 13.0037 4.52585 13.1713C4.35823 13.3389 4.08584 13.7161 3.70868 14.2818C3.58296 14.4285 3.4782 14.5751 3.39439 14.7009C3.1639 15.0571 2.99628 15.3294 2.89151 15.518C2.87056 15.7695 2.84961 16.0418 2.84961 16.3352C2.78675 17.2781 2.72389 18.0324 2.66103 18.5981C2.61912 19.1639 2.57722 19.6039 2.53532 19.8972C2.49341 20.2115 2.4515 20.5677 2.4096 21.0077C2.36769 21.4687 2.32579 21.783 2.30483 21.9506C2.28388 22.1392 2.22102 22.3906 2.11626 22.7049C2.0953 22.7259 2.05339 22.7468 2.03244 22.7887C1.99053 22.8306 1.92768 22.8725 1.80196 22.9773C1.67624 23.0611 1.57148 23.1449 1.46671 23.2078C1.36195 23.2706 1.23622 23.3335 1.08955 23.3754C0.942882 23.4173 0.817167 23.4383 0.712402 23.4173C0.607636 23.3964 0.502873 23.3545 0.41906 23.2497C0.335248 23.1449 0.272391 23.0192 0.230485 22.8306C0.188578 22.6421 0.167625 22.4325 0.125719 22.202C0.0838134 21.9716 0.0628552 21.7411 0.0419022 21.5525C0.0209492 21.322 0 21.0706 0 20.8191C0 20.5677 0.0209505 20.0858 0.0628565 19.3734C0.104763 18.64 0.16762 18.0952 0.251432 17.76C0.314292 17.4248 0.398106 17.0895 0.502871 16.7752C0.607636 16.4609 0.712404 16.1466 0.859075 15.8114C0.880028 15.539 0.98479 15.3294 1.11051 15.099Z" fill="#F40000"/>
<path d="M24.4325 23.7526C24.2649 23.9621 24.0554 24.0878 23.783 24.1088L23.2382 24.1716C22.7563 24.2136 22.1696 24.1926 21.4362 24.0669C20.7238 23.9412 20.0743 23.7316 19.4876 23.4802C18.9428 23.2288 18.4819 22.9564 18.1257 22.7049C17.7485 22.4116 17.2666 21.9506 16.7218 21.2592C16.177 20.5887 15.7999 20.0439 15.6113 19.6248C15.4018 19.1848 15.2341 18.4305 15.1084 17.3619C14.9617 16.2933 14.9198 15.539 15.0037 15.078C15.1084 14.638 15.297 14.0513 15.5903 13.318C15.8837 12.5846 16.2189 11.956 16.5542 11.4322C16.9104 10.9293 17.2247 10.5103 17.539 10.2169C17.8533 9.90264 18.3352 9.5674 19.0057 9.16929C19.7181 8.72928 20.5772 8.43593 21.5619 8.28926C22.5258 8.14259 23.2172 8.10068 23.6782 8.16354C24.1182 8.20545 24.7259 8.37307 25.5011 8.68737C26.2973 9.00166 26.884 9.27405 27.2612 9.50453C27.6383 9.73502 28.0364 10.0912 28.4555 10.5312C28.8536 10.9712 29.1679 11.3903 29.3565 11.7465C29.566 12.1237 29.7755 12.7103 29.9641 13.5066C30.1317 14.3028 30.2155 15.0571 30.2155 15.7276C30.2155 16.3562 30.1736 16.88 30.1108 17.2991C30.0689 17.7391 29.9013 18.3258 29.6498 19.101C29.3774 19.8763 29.0841 20.5258 28.7488 21.0287C28.4136 21.5525 27.9526 22.0344 27.345 22.4745C26.7373 22.9354 26.2764 23.2288 25.9411 23.3545C25.6478 23.5221 25.124 23.6478 24.4325 23.7526ZM20.2 22.0344C20.4933 21.8459 20.7657 21.783 21.0591 21.8668L21.6248 22.0554C21.9181 22.1602 22.2324 22.223 22.5886 22.244C22.9239 22.2859 23.3849 22.2649 23.9925 22.1811C24.6001 22.0973 24.9982 22.0135 25.2078 21.9297C25.4173 21.8459 25.7526 21.6154 26.2135 21.2801C26.6745 20.9239 27.0097 20.5677 27.2612 20.2115C27.5336 19.8344 27.764 19.3315 27.9736 18.682C28.2041 18.0115 28.3507 17.4876 28.4136 17.1524C28.4555 16.7962 28.4764 16.3352 28.4764 15.7485C28.4764 15.2038 28.4136 14.5752 28.2669 13.8837C28.1202 13.2132 27.9736 12.7523 27.8269 12.5218C27.6802 12.2703 27.4497 11.956 27.1355 11.5998C26.8212 11.2436 26.5278 10.9922 26.2764 10.8246C26.0249 10.657 25.564 10.4474 24.8935 10.196C24.223 9.9655 23.7411 9.81883 23.4477 9.79788C23.1753 9.75597 22.6515 9.77693 21.8762 9.90264C21.1429 10.0284 20.5143 10.2588 20.0114 10.5522C19.4666 10.8874 19.0685 11.1389 18.859 11.3274C18.6285 11.5579 18.3561 11.8932 18.0628 12.3332C17.7694 12.7523 17.4971 13.2761 17.2456 13.9256C16.9732 14.5542 16.8266 15.0571 16.7847 15.3923C16.7428 15.7066 16.7637 16.3143 16.8475 17.2152C16.9732 18.1372 17.099 18.7239 17.2456 19.0172C17.3923 19.3315 17.7066 19.7715 18.1885 20.3582C18.6495 20.9239 19.0057 21.3011 19.2571 21.5106C19.5086 21.6363 19.8228 21.8249 20.2 22.0344Z" fill="#F40000"/>
<path d="M41.8436 23.7526C41.676 23.9621 41.4665 24.0878 41.1941 24.1088L40.6493 24.1716C40.1674 24.2136 39.5807 24.1926 38.8474 24.0669C38.135 23.9412 37.4854 23.7316 36.8987 23.4802C36.354 23.2288 35.893 22.9564 35.5368 22.7049C35.1596 22.4116 34.6777 21.9506 34.1329 21.2592C33.5882 20.5887 33.211 20.0439 33.0224 19.6248C32.8129 19.1848 32.6453 18.4305 32.5196 17.3619C32.3729 16.2933 32.331 15.539 32.4148 15.078C32.5196 14.638 32.7081 14.0513 33.0015 13.318C33.2948 12.5846 33.6301 11.956 33.9653 11.4322C34.3215 10.9293 34.6358 10.5103 34.9501 10.2169C35.2644 9.90264 35.7463 9.5674 36.4168 9.16929C37.1292 8.72928 37.9883 8.43593 38.9731 8.28926C39.9369 8.14259 40.6284 8.10068 41.0893 8.16354C41.5294 8.20545 42.137 8.37307 42.9123 8.68737C43.7085 9.00166 44.2952 9.27405 44.6723 9.50453C45.0495 9.73502 45.4476 10.0912 45.8666 10.5312C46.2647 10.9712 46.579 11.3903 46.7676 11.7465C46.9771 12.1237 47.1867 12.7103 47.3752 13.5066C47.5429 14.3028 47.6267 15.0571 47.6267 15.7276C47.6267 16.3562 47.5848 16.88 47.5219 17.2991C47.48 17.7391 47.3124 18.3258 47.061 19.101C46.7886 19.8763 46.4952 20.5258 46.16 21.0287C45.8247 21.5525 45.3638 22.0344 44.7561 22.4745C44.1485 22.9354 43.6875 23.2288 43.3523 23.3545C43.0589 23.5221 42.5351 23.6478 41.8436 23.7526ZM37.6111 22.0344C37.9045 21.8459 38.1769 21.783 38.4702 21.8668L39.0359 22.0554C39.3293 22.1602 39.6436 22.223 39.9998 22.244C40.335 22.2859 40.796 22.2649 41.4036 22.1811C42.0113 22.0973 42.4094 22.0135 42.6189 21.9297C42.8284 21.8459 43.1637 21.6154 43.6247 21.2801C44.0856 20.9239 44.4209 20.5677 44.6723 20.2115C44.9447 19.8344 45.1752 19.3315 45.3847 18.682C45.6152 18.0115 45.7619 17.4876 45.8247 17.1524C45.8666 16.7962 45.8876 16.3352 45.8876 15.7485C45.8876 15.2038 45.8247 14.5752 45.678 13.8837C45.5314 13.2132 45.3847 12.7523 45.238 12.5218C45.0914 12.2703 44.8609 11.956 44.5466 11.5998C44.2323 11.2436 43.9389 10.9922 43.6875 10.8246C43.4361 10.657 42.9751 10.4474 42.3046 10.196C41.6341 9.9655 41.1522 9.81883 40.8589 9.79788C40.5865 9.75597 40.0626 9.77693 39.2874 9.90264C38.554 10.0284 37.9254 10.2588 37.4226 10.5522C36.8778 10.8874 36.4797 11.1389 36.2701 11.3274C36.0397 11.5579 35.7673 11.8932 35.4739 12.3332C35.1806 12.7523 34.9082 13.2761 34.6568 13.9256C34.3844 14.5542 34.2377 15.0571 34.1958 15.3923C34.1539 15.7066 34.1748 16.3143 34.2587 17.2152C34.3844 18.1372 34.5101 18.7239 34.6568 19.0172C34.8034 19.3315 35.1177 19.7715 35.5996 20.3582C36.0606 20.9239 36.4168 21.3011 36.6682 21.5106C36.9197 21.6363 37.234 21.8249 37.6111 22.0344Z" fill="#F40000"/>
<path d="M51.8635 18.5363C51.8635 18.6829 51.8635 18.8506 51.8635 18.9972C51.8845 19.3744 51.9055 19.7306 51.9264 20.1077C51.9474 20.4849 51.9683 20.8201 51.9683 21.1135C51.9683 21.4278 51.9474 21.763 51.9264 22.1192V22.7059C51.9055 22.9154 51.8007 23.104 51.6331 23.2507C51.4654 23.3974 51.2559 23.4812 51.0254 23.4602C50.7949 23.4393 50.5854 23.3555 50.3968 23.2088C50.2082 23.0412 50.1454 22.8526 50.1663 22.643V22.0983C50.1873 21.7211 50.2083 21.4068 50.2083 21.1135C50.2083 20.8411 50.1873 20.5058 50.1663 20.1706C50.1454 19.8144 50.1244 19.4582 50.1035 19.0601C50.1035 18.641 50.0825 17.9286 50.0406 16.9019C49.9987 16.1476 49.9778 15.54 49.9778 15.079C49.9568 14.8276 49.9359 14.5342 49.9149 14.199C49.873 13.2771 49.8521 12.6065 49.8521 12.1456C49.8521 11.6846 49.873 11.2237 49.9149 10.7836C49.9149 10.7627 49.9149 10.7208 49.9149 10.6789C49.9149 10.637 49.9359 10.5532 49.9778 10.4484C50.0197 10.3436 50.0406 10.2389 50.0825 10.1341C50.1244 10.0293 50.1873 9.94552 50.2711 9.8617C50.3549 9.77789 50.4387 9.71503 50.5435 9.67313C50.6483 9.63122 50.753 9.61027 50.8997 9.63122C51.0464 9.65217 51.193 9.71503 51.3607 9.8198C51.6331 9.98742 51.7797 10.155 51.8426 10.3017C51.9054 10.4484 51.9055 10.5532 51.8216 10.637L51.7169 10.7417C51.7169 11.0979 51.7169 11.517 51.7169 12.0199C51.7169 12.5227 51.7169 12.9627 51.7169 13.3818C51.7169 13.7799 51.7169 14.199 51.7169 14.639C51.7378 14.7438 51.7588 14.8695 51.7588 15.0371C51.7797 15.3514 51.8007 15.5819 51.8216 15.7914C52.1359 15.0581 52.3664 14.5133 52.534 14.1571C52.7226 13.7799 52.9321 13.4237 53.1417 13.0466C53.3512 12.6485 53.7493 12.0618 54.2941 11.2865C54.9017 10.4693 55.3208 9.94551 55.5513 9.71503C55.8446 9.48455 56.1799 9.27502 56.557 9.08644L56.997 8.91882C57.2066 8.81405 57.437 8.7931 57.6885 8.87691C57.919 8.96072 58.0866 9.08645 58.1914 9.27502C58.2961 9.4636 58.2961 9.67313 58.2123 9.90361C58.1285 10.1131 57.9818 10.2808 57.7723 10.3646L57.3323 10.5532C57.1228 10.637 56.9342 10.7417 56.7875 10.8465C56.6408 10.9932 56.3056 11.4332 55.7818 12.1246C55.2579 12.8789 54.9017 13.4237 54.7132 13.759C54.5246 14.1152 54.336 14.4504 54.1684 14.8066C54.0007 15.1628 53.7493 15.7286 53.4141 16.5038C53.016 17.3629 52.6807 17.9286 52.4083 18.2429C52.2197 18.3477 52.0521 18.4524 51.8635 18.5363Z" fill="#F40000"/>
<path d="M62.7587 23.5439C62.5701 23.6906 62.3606 23.7535 62.1301 23.7535C61.8996 23.7535 61.6901 23.6487 61.5225 23.502C61.3548 23.3344 61.271 23.1668 61.271 22.9573L61.3129 22.643C61.3129 22.4334 61.3129 22.0772 61.3129 21.5744C61.3129 21.0715 61.3129 20.6524 61.3129 20.3381C61.3129 20.0448 61.292 19.6257 61.271 19.1019C61.2501 18.5571 61.2082 17.9076 61.1663 17.1742C61.1034 16.4199 61.0405 15.7075 60.9986 15.037C60.9567 14.3665 60.9358 13.8427 60.8939 13.4236C60.852 13.0046 60.8101 12.6065 60.7681 12.1665C60.7262 11.7264 60.6843 11.4121 60.6634 11.2445C60.6634 11.1188 60.6424 10.9721 60.6005 10.8045L60.5586 10.5112C60.5167 10.3226 60.5586 10.134 60.7053 9.96638C60.852 9.77781 61.0405 9.67304 61.271 9.65209C61.5015 9.61018 61.732 9.67304 61.9415 9.79876C62.1511 9.92448 62.2558 10.0921 62.2768 10.3016L62.3396 10.5531C62.3606 10.7626 62.3815 10.9512 62.4025 11.1188C62.4025 11.2655 62.4444 11.5588 62.5073 11.9988C62.5492 12.4388 62.5911 12.8789 62.633 13.2979C62.6749 13.717 62.7168 14.2618 62.7587 14.9323C62.7796 15.6028 62.8215 16.3151 62.8634 17.0485C62.9263 17.8028 62.9892 18.4524 63.0101 18.9971C63.0311 19.5419 63.052 19.961 63.052 20.2753C63.052 20.5896 63.052 21.0086 63.052 21.5325C63.052 22.0563 63.052 22.4334 63.052 22.643L63.0101 22.9992C63.0311 23.2087 62.9473 23.3973 62.7587 23.5439Z" fill="#F40000"/>
<path d="M65.2743 9.40079C65.3581 9.19126 65.5048 9.04459 65.7143 8.96078C65.9239 8.87697 66.1544 8.87697 66.4058 8.93983C66.6363 9.02364 66.8039 9.14935 66.9087 9.33793L67.2649 10.0922C67.5372 10.637 67.8096 11.3075 68.082 12.0828C68.3544 12.7952 68.5639 13.3609 68.7316 13.7381C68.9411 14.1362 69.2345 14.6809 69.5907 15.3724C69.9678 16.0638 70.4078 16.881 70.8897 17.782C71.3717 18.7039 71.7069 19.2906 71.8955 19.584C72.0841 19.8983 72.2726 20.1916 72.4403 20.464C72.5869 20.6945 72.8174 20.9878 73.1527 21.3231C73.2155 21.3859 73.2993 21.4488 73.3622 21.5116C73.467 21.3859 73.5508 21.2392 73.6555 21.0926C74.0536 20.464 74.326 20.003 74.4518 19.6887C74.5984 19.3116 74.7451 18.9344 74.8918 18.5154C75.0594 18.0753 75.3318 17.3001 75.7089 16.1686C76.107 15.0581 76.4004 14.3038 76.568 13.8847C76.7356 13.4657 76.9242 12.9628 77.1337 12.3761C77.3642 11.8104 77.5318 11.4123 77.6366 11.1608L77.7833 10.8256C77.8461 10.637 78.0138 10.4903 78.2233 10.4065C78.4538 10.3227 78.6843 10.3227 78.9147 10.3856C79.1452 10.4694 79.3129 10.5951 79.3967 10.8046C79.5014 11.0142 79.5014 11.2027 79.3967 11.4123L79.2919 11.7475C79.1871 11.9571 79.0195 12.3552 78.789 12.9209C78.5795 13.5076 78.3909 13.9895 78.2233 14.3876C78.0766 14.7857 77.7833 15.54 77.3852 16.6715C76.9871 17.803 76.6937 18.5782 76.568 18.9973C76.4004 19.4373 76.2537 19.8354 76.107 20.2125C75.9604 20.6316 75.667 21.1973 75.2061 21.9097C75.1851 21.9517 75.1432 22.0355 75.0594 22.1402C74.9965 22.245 74.9337 22.3288 74.8918 22.3707C74.8499 22.4126 74.787 22.4964 74.7032 22.6221C74.6194 22.7479 74.5565 22.8317 74.5146 22.8736C74.4727 22.9155 74.3889 22.9783 74.2841 23.0622C74.1794 23.146 74.0746 23.1879 73.9908 23.2088C73.907 23.2298 73.8022 23.2507 73.6765 23.2926C73.5508 23.3346 73.4251 23.3345 73.2993 23.2507C72.8593 23.2088 72.3984 22.9155 71.8955 22.3917C71.4345 21.9726 71.1202 21.6164 70.9316 21.2812C70.7431 21.0088 70.5545 20.7154 70.3659 20.4011C70.1564 20.0659 69.8002 19.4373 69.3183 18.4735C68.8363 17.5515 68.4173 16.7553 68.0192 16.0639C67.642 15.3724 67.3487 14.8067 67.1601 14.4086C66.9506 13.9686 66.6991 13.3609 66.4058 12.5857C66.1753 11.8523 65.9239 11.2447 65.6934 10.7627L65.2953 10.0084C65.1905 9.81985 65.1905 9.61032 65.2743 9.40079Z" fill="#F40000"/>
<path d="M95.4256 20.0663H95.3837C95.237 20.2968 95.1113 20.5063 95.0275 20.6949C94.9018 20.8625 94.7761 21.0511 94.6294 21.2397C94.4408 21.4911 94.0218 21.9312 93.3722 22.5388C92.7227 23.1674 92.2198 23.5864 91.8636 23.775C91.5283 23.9636 91.1931 24.1312 90.8578 24.2569C90.5226 24.3827 90.1874 24.4874 89.8521 24.5922C89.4959 24.676 89.0768 24.7389 88.5949 24.7598C88.113 24.7598 87.5682 24.676 86.9815 24.5084C86.4577 24.3407 86.0596 24.1731 85.7872 24.0474C85.5148 23.9217 85.2424 23.775 84.97 23.5864C84.6977 23.4188 84.4253 23.1674 84.1529 22.874C83.8386 22.5178 83.5871 22.0778 83.3986 21.5121C83.21 20.9883 83.1052 20.5692 83.0843 20.234C83.0633 19.9197 83.0843 19.5635 83.1471 19.1234C83.21 18.7044 83.3357 18.3691 83.4614 18.0758C83.5872 17.7615 83.8386 17.3634 84.2157 16.8605C84.5929 16.3367 84.9281 15.9595 85.2215 15.75C85.4939 15.5614 85.7663 15.3729 86.0806 15.2052C86.3949 15.0376 86.793 14.8281 87.2958 14.6185C87.8406 14.409 88.4902 14.2623 89.2026 14.2204C89.915 14.1576 90.5016 14.1785 90.9207 14.3252C91.3607 14.4719 91.9684 14.87 92.7436 15.4986C92.8484 15.5824 92.9322 15.6662 93.037 15.75C92.8693 15.2052 92.7436 14.7652 92.6389 14.4509C92.4922 14.0738 92.2826 13.6128 91.9893 13.0471C91.7169 12.5023 91.4655 12.0832 91.235 11.7689C91.0255 11.4546 90.774 11.1823 90.5226 10.9518C90.3131 10.7632 89.894 10.5118 89.3073 10.2184C88.6997 9.92507 88.1759 9.73649 87.7358 9.67364C87.2539 9.58982 86.8768 9.54792 86.5834 9.54792C86.2691 9.52696 85.9758 9.52697 85.6824 9.58982C85.452 9.58982 84.991 9.71554 84.3624 9.94602C83.9014 10.1346 83.5871 10.3022 83.4195 10.407L83.2309 10.6584C83.0843 10.826 82.8957 10.9518 82.6652 10.9937C82.4347 11.0356 82.2043 10.9937 81.9947 10.868C81.7852 10.7422 81.6804 10.5537 81.6385 10.3441C81.5966 10.1346 81.6385 9.92507 81.7642 9.75745L82.0157 9.46411C82.2462 9.12886 82.8119 8.81456 83.7129 8.47931C84.53 8.16502 85.1377 8.01835 85.5358 7.99739C85.892 7.95549 86.2482 7.93453 86.6044 7.95549C87.0025 7.95549 87.5054 8.01835 88.0711 8.12311C88.6787 8.22788 89.3492 8.45836 90.1035 8.83551C90.8578 9.19172 91.4236 9.52696 91.7798 9.84126C92.115 10.1556 92.4293 10.4908 92.7227 10.8889C93.016 11.287 93.3094 11.7899 93.6236 12.4185C93.9379 13.0471 94.1684 13.5709 94.3151 13.99C94.4618 14.409 94.6503 14.9957 94.8808 15.7919C95.1113 16.5253 95.2999 17.0491 95.4256 17.3634C95.5304 17.6986 95.6142 18.0339 95.719 18.3691C95.8237 18.7044 95.8866 18.9349 95.9285 19.0815C96.0542 19.2492 96.0123 19.4796 95.8237 19.773L95.4256 20.0663ZM93.917 19.2492C93.7703 19.0396 93.6446 18.8301 93.5189 18.6625C93.3513 18.432 93.1627 18.1806 92.9532 17.9082C92.7436 17.6567 92.3036 17.2377 91.6331 16.6929C90.9836 16.1691 90.5645 15.8757 90.334 15.8129C90.1664 15.771 89.8521 15.75 89.3702 15.771C88.8464 15.8129 88.4063 15.9176 88.0501 16.0643C87.6101 16.2319 87.2749 16.3996 87.0444 16.5462C86.8139 16.6929 86.5834 16.8396 86.3529 16.9862C86.1853 17.112 85.9548 17.3843 85.6615 17.7615C85.3682 18.1596 85.1796 18.432 85.0958 18.6206C85.0329 18.8091 84.9491 19.0815 84.8862 19.3958C84.8443 19.6892 84.8234 19.9197 84.8443 20.1082C84.8443 20.2968 84.9072 20.5902 85.0539 20.9883C85.2005 21.3654 85.3472 21.6378 85.5148 21.8054C85.7034 22.015 85.892 22.1826 86.0596 22.2874C86.2272 22.3921 86.4158 22.4969 86.6044 22.6016C86.793 22.7064 87.1282 22.8112 87.5682 22.9369C87.9454 23.0626 88.2806 23.1255 88.574 23.1255C88.9092 23.1045 89.1816 23.0626 89.3911 23.0207C89.6216 22.9578 89.8731 22.874 90.1454 22.7693C90.4178 22.6645 90.6693 22.5388 90.9417 22.4131C91.1721 22.2664 91.5702 21.9312 92.136 21.4073C92.7017 20.8625 93.0579 20.5063 93.1836 20.3597C93.3093 20.1711 93.4141 19.9825 93.4979 19.8359C93.5817 19.7311 93.7075 19.5216 93.917 19.2492Z" fill="#F40000"/>
<path d="M62.0501 4.66578C61.2748 4.33053 60.6881 3.8067 60.1433 3.15716C59.9547 2.92667 58.9071 1.81617 59.1166 1.41806C59.2214 1.22948 59.7871 1.33425 59.9338 1.41806C60.1014 1.50187 60.269 1.66949 60.3948 1.81616C60.6043 2.0676 60.751 2.36094 60.8976 2.65428C61.191 3.26192 61.4215 3.91147 61.8196 4.45625C62.05 4.79149 62.5948 4.4772 62.3644 4.14195C61.7777 3.30383 61.5472 2.25617 60.8976 1.43901C60.4157 0.831368 59.4309 0.286594 58.7395 0.894232C58.0899 1.43901 58.6976 2.27713 59.0747 2.80095C59.7871 3.78574 60.5833 4.68673 61.7148 5.1896C62.1129 5.37818 62.4272 4.8334 62.0501 4.66578Z" fill="#F40000"/>
<path d="M59.1353 1.9202C59.6591 2.86309 60.3296 3.74312 60.9791 4.60219C61.2306 4.91648 61.7753 4.60219 61.5239 4.28789C60.8534 3.42882 60.2039 2.5488 59.68 1.60591C59.4705 1.24971 58.9257 1.564 59.1353 1.9202Z" fill="#F40000"/>
<path d="M61.8988 5.252C63.6169 5.16819 65.2932 4.60246 66.8856 3.95291C67.4094 3.74338 68.5199 3.38719 68.3942 2.63288C68.059 0.726151 62.9674 3.78529 62.255 4.05768C61.8778 4.20435 62.0454 4.81199 62.4226 4.66532C63.1979 4.37198 63.9103 3.99482 64.6436 3.63862C65.1046 3.40814 67.0113 2.29763 67.5561 2.7586C67.7656 2.92622 67.6189 2.92622 67.3675 3.05194C67.2208 3.13575 67.0532 3.19861 66.8856 3.28242C66.4875 3.45005 66.0684 3.59671 65.6703 3.76434C64.455 4.20435 63.2188 4.58151 61.8988 4.64437C61.5007 4.64437 61.4797 5.27296 61.8988 5.252Z" fill="#F40000"/>
<path d="M66.9515 2.8422C65.6105 3.44983 64.2276 3.95271 62.8447 4.43463C62.4675 4.56035 62.6351 5.16798 63.0123 5.04226C64.4581 4.51844 65.8829 3.99461 67.2867 3.38698C67.6429 3.21935 67.3077 2.67457 66.9515 2.8422Z" fill="#F40000"/>
</svg>
