<svg width="135" height="60" viewBox="0 0 135 60" fill="none" xmlns="http://www.w3.org/2000/svg">
<path d="M5.60148 38.9346L2.53169 33.5592L1.52768 12.5098C3.22132 9.58686 8.97009 3.66072 18.4161 3.33949C30.2236 2.93795 44.3252 1.53424 57.8476 2.29574C71.37 3.05724 85.6597 3.41184 90.4203 3.60289C95.1809 3.79393 114.497 3.91275 120.644 7.44191C125.562 10.2652 129.976 15.4759 131.568 17.7283C131.051 18.1452 130.301 19.4719 131.435 21.4432C132.569 23.4145 133.098 26.3975 133.221 27.6425C132.527 28.3441 131.132 29.9222 131.107 30.6215C131.076 31.4956 126.558 31.5332 128.774 32.7163C130.547 33.6629 130.907 36.2305 130.865 37.396C129.072 38.4183 124.683 40.4743 121.469 40.5205C118.256 40.5666 115.422 41.2261 114.407 41.5501L114.344 43.2985C115.837 43.6502 118.519 44.4288 117.304 44.7302C115.785 45.1069 114.321 43.954 113.044 44.5593C111.768 45.1646 109.967 46.4054 111.455 46.9028C111.903 47.3241 112.347 47.5431 112.75 47.6375C113.251 47.5527 113.791 47.4883 114.196 47.4505C113.932 47.6196 113.395 47.7889 112.75 47.6375C111.899 47.7813 111.164 47.9838 111.408 48.214C111.797 48.5797 113.382 49.1685 114.125 49.4172L115.331 50.7787L111.322 50.6178C109.117 50.5293 109.522 51.8586 109.999 52.5343C109.409 52.6566 107.882 52.7995 106.491 52.3936C104.753 51.8861 105.481 52.5719 102.467 52.6697C100.055 52.748 91.2727 52.2935 87.1828 52.0564C87.5273 51.7784 87.7653 51.2044 85.9613 51.132C83.7062 51.0415 83.4557 51.0314 80.6839 51.3579C77.9121 51.6844 58.6347 50.4731 50.1157 50.1312L37.8383 49.6385C33.8868 50.2094 24.5322 51.2492 18.7255 50.8411C11.4671 50.331 5.28121 47.8943 5.28902 47.6758C5.29527 47.5009 4.00218 46.2381 3.35485 45.6285C4.00999 46.0196 5.32808 46.5831 5.35933 45.709C5.39057 44.8349 4.14539 42.2317 3.5189 41.0394L5.60148 38.9346Z" fill="#FDA3C4"/>
<path d="M9.91685 51.5818C9.11506 51.5497 9.05041 52.4224 9.1183 52.8629L7.48186 53.016C6.66238 53.7126 5.17533 55.0682 5.78292 54.9175C6.39051 54.7668 7.56027 54.3323 8.0692 54.1338C8.41369 53.8559 10.7063 53.3643 17.1206 53.6217C25.1385 53.9434 24.4024 53.4762 25.1541 53.5064C25.9058 53.5365 10.9191 51.6221 9.91685 51.5818Z" fill="#FDA3C4"/>
<path d="M46.0969 37.6128C46.3636 37.6137 46.6237 37.5679 46.8773 37.4754C47.1309 37.3829 47.3846 37.277 47.6383 37.1578C47.972 36.9989 48.2726 36.8132 48.5399 36.6007C48.8071 36.4016 49.0412 36.1357 49.2422 35.803C49.4431 35.4836 49.5976 35.0841 49.7056 34.6045C49.827 34.1249 49.902 33.5318 49.9307 32.8252L49.9117 32.4851C49.8986 32.3918 49.8922 32.3051 49.8924 32.2251C49.8927 32.1317 49.893 32.0317 49.8933 31.9251C49.8936 31.8317 49.8938 31.7451 49.8941 31.6651C49.8943 31.5717 49.8879 31.4784 49.8749 31.385C49.8374 30.5049 49.4987 30.0638 48.8587 30.0617C48.6987 30.0612 48.4986 30.0939 48.2584 30.1598C47.7913 30.3049 47.3176 30.4301 46.8373 30.5352C46.357 30.627 45.8768 30.7054 45.3966 30.7706C45.1965 30.7966 45.063 30.8561 44.9961 30.9493C44.9425 31.0291 44.9155 31.1557 44.915 31.329L44.8055 34.6287L44.8255 34.6287C44.8245 34.9754 44.8235 35.3221 44.8225 35.6687C44.8215 36.0154 44.8272 36.3621 44.8395 36.7088C44.852 37.0022 44.9048 37.1957 44.9979 37.2893C45.0909 37.3963 45.284 37.4836 45.5771 37.5512C45.7503 37.5917 45.9236 37.6123 46.0969 37.6128ZM45.0425 28.7094C45.2295 28.6167 45.4097 28.5372 45.5832 28.4711C45.7701 28.3917 45.957 28.3057 46.144 28.213C46.7047 27.9481 47.1657 27.6029 47.527 27.1774C47.9015 26.7386 48.163 26.2195 48.3114 25.6199C48.4869 24.8872 48.6223 24.1609 48.7177 23.4412C48.8265 22.7082 48.8819 21.9684 48.8841 21.2218C48.8853 20.8084 48.8665 20.395 48.8276 19.9816C48.7888 19.5681 48.7367 19.1479 48.6713 18.7211C48.6187 18.4542 48.5461 18.2007 48.4535 17.9604C48.3609 17.7067 48.2415 17.4663 48.0955 17.2392C47.8697 16.9318 47.6037 16.7043 47.2975 16.5566C47.0046 16.3957 46.6849 16.3146 46.3382 16.3135C45.9915 16.3124 45.678 16.3781 45.3976 16.5105C45.2908 16.5635 45.2173 16.6232 45.1771 16.6898C45.1369 16.743 45.1167 16.8229 45.1164 16.9296L44.9709 18.8491C44.9429 19.3024 44.9216 19.749 44.907 20.1889C44.9058 20.6289 44.9045 21.0756 44.9032 21.5289C44.9002 22.5556 44.9106 23.5756 44.9344 24.589C44.9581 25.6024 44.9685 26.6291 44.9655 27.6691L44.9633 28.4291C44.9633 28.4558 44.9698 28.4958 44.983 28.5492C44.9962 28.5892 45.0161 28.6426 45.0425 28.7094ZM44.0913 39.5664C43.678 39.565 43.2647 39.5504 42.8514 39.5224C42.4515 39.4944 42.0517 39.4331 41.652 39.3385C41.3455 39.2709 41.0591 39.1766 40.7928 39.0557C40.5398 38.9349 40.2801 38.8141 40.0138 38.6932C39.7475 38.559 39.5747 38.3718 39.4954 38.1315C39.4294 37.9047 39.3968 37.6579 39.3975 37.3912C39.3859 36.7912 39.3743 36.1911 39.3627 35.5911C39.3511 35.0044 39.3461 34.411 39.3478 33.811L39.5265 27.3316C39.5287 26.5716 39.5242 25.8116 39.513 25.0515C39.5019 24.2782 39.4841 23.5114 39.4596 22.7513L39.443 21.5713C39.4457 20.638 39.4751 19.7047 39.5311 18.7716C39.5871 17.8384 39.6365 16.9052 39.6791 15.972C39.6935 15.6254 39.7742 15.3657 39.9214 15.1928C40.0819 15.0066 40.3557 14.8609 40.7426 14.7554C41.1963 14.6369 41.65 14.5317 42.1036 14.4398C42.5572 14.348 43.0173 14.2895 43.4841 14.2643L44.3041 14.2469C45.0908 14.2495 45.8773 14.312 46.6636 14.4346C47.6765 14.5845 48.502 14.9738 49.1402 15.6026C49.7784 16.2313 50.2094 17.0527 50.4332 18.0667C50.5384 18.5604 50.6103 19.054 50.6489 19.5474C50.7009 20.0276 50.7261 20.5144 50.7247 21.0077C50.7232 21.5144 50.6951 22.0276 50.6403 22.5474C50.5988 23.0673 50.544 23.5871 50.4758 24.1069C50.4078 24.56 50.3332 25.0131 50.2519 25.4662C50.1706 25.9059 50.056 26.3389 49.9081 26.7651C49.8008 27.0047 49.6801 27.2377 49.5461 27.4639C49.4122 27.6902 49.2715 27.923 49.1241 28.1626C49.284 28.2164 49.4305 28.2569 49.5638 28.284C49.697 28.3111 49.8236 28.3515 49.9434 28.4052C50.4228 28.6334 50.8086 28.9347 51.1008 29.309C51.4065 29.6699 51.5918 30.1172 51.657 30.6508C51.7354 31.211 51.7737 31.7778 51.7721 32.3511C51.7717 32.4711 51.7645 32.6578 51.7505 32.9111C51.7364 33.1644 51.7157 33.431 51.6882 33.7109C51.674 33.9908 51.6533 34.2508 51.6259 34.4907C51.5985 34.7439 51.578 34.9305 51.5643 35.0505C51.4962 35.5569 51.3549 36.0165 51.1404 36.4291C50.9392 36.8418 50.6581 37.2209 50.2971 37.5664C49.6554 38.1377 48.9741 38.6021 48.2531 38.9598C47.532 39.3175 46.7382 39.5083 45.8714 39.5321C45.5647 39.5445 45.2647 39.5502 44.9714 39.5492C44.6913 39.5617 44.398 39.5674 44.0913 39.5664ZM55.5549 39.8034C55.0749 39.8018 54.7351 39.7141 54.5356 39.5401C54.3494 39.3795 54.2504 39.0458 54.2385 38.5391C54.2258 38.3124 54.2132 38.0791 54.2005 37.839C54.2012 37.6123 54.2018 37.3857 54.2025 37.159L54.2247 36.3791L54.2713 34.0792C54.2735 33.3459 54.2555 32.6192 54.2176 31.899C54.1931 31.1656 54.1818 30.4322 54.1839 29.6989C54.1856 29.1122 54.2073 28.519 54.2491 27.9191L54.2527 26.6391C54.2954 25.7059 54.3314 24.7794 54.3607 23.8595C54.4034 22.9263 54.4261 22.0063 54.4287 21.0997C54.4312 20.233 54.4137 19.3596 54.3762 18.4795L54.3594 17.3794C54.3603 17.0728 54.3611 16.7794 54.3619 16.4994C54.3761 16.2061 54.3903 15.9062 54.4045 15.5996C54.4323 15.213 54.5197 14.9399 54.6668 14.7804C54.814 14.6075 55.081 14.4951 55.4678 14.443C56.0014 14.3647 56.5615 14.3265 57.1482 14.3284L57.6082 14.3299C58.2882 14.3321 58.9548 14.3342 59.6081 14.3363C60.2615 14.3251 60.9282 14.3206 61.6082 14.3228C62.7282 14.3264 63.8415 14.35 64.948 14.3936C65.0413 14.4072 65.1346 14.4209 65.2279 14.4345C65.3212 14.4481 65.4145 14.4684 65.5077 14.4954C65.6942 14.5627 65.8405 14.6698 65.9468 14.8168C66.053 14.9638 66.1059 15.124 66.1054 15.2973L66.1051 15.4173C66.0505 15.8305 65.8165 16.0897 65.4028 16.1951C65.3361 16.2082 65.2627 16.2213 65.1827 16.2344C65.116 16.2341 65.0494 16.2339 64.9827 16.2337L64.8427 16.2333C64.6828 16.2194 64.5228 16.2122 64.3628 16.2117C64.2161 16.2112 64.0628 16.2107 63.9028 16.2102C63.5294 16.209 63.1561 16.2145 62.7827 16.2266C62.4094 16.2387 62.036 16.2509 61.6626 16.263L61.1827 16.2214C61.0227 16.2209 60.8627 16.2271 60.7027 16.2399C60.5426 16.2527 60.3826 16.2589 60.2226 16.2583C59.956 16.2575 59.8223 16.3837 59.8215 16.637L59.7988 17.597C59.8234 18.3171 59.8413 19.0371 59.8526 19.7572C59.8772 20.4772 59.8884 21.204 59.8863 21.9373C59.8838 22.8173 59.8679 23.7039 59.8386 24.5971C59.8094 25.4771 59.7671 26.2769 59.7117 26.9967C59.698 27.1434 59.6909 27.29 59.6905 27.4367C59.6901 27.5833 59.6896 27.73 59.6892 27.8767L59.6884 28.1567C59.6881 28.2767 59.6945 28.37 59.7076 28.4367C59.7207 28.5034 59.7539 28.5569 59.8071 28.5971C59.8604 28.6372 59.9336 28.6641 60.0269 28.6778C60.1335 28.6914 60.2735 28.6986 60.4468 28.6991L60.9068 28.7206L61.8068 28.7035C61.9668 28.704 62.1268 28.7112 62.2868 28.7251C62.4468 28.7256 62.6067 28.7528 62.7665 28.8066C62.9797 28.874 63.1393 28.9945 63.2455 29.1682C63.365 29.3286 63.4245 29.5021 63.424 29.6887C63.4237 29.7954 63.4168 29.8754 63.4033 29.9287C63.3627 30.1285 63.2622 30.3016 63.1018 30.4477C62.9548 30.5806 62.7813 30.6467 62.5813 30.646L62.4013 30.6254C62.2681 30.5984 62.1414 30.5846 62.0214 30.5842C61.9015 30.5705 61.7748 30.5634 61.6415 30.563L60.7214 30.58L60.1214 30.5781C59.9481 30.5775 59.828 30.6171 59.7611 30.6969C59.7076 30.7634 59.6806 30.8833 59.6801 31.0567L59.6796 31.2167C59.7055 31.4967 59.718 31.7768 59.7172 32.0568C59.7164 32.3235 59.7156 32.5968 59.7148 32.8768C59.7132 33.4501 59.7051 33.9501 59.6905 34.3767C59.6893 34.8034 59.6815 35.1767 59.6673 35.4966C59.6663 35.83 59.6588 36.1233 59.6448 36.3766C59.644 36.6432 59.6433 36.9032 59.6425 37.1566C59.6417 37.4366 59.6612 37.6166 59.701 37.6968C59.7407 37.7902 59.8606 37.8373 60.0606 37.8379L64.6612 37.6328C64.8478 37.6334 65.0144 37.6606 65.1609 37.7144C65.5605 37.8624 65.7597 38.1363 65.7586 38.5363L65.7585 38.5763C65.7574 38.9363 65.5767 39.2024 65.2162 39.3746C65.0693 39.4408 64.9225 39.4803 64.7758 39.4932C64.6425 39.5061 64.5024 39.5123 64.3558 39.5118C63.5157 39.5358 62.6823 39.5731 61.8554 39.6237C61.042 39.6744 60.2219 39.6985 59.3952 39.6958C59.3152 39.6955 59.2086 39.6952 59.0752 39.6948C58.9419 39.7077 58.8018 39.7139 58.6552 39.7134L58.1552 39.7118C57.7285 39.7104 57.2951 39.7223 56.8551 39.7476C56.4283 39.7862 55.9949 39.8048 55.5549 39.8034ZM74.4333 28.8043C74.5133 28.8045 74.6 28.7982 74.6934 28.7851C74.8001 28.7721 74.9201 28.7525 75.0535 28.7263C75.0935 28.7264 75.1336 28.7199 75.1736 28.7067C75.2136 28.6935 75.247 28.6802 75.2737 28.667C75.9942 28.496 76.5285 28.1777 76.8765 27.7122C77.2378 27.2467 77.4661 26.6741 77.5614 25.9944C77.6292 25.6079 77.6769 25.2414 77.7046 24.8948C77.7456 24.535 77.7797 24.2617 77.8069 24.0751C77.8205 24.0085 77.8273 23.9419 77.8275 23.8752C77.8277 23.8085 77.8279 23.7419 77.8281 23.6752C77.8285 23.5419 77.8221 23.4219 77.8091 23.3152C77.8095 23.1952 77.8098 23.0885 77.81 22.9952C77.7477 21.4883 77.4852 20.0274 77.0226 18.6126C76.8376 18.052 76.5589 17.6044 76.1865 17.2699C75.8142 16.922 75.3683 16.6472 74.8489 16.4456C74.7423 16.4185 74.6357 16.3982 74.529 16.3845C74.4224 16.3575 74.3159 16.3305 74.2093 16.3035L74.0493 16.283C73.8227 16.2822 73.709 16.4085 73.7082 16.6619L73.7258 17.5219C73.7498 18.442 73.7672 19.3421 73.778 20.2221C73.8022 21.0889 73.8266 21.869 73.8513 22.5624C73.8494 23.2024 73.8472 23.9824 73.8445 24.9024C73.8419 25.809 73.8459 26.749 73.8564 27.7224C73.8552 28.1357 73.8877 28.4225 73.954 28.5827C74.0202 28.7296 74.18 28.8035 74.4333 28.8043ZM69.8621 39.6696C69.7954 39.6694 69.7221 39.6625 69.6421 39.6489C69.5754 39.6487 69.5088 39.6418 69.4422 39.6282C68.7092 39.5059 68.3371 39.0713 68.3259 38.3246C68.2884 37.4712 68.2643 36.5844 68.2536 35.6644C68.2428 34.7577 68.2321 33.8443 68.2214 32.9242C68.2241 32.0043 68.2267 31.0909 68.2293 30.1843C68.232 29.2643 68.2345 28.3843 68.2369 27.5443L68.2451 24.6843C68.2471 24.0043 68.2423 23.3376 68.2309 22.6842C68.2328 22.0176 68.2214 21.3509 68.1966 20.6841C68.1721 19.9507 68.1542 19.2173 68.143 18.4839C68.1451 17.7506 68.1339 17.0172 68.1093 16.2838L68.1102 15.9638C68.1252 15.4038 68.2329 15.0175 68.4336 14.8048C68.6475 14.5789 69.0346 14.4468 69.5947 14.4086L70.3548 14.391L71.8347 14.4158L73.4347 14.421L74.2346 14.4636C75.3675 14.6006 76.3198 14.9636 77.0914 15.5528C77.8764 16.142 78.4473 16.9972 78.8041 18.1183C79.3194 19.7333 79.6147 21.3743 79.6899 23.0412L79.6894 23.2212C79.6891 23.3279 79.6886 23.4879 79.688 23.7012C79.6874 23.9012 79.6733 24.1745 79.6457 24.5211C79.6182 24.7877 79.5773 25.1075 79.5229 25.4807C79.4685 25.8539 79.4074 26.2337 79.3396 26.6201C79.2449 27.1131 79.0768 27.5993 78.8354 28.0785C78.6074 28.5444 78.2929 28.9634 77.8918 29.3354C77.5041 29.7075 77.0299 30.0127 76.4692 30.2509C75.9085 30.4757 75.2615 30.5936 74.5281 30.6046C74.2615 30.6037 74.0948 30.6232 74.028 30.663C73.9612 30.7028 73.9275 30.8227 73.9269 31.0227L73.9224 32.6027C73.9211 33.0693 73.913 33.5426 73.8983 34.0226C73.8969 34.5026 73.8956 34.9826 73.8942 35.4626C73.8936 35.6759 73.8929 35.8892 73.8923 36.1026C73.8917 36.3159 73.8978 36.5293 73.9105 36.7426L73.9853 38.5429C73.9838 39.0629 73.7162 39.3887 73.1825 39.5203C73.0758 39.5466 72.9691 39.5596 72.8624 39.5593C72.769 39.5723 72.669 39.5853 72.5623 39.5983C72.1355 39.6236 71.7088 39.6355 71.2822 39.6342C70.8555 39.6461 70.4288 39.6581 70.0021 39.67L69.8621 39.6696ZM82.9061 39.6517C82.7594 39.6512 82.6195 39.6108 82.4864 39.5303C82.1936 39.3561 82.0477 39.0956 82.0487 38.7489C82.049 38.6423 82.0559 38.5623 82.0694 38.509C82.0962 38.4291 82.1231 38.3492 82.15 38.2692C82.1902 38.2027 82.2238 38.1361 82.2506 38.0696C82.801 36.7913 83.3981 35.4733 84.042 34.1153C84.6992 32.7708 85.3698 31.4129 86.0537 30.0418C86.2013 29.7223 86.2755 29.4358 86.2762 29.1825C86.2501 28.9691 86.2239 28.8023 86.1976 28.6823C86.1713 28.5488 86.1384 28.4221 86.0987 28.3019C85.5965 26.767 85.1342 25.2388 84.7119 23.7174C84.2896 22.1961 83.8739 20.708 83.4647 19.2534C83.3196 18.7062 83.2079 18.1592 83.1294 17.6123C83.0644 17.0654 82.9393 16.5183 82.7542 15.9711C82.7277 15.9043 82.7079 15.8376 82.6947 15.7709C82.6816 15.7042 82.6751 15.6375 82.6753 15.5708C82.6761 15.2908 82.7835 15.0512 82.9974 14.8519C83.2113 14.6525 83.505 14.5335 83.8784 14.4947C84.1985 14.4691 84.5185 14.4568 84.8385 14.4578C85.1585 14.4588 85.4785 14.4532 85.7986 14.4409C85.9452 14.4414 86.0919 14.4485 86.2385 14.4623C86.3851 14.4761 86.5318 14.4833 86.6785 14.4837C86.9584 14.498 87.1784 14.5187 87.3383 14.5459C87.4982 14.5731 87.6314 14.6268 87.7378 14.7072C87.8443 14.7875 87.9306 14.9078 87.9968 15.068C88.0763 15.2283 88.1624 15.4419 88.2549 15.7088C88.3211 15.8957 88.3738 16.0892 88.4133 16.2893C88.4661 16.4762 88.5055 16.6696 88.5316 16.8697C88.6628 17.6302 88.8404 18.4441 89.0646 19.3115C89.3021 20.1656 89.5662 21.0731 89.8568 22.034C89.9636 21.9677 90.0506 21.8747 90.1176 21.7549C90.1979 21.6218 90.2716 21.4954 90.3387 21.3756C90.8618 20.2839 91.3915 19.219 91.9278 18.1807C92.4775 17.1425 92.9537 16.164 93.3563 15.2453C93.4235 15.0588 93.5173 14.9058 93.6376 14.7862C93.8248 14.6001 94.0318 14.5075 94.2584 14.5082C94.3651 14.5086 94.4717 14.5289 94.5782 14.5692C94.9112 14.6903 95.0972 14.9309 95.1362 15.291L95.1358 15.411C95.1352 15.6244 95.1013 15.8176 95.0342 15.9907C94.967 16.1638 94.8932 16.3369 94.8127 16.51C94.3165 17.4951 93.7935 18.5534 93.2435 19.685C92.6936 20.8165 92.117 21.968 91.5136 23.1394C91.2722 23.6319 91.0911 24.0114 90.9703 24.2776C90.8496 24.5306 90.7888 24.7904 90.7881 25.0571C90.7875 25.2571 90.8202 25.4838 90.8861 25.7374C90.9521 25.9776 91.038 26.2512 91.1438 26.5582C91.4872 27.666 91.8107 28.767 92.1143 29.8614C92.4311 30.9557 92.7613 32.0501 93.1048 33.1446C93.3691 33.9854 93.66 34.813 93.9777 35.6274C94.2953 36.4418 94.6664 37.2363 95.0908 38.011C95.1306 38.1045 95.1637 38.1913 95.1901 38.2713C95.2165 38.3514 95.2296 38.4381 95.2293 38.5315C95.2287 38.7581 95.1481 38.9645 94.9876 39.1507C94.827 39.3368 94.6 39.4628 94.3065 39.5285C94.0396 39.5943 93.7662 39.6334 93.4861 39.6458C93.2061 39.6716 92.926 39.684 92.646 39.6831L90.806 39.6772C90.5128 39.6496 90.2663 39.5688 90.0667 39.4348C89.8804 39.3009 89.7343 39.1004 89.6284 38.8334C89.2977 37.939 88.9469 37.0578 88.576 36.19C88.2052 35.3221 87.8944 34.4278 87.6438 33.507C87.5778 33.2534 87.5119 33.0065 87.4459 32.7663C87.3799 32.5261 87.2938 32.3325 87.1876 32.1855C87.054 32.2517 86.9671 32.3381 86.9268 32.4446C86.8865 32.5378 86.8396 32.6377 86.7859 32.7442C86.2898 33.7293 85.8137 34.6944 85.3576 35.6396C84.9149 36.5982 84.5055 37.5168 84.1297 38.3956C84.0626 38.5554 83.9955 38.7085 83.9284 38.855C83.8612 39.0148 83.7675 39.1611 83.6471 39.2941C83.4464 39.5334 83.1994 39.6526 82.9061 39.6517Z" fill="white"/>
</svg>
