<svg width="189" height="67" viewBox="0 0 189 67" fill="none" xmlns="http://www.w3.org/2000/svg">
<path d="M7.67443 43.809L4.40314 38.7583L2.75722 18.6274C4.3862 15.7733 10.0348 9.91248 19.5974 9.30209C31.5506 8.53911 65.8388 6.73394 79.5645 7.03008C93.2902 7.32621 107.781 7.208 112.611 7.23845C117.441 7.26891 167.131 5.71194 173.465 8.89554C178.533 11.4424 183.161 16.2922 184.842 18.3988C184.331 18.8147 183.61 20.1095 184.818 21.9615C186.026 23.8135 186.651 26.6539 186.813 27.8425C186.13 28.5369 184.764 30.0932 184.76 30.7638C184.754 31.6022 180.177 31.7829 182.458 32.8452C184.283 33.6951 184.724 36.143 184.717 37.2608C182.93 38.2975 178.544 40.4076 175.289 40.5548C172.034 40.7019 169.182 41.4245 168.163 41.7674L168.152 43.4441C169.675 43.7332 172.416 44.3931 171.194 44.7207C169.666 45.1303 168.148 44.0727 166.872 44.6935C165.597 45.3142 163.809 46.5605 165.332 46.9892C165.798 47.3784 166.255 47.574 166.666 47.6515C167.171 47.5543 167.717 47.4752 168.125 47.426C167.863 47.5965 167.324 47.7759 166.666 47.6515C165.808 47.8166 165.069 48.034 165.323 48.2467C165.728 48.5846 167.352 49.0979 168.113 49.3122L169.375 50.5777L165.308 50.5521C163.071 50.538 163.52 51.7983 164.025 52.4303C163.431 52.5663 161.887 52.7522 160.466 52.4079C158.689 51.9775 159.448 52.611 156.396 52.8014C153.954 52.9536 114.929 53.8515 110.777 53.7554C111.118 53.4781 111.342 52.9206 109.512 52.9091L109.512 52.9091C107.224 52.8947 106.97 52.8931 104.171 53.2946C101.372 53.6961 71.8024 53.1548 63.1594 53.1003C56.245 53.0567 41.9323 53.0372 40.6613 53.0292C36.6741 53.7027 27.2256 54.9984 21.3292 54.7936C13.9586 54.5375 7.6174 52.4017 7.61879 52.1921C7.6199 52.0244 6.27184 50.8562 5.59767 50.293C6.27323 50.6466 7.62575 51.1442 7.63131 50.3059C7.63687 49.4675 6.29734 47.0139 5.62688 45.8919L7.67443 43.809Z" fill="#FDA3C4"/>
<path d="M12.425 55.7854C11.6116 55.7803 11.5721 56.6184 11.6541 57.0381L10.0004 57.2372C9.19074 57.9307 7.7243 59.2768 8.33551 59.113C8.94671 58.9492 10.1191 58.4955 10.6289 58.2891C10.9697 58.0118 13.2782 57.4675 19.7859 57.5085C27.9204 57.5598 27.1606 57.1358 27.9232 57.1406C28.6858 57.1455 13.4419 55.7918 12.425 55.7854Z" fill="#FDA3C4"/>
<path d="M40.6363 43.7884C40.1298 43.8028 39.809 43.5451 39.6739 43.0154C39.6302 42.8832 39.6064 42.7505 39.6026 42.6172L38.9381 34.0126C38.9158 33.2262 38.9009 32.4663 38.8934 31.7329C38.8847 31.4264 38.8758 31.1132 38.8667 30.7933C38.871 30.473 38.8689 30.1663 38.8606 29.8731C38.8652 29.5662 38.864 29.2861 38.8568 29.0329C38.8496 28.7796 38.8433 28.5597 38.838 28.3731L38.8233 27.8533C38.7576 26.4813 38.7055 25.1156 38.6669 23.7561C38.6283 22.3967 38.5907 21.0705 38.554 19.7777C38.5437 19.4179 38.6028 19.1494 38.7312 18.9724C38.8725 18.7817 39.1158 18.6614 39.4612 18.6116C39.7537 18.5767 40.0397 18.5485 40.3192 18.5273C40.5987 18.5061 40.8851 18.4913 41.1783 18.483C41.4848 18.4743 41.7982 18.4721 42.1185 18.4764C42.4387 18.4807 42.7525 18.4918 43.0598 18.5098C43.4071 18.5266 43.6633 18.6261 43.8286 18.8081C43.9934 18.9769 44.1008 19.2339 44.1506 19.5793C44.1669 19.6856 44.177 19.8054 44.1808 19.9386C44.1842 20.0586 44.1874 20.1719 44.1904 20.2785C44.2347 21.8379 44.2798 23.4239 44.3255 25.0366C44.371 26.6359 44.4234 28.2484 44.4829 29.8741L44.4971 30.3739C44.614 30.2638 44.6845 30.1618 44.7085 30.0678C44.7458 29.9733 44.7765 29.8791 44.8005 29.785C45.3012 28.1569 45.8401 26.4676 46.4173 24.7173C46.9942 22.9536 47.6108 21.1821 48.2672 19.4028C48.3175 19.2947 48.3611 19.1867 48.3981 19.079C48.4347 18.9579 48.4848 18.8431 48.5484 18.7346C48.7274 18.4628 48.9835 18.3221 49.3167 18.3127C49.3567 18.3116 49.3967 18.3104 49.4367 18.3093C49.49 18.3078 49.5437 18.3196 49.5977 18.3448C49.9884 18.4804 50.19 18.7682 50.2025 19.208C50.2066 19.3546 50.1904 19.4885 50.1539 19.6095C50.1173 19.7306 50.0742 19.8586 50.0247 19.9933C49.3313 21.8804 48.6775 23.753 48.0634 25.6111C47.4621 27.4555 46.8994 29.2455 46.3751 30.981C46.2406 31.4116 46.0992 31.8358 45.951 32.2535C45.8158 32.6575 45.6672 33.0618 45.5053 33.4666C45.4436 33.6417 45.4142 33.7826 45.4172 33.8892C45.421 34.0225 45.4789 34.1809 45.5908 34.3645C46.375 35.6762 47.1158 36.869 47.8133 37.9431C48.5244 39.0301 49.2736 40.0493 50.0609 41.0007C50.2406 41.2224 50.4596 41.4163 50.7177 41.5824C50.7855 41.6205 50.8466 41.6588 50.9011 41.6972C50.9692 41.7487 51.0374 41.8001 51.1055 41.8515C51.3378 42.045 51.4579 42.2817 51.4658 42.5616C51.4711 42.7482 51.4225 42.9163 51.3201 43.0659C51.1544 43.3374 50.9116 43.4777 50.5917 43.4867C50.4851 43.4897 50.3509 43.4602 50.189 43.3981C49.865 43.2605 49.5732 43.082 49.3135 42.8626C49.0538 42.6432 48.8067 42.3968 48.5722 42.1233C48.0464 41.4579 47.5266 40.7657 47.0126 40.0466C46.4987 39.3275 45.9743 38.4753 45.4394 37.49C45.369 37.3587 45.2855 37.2343 45.1888 37.117C45.0917 36.9864 44.9738 36.8296 44.8353 36.6468C44.8272 36.8338 44.8255 37.0072 44.83 37.1672C44.8346 37.3271 44.8391 37.487 44.8437 37.647C44.8535 37.9935 44.8694 38.3198 44.8915 38.626C44.9272 38.9451 44.9628 39.2576 44.9981 39.5634C45.051 40.0154 45.0972 40.4676 45.1367 40.92C45.1762 41.3724 45.2024 41.8252 45.2153 42.2783L45.2243 42.5982C45.2079 42.9588 45.122 43.2213 44.9666 43.3858C44.8249 43.5632 44.581 43.6635 44.2348 43.6866C43.982 43.7071 43.7289 43.7209 43.4757 43.7281C43.2225 43.7353 42.9692 43.7424 42.716 43.7496L40.6363 43.7884ZM61.4803 41.2578C61.7736 41.2495 62.0278 41.0422 62.243 40.636C62.3314 40.4601 62.3998 40.2847 62.4482 40.11C62.5103 39.9481 62.572 39.773 62.6333 39.5845C63.0707 38.0782 63.3812 36.5622 63.5646 35.0364C63.7614 33.5102 63.8639 31.9533 63.8722 30.3658L63.8682 30.2258C63.8209 28.5598 63.6222 26.9648 63.2721 25.4408C62.935 23.903 62.4915 22.375 61.9415 20.8566C61.913 20.7907 61.8846 20.7315 61.8564 20.6789C61.8283 20.6264 61.7999 20.5671 61.7713 20.5013C61.5346 20.1478 61.2296 19.9764 60.8564 19.9869C60.7098 19.9911 60.5576 20.0354 60.4 20.1199C60.2553 20.1907 60.1317 20.3009 60.0292 20.4505C59.8113 20.7635 59.6472 21.0883 59.5367 21.4248C59.4262 21.7614 59.3292 22.1043 59.2457 22.4535C58.998 23.5943 58.8371 24.7393 58.763 25.8885C58.6886 27.0244 58.6347 28.1797 58.6013 29.3545C58.5823 29.6218 58.5765 29.8887 58.5841 30.1553C58.5916 30.4218 58.5992 30.6884 58.6068 30.955C58.6503 32.4877 58.7987 33.9574 59.0521 35.3641C59.3055 36.7709 59.6519 38.1683 60.0915 39.5564C60.1646 39.7811 60.2439 39.9923 60.3296 40.1899C60.4156 40.4009 60.5346 40.5976 60.6865 40.7801C60.9492 41.1061 61.2138 41.2653 61.4803 41.2578ZM57.9968 43.2972C57.6903 43.3058 57.415 43.2403 57.1709 43.1004C56.9405 42.9736 56.7159 42.8132 56.497 42.6193C56.141 42.2959 55.8574 41.9371 55.6461 41.543C55.4481 41.1484 55.2763 40.7331 55.1305 40.297C54.6476 38.7901 54.2712 37.2801 54.0015 35.7672C53.7447 34.2405 53.5931 32.6575 53.5465 31.0181C53.5284 30.3784 53.5298 29.7248 53.5509 29.0572C53.5838 27.8691 53.6507 26.7001 53.7514 25.5501C53.8518 24.3868 54.0256 23.2281 54.273 22.074C54.5458 20.8791 55.0496 19.8311 55.7843 18.93C55.9386 18.7255 56.1073 18.5607 56.2905 18.4355C56.4737 18.3102 56.6982 18.2305 56.964 18.1963C57.3231 18.1595 57.6822 18.1226 58.0413 18.0858C58.4004 18.049 58.7665 18.0253 59.1397 18.0147C59.5662 18.0026 59.9868 18.0174 60.4015 18.059C60.8158 18.0873 61.2312 18.1556 61.6478 18.2639C62.1718 18.3958 62.5986 18.6304 62.9283 18.9679C63.258 19.3054 63.51 19.7251 63.6843 20.227C64.0908 21.3893 64.4508 22.5596 64.7644 23.7379C65.0909 24.9025 65.3318 26.1028 65.4869 27.3389C65.5382 27.7376 65.5829 28.1365 65.6209 28.5356C65.6719 28.921 65.7029 29.3069 65.7138 29.6934L65.7263 30.1332C65.7093 31.8811 65.5976 33.5849 65.3913 35.2448C65.1979 36.8909 64.864 38.521 64.3897 40.1351C64.3294 40.3635 64.2622 40.5788 64.1879 40.781C64.114 40.9965 64.0266 41.2058 63.9256 41.4087C63.5123 42.3541 62.7812 42.915 61.7325 43.0914C61.4008 43.1541 61.0685 43.1969 60.7357 43.2196C60.4162 43.242 60.0899 43.2579 59.7567 43.2674L57.9968 43.2972ZM75.2793 42.8081C74.9857 42.8031 74.6921 42.798 74.3985 42.793C74.1186 42.8009 73.8254 42.8092 73.5188 42.8179L72.5198 42.8662C72.1066 42.8779 71.7314 42.8151 71.394 42.6779C71.057 42.5541 70.7585 42.3758 70.4985 42.1431C70.2518 41.9099 70.0441 41.6424 69.8754 41.3404C69.7068 41.0383 69.5776 40.7152 69.4878 40.3709C69.3241 39.7753 69.1805 39.1792 69.0568 38.5824C68.9465 37.9853 68.8293 37.3817 68.7053 36.7716C68.5961 36.2145 68.5069 35.6568 68.4377 35.0985C68.3815 34.5266 68.3315 33.9411 68.2878 33.3421C68.2574 32.7427 68.2265 32.1233 68.195 31.4839C68.1769 30.8442 68.1511 30.1713 68.1177 29.4653L68.0747 27.2457C68.0645 26.8858 68.0542 26.5259 68.044 26.1661C68.0338 25.8062 68.0371 25.4527 68.0539 25.1054C68.0884 23.9706 68.2914 22.8978 68.6628 21.8869C69.0343 20.876 69.5133 19.8954 70.0999 18.945C70.6488 18.0758 71.423 17.6271 72.4226 17.5988L74.2819 17.5462L75.2821 17.5379C76.5494 17.542 77.6622 17.9774 78.6205 18.844C78.9353 19.1285 79.1978 19.4479 79.408 19.8021C79.6177 20.143 79.762 20.5257 79.8407 20.9503L79.8687 21.2296C79.8751 21.4562 79.854 21.6502 79.8052 21.8117C79.7454 22.0534 79.6374 22.2432 79.4812 22.381C79.3247 22.5055 79.1465 22.5706 78.9465 22.5762L78.8266 22.5796C78.6126 22.559 78.4304 22.4841 78.28 22.355C78.1292 22.2126 78.0502 22.0147 78.043 21.7615L78.0396 21.6415C78.023 21.0551 77.8369 20.6068 77.4812 20.2968C77.139 19.9863 76.7317 19.7378 76.2596 19.551C76.1248 19.5015 76.0104 19.4647 75.9163 19.4407C75.8223 19.4167 75.7286 19.406 75.6353 19.4086C75.4887 19.4128 75.3634 19.463 75.2594 19.5593C75.1554 19.6557 75.0397 19.8057 74.9121 20.0093C74.3765 20.8782 73.962 21.7836 73.6686 22.7256C73.3749 23.6543 73.2294 24.6388 73.2323 25.6791L73.3054 28.9584C73.3383 30.1179 73.3812 31.1571 73.4339 32.076C73.4867 32.9949 73.5585 33.8799 73.6494 34.731C73.7399 35.5687 73.8699 36.392 74.0396 37.2009C74.2097 38.0231 74.4 38.8514 74.6104 39.6858C74.6256 39.752 74.6406 39.8116 74.6555 39.8646C74.6707 39.9308 74.6926 39.9969 74.7211 40.0628C74.964 40.6295 75.3053 40.9066 75.7451 40.8941C75.9051 40.8896 76.0972 40.8442 76.3215 40.7578C76.7301 40.5862 77.1047 40.3888 77.4452 40.1658C77.7856 39.9427 78.0848 39.6741 78.3427 39.36C78.6009 39.0593 78.8043 38.7067 78.9529 38.3024C79.1015 37.898 79.1819 37.4422 79.1942 36.935L79.1949 36.2547C79.1839 35.8682 79.1531 35.4889 79.1025 35.1169C79.0653 34.7444 79.0145 34.3657 78.9502 33.9807C78.9331 33.8478 78.916 33.7149 78.8989 33.582C78.8818 33.4491 78.8711 33.3093 78.867 33.1627C78.8651 33.0961 78.8634 33.0361 78.8619 32.9828C78.8603 32.9295 78.8653 32.8693 78.8767 32.8023C78.9095 32.548 79.0038 32.3452 79.1596 32.1941C79.315 32.0296 79.506 31.9442 79.7326 31.9378L79.7725 31.9366C79.9858 31.9306 80.1745 31.9986 80.3386 32.1407C80.5023 32.2695 80.6077 32.4599 80.6549 32.712C80.7386 33.3099 80.8222 33.9077 80.9059 34.5056C80.9892 35.0901 81.0394 35.6823 81.0564 36.2821C81.0628 36.5086 81.0626 36.7354 81.0557 36.9623C81.0488 37.1893 81.0352 37.4164 81.015 37.6438C80.9665 38.2854 80.8099 38.8767 80.5452 39.4178C80.2804 39.9588 79.9209 40.4492 79.4665 40.8889C78.8952 41.4386 78.2744 41.8897 77.6042 42.2421C76.9339 42.5945 76.1789 42.7826 75.3393 42.8064L75.2793 42.8081ZM88.9933 42.52C88.7135 42.528 88.4332 42.5225 88.1526 42.5038C87.8856 42.498 87.6114 42.4724 87.33 42.427C87.0216 42.3691 86.7985 42.262 86.6607 42.1059C86.5365 41.9626 86.4564 41.7248 86.4203 41.3924C86.2561 39.8364 86.112 38.2865 85.9882 36.7427C85.878 35.2119 85.8006 33.6601 85.7559 32.0874L85.7322 30.5475C85.7199 29.174 85.6944 27.8075 85.6558 26.448C85.6302 25.0749 85.6308 23.6876 85.6577 22.2863C85.6715 21.8324 85.6857 21.3918 85.7002 20.9646C85.7277 20.5236 85.763 20.1224 85.8061 19.7611L85.8038 19.6811C85.7989 19.5078 85.7553 19.3824 85.6731 19.3047C85.6042 19.2266 85.4761 19.1769 85.2887 19.1555C84.9411 19.1253 84.6006 19.1149 84.2674 19.1244C84.1475 19.1277 84.0209 19.1313 83.8876 19.1351C83.7676 19.1385 83.6479 19.1486 83.5283 19.1653C83.408 19.1553 83.2878 19.1521 83.1679 19.1555C83.0479 19.1589 82.9342 19.1487 82.8269 19.1251C82.6254 19.0774 82.4627 18.982 82.3385 18.8388C82.2144 18.6956 82.1495 18.524 82.1439 18.3241L82.1422 18.2641C82.1319 17.9043 82.3108 17.6258 82.6787 17.4286C82.85 17.3571 83.029 17.3187 83.2156 17.3134L83.4561 17.3266C84.8292 17.3011 86.1824 17.2761 87.5156 17.2517C88.8617 17.2136 90.2212 17.1752 91.594 17.1363L92.9534 17.0978C93.1933 17.091 93.4608 17.1168 93.7559 17.1752C93.9844 17.2354 94.1609 17.3438 94.2854 17.5003C94.4228 17.6432 94.4944 17.8145 94.5 18.0145L94.484 18.155C94.4634 18.369 94.3752 18.5515 94.2195 18.7027C94.0633 18.8405 93.8588 18.9196 93.606 18.9401L91.8467 18.9899C91.6867 18.9944 91.5603 19.0047 91.4674 19.0206C91.3874 19.0229 91.328 19.0446 91.2892 19.0857C91.2503 19.1268 91.2189 19.1944 91.1949 19.2885C91.1838 19.3688 91.1739 19.4891 91.1651 19.6494C91.0529 20.8664 90.9943 22.0886 90.9891 23.3159C90.9969 24.5295 91.018 25.7427 91.0524 26.9556L91.1455 30.2342C91.1454 30.7011 91.1455 31.1746 91.1458 31.6548C91.1591 32.1213 91.1723 32.5878 91.1856 33.0542C91.2034 33.6806 91.2278 34.3069 91.2589 34.9329C91.2897 35.5456 91.3406 36.1644 91.4117 36.7893C91.4835 37.4409 91.5285 38.0865 91.5467 38.7263C91.5652 39.3794 91.6371 40.0309 91.7623 40.681C91.7767 40.7206 91.7845 40.7604 91.7857 40.8004C91.7872 40.8537 91.7885 40.9003 91.7896 40.9403L91.7804 41.3207C91.7484 41.6017 91.6613 41.8243 91.5193 41.9884C91.3905 42.1521 91.1868 42.2579 90.908 42.3058C90.5897 42.3681 90.2709 42.4172 89.9518 42.4529C89.6327 42.4886 89.3132 42.511 88.9933 42.52ZM106.673 39.9789C106.806 39.9751 106.921 39.7718 107.016 39.369C107.051 39.1946 107.079 39.0204 107.101 38.8463C107.123 38.6856 107.145 38.5116 107.166 38.3243C107.337 36.8255 107.448 35.3151 107.498 33.7931C107.561 32.2707 107.584 30.7161 107.566 29.1293L107.562 28.9894C107.514 27.3234 107.402 25.7259 107.225 24.197C107.048 22.6547 106.825 21.1204 106.555 19.5941C106.539 19.5278 106.524 19.4682 106.509 19.4153C106.508 19.362 106.5 19.3022 106.484 19.2359C106.368 18.8791 106.229 18.7029 106.069 18.7075C106.003 18.7094 105.937 18.7512 105.873 18.8331C105.808 18.9016 105.751 19.0099 105.702 19.158C105.617 19.4672 105.553 19.7892 105.509 20.1239C105.465 20.4586 105.428 20.7998 105.398 21.1474C105.31 22.2837 105.256 23.4257 105.235 24.5734C105.214 25.7078 105.207 26.8618 105.214 28.0354C105.208 28.3023 105.209 28.5691 105.216 28.8356C105.224 29.1022 105.231 29.3688 105.239 29.6353C105.283 31.168 105.371 32.6395 105.504 34.0496C105.651 35.4593 105.831 36.8615 106.044 38.256C106.077 38.4818 106.11 38.6943 106.142 38.8935C106.188 39.1056 106.247 39.304 106.319 39.4887C106.449 39.8185 106.567 39.9819 106.673 39.9789ZM100.705 27.1026C100.718 26.1418 100.751 25.1938 100.805 24.2586C100.865 23.1098 100.979 21.9594 101.147 20.8075C101.326 19.6153 101.677 18.5717 102.198 17.6765C102.313 17.4732 102.435 17.3097 102.565 17.186C102.695 17.0623 102.852 16.9844 103.038 16.9525C103.304 16.9183 103.563 16.8843 103.816 16.8505C104.068 16.8167 104.328 16.796 104.594 16.7884C104.901 16.7797 105.201 16.7979 105.496 16.8429C105.804 16.8742 106.106 16.9457 106.403 17.0574C106.78 17.1934 107.087 17.4315 107.323 17.7716C107.56 18.1117 107.745 18.5333 107.879 19.0364C108.179 20.2017 108.446 21.3746 108.679 22.5552C108.926 23.722 109.107 24.924 109.222 26.1613C109.26 26.5603 109.298 26.9594 109.336 27.3585C109.374 27.7443 109.398 28.1304 109.409 28.5169L109.421 28.9567C109.418 30.7042 109.353 32.4067 109.226 34.0643C109.1 35.7085 108.872 37.3356 108.545 38.9455C108.498 39.1736 108.45 39.3884 108.403 39.5898C108.356 39.8046 108.295 40.013 108.221 40.2152C107.927 41.1572 107.409 41.7121 106.667 41.8798C106.429 41.9399 106.19 41.98 105.95 42.0002C105.724 42.0199 105.491 42.0332 105.251 42.0399L103.991 42.0556C103.764 42.062 103.562 41.9944 103.385 41.8527C103.221 41.7239 103.063 41.5616 102.911 41.3659C102.648 41.0398 102.438 40.679 102.28 40.2833C102.135 39.8872 102.01 39.4706 101.904 39.0334C101.555 37.5227 101.278 36.0032 101.075 34.4751C100.956 33.5981 100.864 32.7003 100.798 31.7818C100.719 31.7974 100.639 31.8063 100.559 31.8086L100.319 31.8154C100.106 31.8214 99.8919 31.8075 99.6775 31.7735L99.7178 33.1929C99.75 34.3258 99.7956 35.465 99.8548 36.6104C99.873 37.2502 99.9039 37.8695 99.9476 38.4685C99.9917 39.0809 100.023 39.7002 100.04 40.3267C100.049 40.6332 100.049 40.88 100.041 41.0669C100.034 41.2672 100.012 41.4279 99.9751 41.549C99.9385 41.6701 99.8745 41.7653 99.7831 41.8345C99.6921 41.9171 99.5673 41.9874 99.4089 42.0452C99.2505 42.103 99.0915 42.1409 98.9319 42.1587C98.7724 42.1766 98.6126 42.1878 98.4527 42.1923L97.6924 42.1938C97.4784 42.1732 97.3225 42.0842 97.2247 41.9269C97.1268 41.7697 97.0658 41.4979 97.0415 41.1118C96.9936 40.3662 96.9519 39.6004 96.9162 38.8144C96.8525 37.509 96.7889 36.2103 96.7256 34.9183C96.6755 33.6258 96.632 32.3265 96.5949 31.0204L96.3519 22.4638C96.3459 21.7837 96.3333 21.1038 96.314 20.4241C96.2947 19.7444 96.3021 19.0639 96.3361 18.3827C96.343 18.1557 96.3577 17.9686 96.3802 17.8212C96.4027 17.6738 96.4326 17.5529 96.4699 17.4585C96.5206 17.3637 96.5853 17.2952 96.6641 17.2529C96.7559 17.197 96.8612 17.1473 96.98 17.1039C97.1788 17.0583 97.3711 17.0195 97.557 16.9876C97.7428 16.9556 97.929 16.937 98.1156 16.9317C98.3292 16.939 98.5096 16.9473 98.6565 16.9565C98.8031 16.9523 98.924 16.9822 99.0192 17.0462C99.1144 17.1102 99.1843 17.2216 99.2288 17.3804C99.2863 17.5255 99.319 17.738 99.3269 18.0179C99.336 18.3378 99.3379 18.6379 99.3325 18.9181C99.3267 19.1851 99.3212 19.4587 99.3158 19.7389C99.3233 20.0055 99.3246 20.2856 99.3196 20.5791C99.3276 20.859 99.3365 21.1722 99.3463 21.5188C99.3823 22.3181 99.4092 23.0309 99.427 23.6573C99.4448 24.2838 99.4689 24.8967 99.4992 25.496L99.5486 27.2353C99.8666 27.1596 100.206 27.1167 100.565 27.1065L100.705 27.1026ZM113.597 41.7838C113.05 41.7992 112.728 41.5016 112.631 40.8907C112.597 40.6516 112.571 40.4122 112.55 40.1727C112.53 39.9332 112.51 39.6937 112.49 39.4541C112.409 38.0025 112.314 36.5513 112.206 35.1004C112.098 33.6362 112.016 32.1713 111.962 30.7056C111.949 30.2791 111.924 29.853 111.885 29.4272C111.846 29.0015 111.821 28.5754 111.809 28.1489L111.564 18.1318C111.566 17.2381 111.978 16.7395 112.803 16.6362C113.241 16.5704 113.673 16.5182 114.099 16.4794C114.537 16.427 114.977 16.3946 115.416 16.3821C115.536 16.3787 115.656 16.3753 115.776 16.3719C115.896 16.3685 116.023 16.3716 116.157 16.3812C116.584 16.3958 116.886 16.4806 117.064 16.6356C117.242 16.7906 117.37 17.0738 117.448 17.4851C117.8 19.0491 118.254 20.7169 118.811 22.4885C119.368 24.2468 119.959 26.0375 120.584 27.8605L120.733 28.1764C120.825 28.1072 120.876 28.0523 120.889 28.012C120.914 27.9579 120.932 27.8974 120.944 27.8304C121.316 25.9257 121.73 24.0666 122.186 22.253C122.654 20.439 123.099 18.7191 123.52 17.0932C123.662 16.4622 123.98 16.1398 124.473 16.1258L124.593 16.1224C124.86 16.1549 125.084 16.2819 125.264 16.5036C125.443 16.712 125.544 16.9825 125.567 17.3154L125.699 21.9535L125.714 23.2136C125.742 24.1998 125.784 25.1791 125.838 26.1512C125.905 27.1097 125.979 28.0813 126.061 29.0661C126.158 30.1438 126.243 31.2752 126.317 32.4602C126.391 33.6453 126.463 34.777 126.534 35.8554C126.572 36.2679 126.603 36.6738 126.628 37.0733C126.667 37.4857 126.705 37.8981 126.743 38.3105C126.779 38.6163 126.814 38.9154 126.849 39.2079C126.884 39.5137 126.946 39.8187 127.035 40.123L127.082 40.3817C127.089 40.6083 127.014 40.8105 126.859 40.9883C126.718 41.179 126.535 41.3043 126.31 41.364C126.257 41.3788 126.184 41.3876 126.09 41.3902C125.904 41.3955 125.729 41.3337 125.565 41.205C125.402 41.0896 125.277 40.9197 125.19 40.6954C125.133 40.5503 125.089 40.4048 125.058 40.2589C125.041 40.126 125.024 39.9865 125.006 39.8402C124.787 37.2854 124.579 34.6836 124.384 32.0347C124.202 29.3855 124.041 26.7756 123.902 24.2052C123.887 24.139 123.872 24.0794 123.857 24.0264C123.842 23.9735 123.82 23.9141 123.792 23.8482C123.629 24.2263 123.506 24.6099 123.424 24.9991C123.341 25.3749 123.259 25.7574 123.177 26.1465C122.988 27.0322 122.807 27.911 122.631 28.783C122.469 29.6413 122.307 30.5129 122.145 31.3978C122.109 31.5455 122.074 31.6999 122.038 31.861C122.003 32.0221 121.954 32.1768 121.891 32.3253C121.803 32.5012 121.687 32.6313 121.542 32.7154C121.411 32.7991 121.266 32.8432 121.106 32.8478C120.799 32.8564 120.542 32.7237 120.334 32.4494C120.251 32.3451 120.188 32.2335 120.145 32.1147C120.101 31.9825 120.057 31.8504 120.013 31.7182C119.607 30.5426 119.187 29.3807 118.754 28.2325C118.321 27.0709 117.927 25.8882 117.573 24.6844C117.544 24.6186 117.523 24.5592 117.508 24.5062C117.506 24.4396 117.471 24.3872 117.403 24.3491L117.363 24.3502C117.323 24.3514 117.304 24.3786 117.306 24.4319C117.306 24.9254 117.307 25.4189 117.308 25.9124C117.321 26.3922 117.335 26.8787 117.349 27.3719C117.371 28.1315 117.418 28.8772 117.493 29.6087C117.567 30.3402 117.615 31.0858 117.636 31.8455C117.702 34.1779 117.828 36.4886 118.013 38.7776C118.033 39.0038 118.046 39.2369 118.053 39.4768C118.073 39.7163 118.1 39.9557 118.133 40.1948L118.16 40.4141C118.169 40.7607 118.083 41.0232 117.902 41.2018C117.733 41.3799 117.463 41.5009 117.092 41.5648C116.521 41.6477 115.948 41.6905 115.375 41.6934C114.802 41.7097 114.229 41.7392 113.657 41.7821L113.597 41.7838ZM134.793 26.7582C134.619 26.7631 134.515 26.8461 134.48 27.0071C134.444 27.1549 134.432 27.4353 134.444 27.8485C134.458 28.8218 134.478 29.7683 134.504 30.6879C134.53 31.5942 134.552 32.3672 134.57 33.007C134.576 33.7004 134.585 34.4805 134.596 35.3472C134.608 36.2272 134.62 37.1272 134.633 38.0472L134.637 38.9074C134.645 39.1607 134.722 39.2852 134.868 39.281L134.968 39.2582C135.033 39.2297 135.099 39.2011 135.165 39.1726C135.245 39.157 135.318 39.1349 135.383 39.1064C135.711 38.8971 135.99 38.6157 136.22 38.2624C136.45 37.9224 136.618 37.4708 136.722 36.9077C136.988 35.4862 137.12 34.0219 137.117 32.5147C137.114 32.4214 137.112 32.3215 137.109 32.2148C137.118 32.0945 137.122 31.9677 137.118 31.8344C137.116 31.7678 137.114 31.7012 137.112 31.6345C137.11 31.5679 137.102 31.5014 137.086 31.4352C137.068 31.2489 137.04 30.983 137.004 30.6372C136.98 30.2777 136.936 29.9055 136.872 29.5205C136.799 28.8422 136.643 28.2731 136.403 27.813C136.163 27.353 135.808 27.0429 135.336 26.8828C135.309 26.8703 135.282 26.8577 135.255 26.8451C135.242 26.8322 135.221 26.8261 135.195 26.8268C135.101 26.8028 135.02 26.7851 134.953 26.7736C134.886 26.7622 134.833 26.757 134.793 26.7582ZM128.746 16.0449L128.866 16.0415C129.253 16.0439 129.64 16.0463 130.027 16.0487C130.413 16.0378 130.8 16.0402 131.188 16.0559C131.281 16.0666 131.375 16.0772 131.469 16.0879C131.562 16.0853 131.656 16.096 131.75 16.12C132.233 16.2397 132.482 16.5594 132.497 17.0792L132.468 18.8808C132.461 19.0944 132.46 19.3078 132.466 19.5211C132.472 19.7343 132.478 19.9476 132.485 20.1608C132.498 20.6406 132.512 21.1204 132.525 21.6002C132.552 22.0797 132.572 22.5526 132.586 23.0191L132.631 24.5985C132.636 24.7984 132.666 24.9176 132.721 24.9561C132.789 24.9942 132.942 25.0098 133.182 25.003C133.849 24.9975 134.439 25.1075 134.952 25.3331C135.465 25.5453 135.9 25.8331 136.257 26.1965C136.628 26.5595 136.926 26.9779 137.153 27.4517C137.38 27.9121 137.54 28.3878 137.634 28.8786C137.698 29.2636 137.762 29.642 137.826 30.0137C137.89 30.3853 137.933 30.7043 137.954 30.9704C137.99 31.3162 138.011 31.5957 138.017 31.809C138.023 32.0089 138.027 32.1622 138.03 32.2688L138.036 32.4487C138.016 34.1166 137.796 35.7635 137.376 37.3894C137.074 38.5183 136.579 39.386 135.889 39.9925C135.212 40.5985 134.363 40.9827 133.34 41.145L132.622 41.2054L131.182 41.2461L129.844 41.304L129.163 41.3032C128.656 41.2776 128.305 41.1541 128.112 40.9328C127.92 40.7248 127.809 40.3412 127.78 39.7818L127.77 39.4619C127.776 38.7281 127.775 37.9945 127.768 37.2611C127.747 36.528 127.74 35.7946 127.746 35.0608C127.74 34.3941 127.728 33.7341 127.709 33.0811C127.704 32.4143 127.691 31.741 127.672 31.0613L127.591 28.2025C127.567 27.3628 127.542 26.4898 127.516 25.5835C127.49 24.6639 127.464 23.7443 127.438 22.8246C127.425 21.9046 127.413 20.9913 127.4 20.0846C127.388 19.1646 127.389 18.2775 127.405 17.4234C127.397 16.6767 127.718 16.2341 128.368 16.0957C128.434 16.0804 128.5 16.0719 128.567 16.07C128.633 16.0548 128.693 16.0464 128.746 16.0449ZM139.979 40.9972C139.899 40.9994 139.825 40.9815 139.757 40.9434C139.703 40.9183 139.642 40.8866 139.575 40.8485C139.331 40.7087 139.194 40.3591 139.165 39.7997C139.055 37.8287 138.953 35.8775 138.858 33.946C138.763 32.0013 138.688 30.0426 138.632 28.0701C138.611 27.3371 138.59 26.5974 138.569 25.851C138.561 25.1043 138.552 24.3242 138.542 23.5108C138.539 22.4705 138.523 21.4438 138.495 20.4309C138.466 19.418 138.443 18.3916 138.427 17.3516C138.41 16.7518 138.445 16.3374 138.532 16.1081C138.632 15.8785 138.816 15.76 139.082 15.7524L140.284 15.8184C140.486 15.8528 140.622 15.9556 140.693 16.127C140.778 16.298 140.827 16.5967 140.839 17.0232L140.854 17.563C140.87 18.1228 140.886 18.6759 140.901 19.2224C140.93 19.7684 140.952 20.3147 140.968 20.8611C140.972 21.0077 140.972 21.2478 140.968 21.5814C140.978 21.9146 140.982 22.3013 140.981 22.7415C140.994 23.1813 141 23.648 141.001 24.1415C141.002 24.635 141.009 25.115 141.022 25.5815C141.035 26.048 141.041 26.4747 141.038 26.8615C141.049 27.2481 141.058 27.5546 141.064 27.7812C141.08 28.3276 141.095 28.8674 141.11 29.4005C141.139 29.9333 141.167 30.466 141.196 30.9987L141.276 33.8176C141.296 34.524 141.329 35.2233 141.375 35.9156C141.435 36.6076 141.488 37.313 141.535 38.0319C141.559 38.3914 141.576 38.7511 141.586 39.1109L141.603 39.7107C141.597 40.4312 141.428 40.8228 141.096 40.8855C140.91 40.9175 140.724 40.9427 140.538 40.9613C140.352 40.9799 140.166 40.9919 139.979 40.9972Z" fill="white"/>
</svg>
