<svg width="115" height="121" viewBox="0 0 115 121" fill="none" xmlns="http://www.w3.org/2000/svg">
<path d="M33.8801 103.421L28.1799 101.907L11.3673 89.2249C9.94927 86.3402 8.23171 79.0723 12.7059 73.0788C18.2986 65.5869 24.2618 56.0556 31.6131 48.2472C38.9645 40.4388 46.3842 31.903 48.9126 29.1053C51.4409 26.3077 61.1914 14.5414 66.9995 13.0028C71.6459 11.7719 77.8905 12.3579 80.432 12.8048C80.4967 13.3849 81.1496 14.6828 83.2441 15.233C85.3387 15.7833 87.9146 17.3434 88.9407 18.0547C89.1373 18.9235 89.6627 20.7754 90.1921 21.2325C90.8538 21.8038 88.6239 24.5971 90.6487 23.9861C92.2686 23.4973 94.4381 24.8988 95.3204 25.6606C95.216 27.4056 94.6145 31.3952 93.0435 33.3942C91.4725 35.3932 90.5666 37.5471 90.3101 38.3741L91.6336 39.517C92.6526 38.8239 94.597 37.6717 94.2229 38.607C93.7553 39.7762 92.1298 39.9454 91.9607 41.1102C91.7916 42.2749 91.8527 44.1627 92.9819 43.5649C93.5321 43.5568 93.9241 43.4225 94.1985 43.2355C94.3833 42.8749 94.6038 42.5027 94.7766 42.2309C94.7759 42.4994 94.6387 42.9354 94.1985 43.2355C93.8847 43.8478 93.6739 44.4264 93.9745 44.422C94.4521 44.4149 95.7008 43.8154 96.2654 43.5165L97.9234 43.6373L95.7942 45.9933C94.6232 47.289 95.8553 47.881 96.6177 48.0151C96.4175 48.4539 95.7646 49.4805 94.7547 50.0765C93.4923 50.8215 94.3878 50.8083 92.9564 52.7181C91.8112 54.2459 87.0676 59.3427 84.839 61.7001C84.7958 61.3133 84.47 60.8047 83.5119 61.8649C82.3142 63.1901 82.1812 63.3374 81.0482 65.2427C79.9153 67.1481 69.3378 78.2003 64.8134 83.2066L58.2928 90.4216C56.7594 93.2046 52.8878 99.5961 49.6681 102.898C45.6436 107.025 40.6625 109.278 40.4971 109.135C40.3648 109.021 38.7397 109.016 37.9437 109.027C38.5742 108.873 39.67 108.421 39.0082 107.849C38.3465 107.278 35.7068 106.397 34.4697 106.028L33.8801 103.421Z" fill="#FDA3C4"/>
<path d="M45.8377 108.766C45.4119 109.237 46.0559 109.828 46.4311 110.064L45.7315 111.164C45.8616 112.107 46.1684 113.875 46.3554 113.407C46.5425 112.939 46.7906 111.948 46.8914 111.51C46.8482 111.124 47.6136 109.408 51.0203 105.638C55.2786 100.926 54.5485 101.083 54.9477 100.641C55.347 100.199 46.37 108.177 45.8377 108.766Z" fill="#FDA3C4"/>
<path d="M50.4484 84.4592C50.1012 84.8814 49.6701 84.9334 49.1552 84.6149C48.9629 84.4919 48.7697 84.3594 48.5756 84.2176C48.39 84.0655 48.2001 83.9186 48.006 83.7768L40.3105 77.9892C40.0563 77.8154 39.8115 77.6407 39.5762 77.4651C39.3305 77.2811 39.0993 77.1003 38.8828 76.9229C38.5424 76.644 38.2166 76.3685 37.9053 76.0963C37.5941 75.824 37.2828 75.5518 36.9715 75.2795C36.2065 74.6355 35.4371 73.9966 34.6636 73.3628C33.8985 72.7188 33.1377 72.0696 32.3811 71.4153C32.1729 71.2275 31.9742 71.0388 31.7849 70.8492C31.5852 70.6512 31.3856 70.4531 31.1859 70.2551C30.826 69.8741 30.6373 69.5471 30.62 69.2743C30.6111 68.9913 30.7666 68.6446 31.0865 68.2345L32.9154 66.0098C33.4187 65.4396 33.8921 65.3362 34.3356 65.6996C34.4697 65.8094 34.5817 65.9356 34.6716 66.0782C34.841 66.355 35.0402 66.5957 35.2689 66.8003C35.4874 66.9965 35.7152 67.1918 35.9524 67.3861C36.8121 68.125 37.6616 68.8554 38.5007 69.5773C39.3295 70.2908 40.1307 70.9644 40.9042 71.5982C41.884 72.4009 42.8817 73.1924 43.8973 73.9727C44.2358 74.2328 44.4787 74.3888 44.626 74.4405C44.7818 74.482 44.9444 74.3997 45.1137 74.1937C45.1645 74.1319 45.2196 74.0649 45.2788 73.9929C45.3363 73.902 45.4022 73.8009 45.4765 73.6894C45.6337 73.4562 45.7961 73.2273 45.9636 73.0025C46.1311 72.7778 46.3037 72.5573 46.4815 72.341C46.5493 72.2586 46.6086 72.1865 46.6594 72.1247C46.7186 72.0526 46.7727 71.9763 46.8217 71.8957C46.9432 71.685 47.0359 71.5197 47.1 71.3998C47.1622 71.2611 47.1929 71.1398 47.1921 71.0357C47.1811 70.9232 47.1385 70.828 47.0645 70.7501C46.9886 70.6535 46.8733 70.5418 46.7186 70.415L45.5919 69.5179C45.0453 69.0701 44.5226 68.6246 44.0239 68.1815C43.5148 67.7299 43.046 67.3028 42.6176 66.9001C42.2098 66.5143 41.7894 66.144 41.3562 65.7891C40.9211 65.4155 40.4819 65.047 40.0384 64.6836L37.9653 62.9852C37.8828 62.9176 37.7918 62.8603 37.6923 62.8133C37.6014 62.756 37.5104 62.6987 37.4194 62.6414L37.2365 62.5174C37.0921 62.3991 36.9731 62.2499 36.8796 62.0698C36.6887 61.6721 36.7203 61.3188 36.9743 61.0098L37.0124 60.9635C37.3209 60.6302 37.6844 60.566 38.1028 60.7709C38.2332 60.8432 38.3551 60.9259 38.4685 61.0188C38.5905 61.1015 38.7082 61.1893 38.8216 61.2822C40.1315 62.3554 41.4132 63.4313 42.6667 64.51C43.9184 65.5699 45.1222 66.6251 46.2781 67.6755L47.0389 68.3247C47.4102 68.6289 47.7839 68.9092 48.16 69.1656C48.251 69.2229 48.3326 69.2811 48.4048 69.3403C48.477 69.3994 48.5609 69.4338 48.6567 69.4433C48.9458 69.4905 49.1832 69.5902 49.3688 69.7423C49.5235 69.869 49.6444 70.037 49.7313 70.2461C49.7697 70.3465 49.8404 70.4389 49.9435 70.5234C50.0157 70.5825 50.0922 70.6365 50.1728 70.6854C50.2432 70.7258 50.3187 70.7704 50.3994 70.8193L56.5515 74.7995C56.6219 74.8399 56.688 74.8855 56.7499 74.9362C56.8202 74.9766 56.8863 75.0221 56.9482 75.0728C57.1375 75.2624 57.2527 75.4688 57.2936 75.6919C57.343 75.9048 57.3061 76.1072 57.1828 76.2992L57.1066 76.3919C56.9626 76.567 56.784 76.6792 56.5708 76.7286C56.3661 76.7677 56.1478 76.7182 55.9162 76.5801C55.5644 76.3781 55.2117 76.1667 54.8581 75.946C54.5148 75.7337 54.1706 75.512 53.8255 75.2809C52.9842 74.7296 52.2184 74.2229 51.5282 73.7608C50.8379 73.2987 50.1176 72.8206 49.3673 72.3266C49.1854 72.212 49.0559 72.149 48.9789 72.1376C48.9104 72.116 48.8423 72.1464 48.7746 72.2287L48.5515 72.5631C48.2371 73.0295 47.9124 73.4874 47.5774 73.9369C47.2509 74.3761 46.9201 74.8204 46.5851 75.2699C46.443 75.4637 46.3662 75.599 46.3548 75.6759C46.3331 75.7443 46.3945 75.8376 46.5389 75.9559L51.7574 79.8435L52.5 80.4519C52.9527 80.909 52.9971 81.359 52.633 81.8019C52.4824 82.006 52.3309 82.2008 52.1785 82.3862C52.0261 82.5716 51.8737 82.757 51.7212 82.9424L50.4484 84.4592ZM64.1388 67.838C63.9338 68.0665 63.7186 68.1918 63.4932 68.214C63.2781 68.2446 63.0674 68.1755 62.8612 68.0065L62.6545 67.7854C62.513 67.6006 62.3546 67.4363 62.1793 67.2927C62.0124 67.1387 61.8498 66.9797 61.6914 66.8154C61.4917 66.6174 61.195 66.3484 60.8012 66.0086C60.4159 65.6584 59.9851 65.2796 59.5089 64.8722C59.0514 64.4629 58.5699 64.0512 58.0645 63.6372C57.5573 63.2044 57.0871 62.8105 56.6539 62.4556C56.2189 62.082 55.8415 61.7642 55.5218 61.5022C55.2105 61.23 55.0085 61.0558 54.9156 60.9798C54.4412 60.5911 53.9367 60.1864 53.4023 59.7658C52.8575 59.3367 52.3066 58.894 51.7496 58.4377L51.3474 58.1081C51.2855 58.0575 51.2325 58.0485 51.1883 58.0812C51.1872 58.1665 51.2092 58.2448 51.2541 58.3161C51.2972 58.3687 51.3412 58.4306 51.3862 58.5019C51.9697 59.3247 52.5533 60.1476 53.1369 60.9704C53.7204 61.7932 54.2955 62.6264 54.8622 63.4698C55.6171 64.5881 56.3837 65.6816 57.1622 66.7503C57.9406 67.819 58.6167 68.9072 59.1904 70.015C59.343 70.3123 59.4946 70.6003 59.6453 70.8789C59.796 71.1575 59.9331 71.4421 60.0565 71.7329C60.2614 72.1765 60.2326 72.558 59.9701 72.8773L59.7486 73.0837C59.2917 73.4505 58.7978 73.4423 58.2671 73.0592C58.2052 73.0085 58.1433 72.9578 58.0814 72.9071C58.028 72.8461 57.9746 72.7851 57.9212 72.7241C56.8168 71.7159 55.7003 70.6805 54.5716 69.6179C53.4411 68.5366 52.3003 67.4468 51.1491 66.3486C50.1236 65.3705 49.0872 64.4266 48.0399 63.5169C46.9824 62.5988 45.907 61.6919 44.8137 60.7962C44.3908 60.4497 43.9731 60.1075 43.5606 59.7695C43.148 59.4315 42.7467 59.1113 42.3566 58.809L40.9825 57.7091C40.7846 57.5298 40.6756 57.337 40.6553 57.1307C40.6331 56.9057 40.6879 56.6921 40.8197 56.4898L40.8451 56.4589C40.9891 56.2838 41.1634 56.1767 41.3682 56.1376C41.5729 56.0985 41.7902 56.1387 42.02 56.258C42.1401 56.3219 42.2517 56.3961 42.3549 56.4806C42.458 56.5651 42.5654 56.6445 42.677 56.7187C42.9621 56.9178 43.2593 57.1441 43.5687 57.3976C43.8763 57.6323 44.1848 57.8764 44.4942 58.1299L47.2663 60.4269C48.4524 61.3986 49.5985 62.3979 50.7047 63.4249C51.8109 64.4518 52.9181 65.4881 54.0261 66.5338C54.1536 66.6727 54.2904 66.8107 54.4367 66.9477C54.5726 67.0763 54.7179 67.204 54.8726 67.3307C54.9654 67.4068 55.0677 67.4819 55.1793 67.5561C55.2806 67.6219 55.3912 67.6867 55.5113 67.7506C55.4542 67.6521 55.4022 67.5578 55.3555 67.4678C55.3087 67.3777 55.2525 67.2886 55.1869 67.2004C54.7326 66.5352 54.2793 65.8794 53.8269 65.233C53.3829 64.5762 52.9296 63.9204 52.4669 63.2655C51.2323 61.5129 50.009 59.7781 48.7969 58.0612C47.583 56.3254 46.2689 54.68 44.8547 53.125C44.6429 52.8997 44.5268 52.684 44.5065 52.4777C44.4947 52.2612 44.5843 52.0157 44.7753 51.7413C45.0003 51.4258 45.2261 51.1195 45.4529 50.8227C45.6797 50.5259 45.9158 50.2281 46.1614 49.9294C46.517 49.4968 46.8797 49.0872 47.2493 48.7006C47.4731 48.4703 47.7123 48.3474 47.9668 48.3318C48.2297 48.3059 48.4798 48.3901 48.717 48.5845L49.0728 48.876C49.3307 49.0872 49.5928 49.2933 49.8591 49.4943C50.1151 49.6868 50.372 49.8887 50.6299 50.0999L50.9393 50.3534C51.3865 50.7542 51.8576 51.1575 52.3527 51.5631C52.8477 51.9687 53.348 52.3785 53.8533 52.7925C54.4103 53.2488 54.9621 53.7009 55.5087 54.1487C56.0535 54.5778 56.6128 55.0102 57.1867 55.4459L57.9266 56.0262L58.1741 56.229C58.3494 56.3726 58.5876 56.5764 58.8885 56.8402C59.1876 57.0852 59.5186 57.365 59.8814 57.6795C60.2443 57.994 60.6329 58.3296 61.0473 58.6863C61.4514 59.0346 61.8503 59.3787 62.2441 59.7185C62.636 60.0396 63.0031 60.349 63.3453 60.6466C63.6978 60.9526 63.9978 61.2071 64.2454 61.4098C64.5651 61.6718 64.867 61.945 65.151 62.2294C65.4453 62.5222 65.7439 62.8099 66.0467 63.0925C66.2323 63.2446 66.3926 63.4275 66.5274 63.6414C66.8262 64.0758 66.8105 64.4939 66.4803 64.8956C66.0926 65.3881 65.7049 65.8806 65.3173 66.3731C64.9381 66.8554 64.5453 67.3437 64.1388 67.838ZM72.1059 58.1787C71.945 58.3744 71.7841 58.5701 71.6232 58.7658C71.4708 58.9512 71.2996 59.1385 71.1096 59.3275C70.8858 59.5578 70.617 59.7168 70.3032 59.8045C69.9998 59.9007 69.6884 59.9644 69.3692 59.9959C68.4912 60.035 67.6618 59.9416 66.881 59.7156C66.1002 59.4896 65.3426 59.1619 64.6082 58.7325C64.4056 58.601 64.203 58.4695 64.0004 58.338C63.8063 58.1962 63.6164 58.0493 63.4308 57.8972C63.0698 57.6015 62.7266 57.2945 62.4014 56.9763C62.0743 56.6393 61.7514 56.2972 61.4327 55.95C61.057 55.5043 61.0215 55.096 61.3263 54.7252L61.3771 54.6634C61.5483 54.4762 61.7518 54.3757 61.9875 54.3619C62.2232 54.3482 62.4493 54.43 62.6659 54.6075L62.7897 54.7089C62.934 54.8272 63.07 54.9558 63.1974 55.0947C63.3334 55.2233 63.4651 55.357 63.5925 55.4959C63.7509 55.6602 63.9042 55.8202 64.0522 55.976C64.2088 56.1215 64.3748 56.2661 64.5501 56.4097C65.5712 57.2463 66.749 57.7976 68.0837 58.0637C68.5577 58.159 69.0094 58.124 69.4388 57.9587C69.8681 57.7933 70.2183 57.5459 70.4892 57.2163C70.6586 57.0103 70.7928 56.7841 70.8918 56.5377C70.9908 56.2913 71.04 56.0214 71.0396 55.728C71.0399 55.5387 71.0027 55.353 70.9279 55.1711C70.8634 54.9976 70.7852 54.8302 70.6935 54.6688C70.5015 54.3564 70.2936 54.074 70.0696 53.8216C69.8456 53.5691 69.5995 53.3331 69.3314 53.1134C69.0013 52.843 68.6511 52.6077 68.2805 52.4075C67.9184 52.1971 67.5343 52.003 67.128 51.8253C67.0389 51.7868 66.9516 51.767 66.8662 51.7659C66.7704 51.7564 66.6747 51.7469 66.5789 51.7374C66.3001 51.6986 66.1015 51.7513 65.9829 51.8955C65.9152 51.9779 65.8699 52.0959 65.8471 52.2496C65.8442 52.3162 65.8319 52.3836 65.8102 52.452C65.7866 52.5017 65.764 52.5607 65.7423 52.6291C65.6782 52.749 65.625 52.8347 65.5827 52.8862C65.3625 53.154 65.0985 53.2652 64.7906 53.2198C64.5888 53.1923 64.4209 53.1237 64.2868 53.0138C64.1114 52.8702 63.9963 52.6638 63.9413 52.3947C63.9284 52.2635 63.9291 52.1261 63.9434 51.9828C63.9875 51.4673 63.9395 50.9798 63.7994 50.5203C63.6594 50.0608 63.4545 49.6172 63.1848 49.1894C62.9928 48.877 62.7057 48.5124 62.3233 48.0958C61.9494 47.6688 61.5552 47.2769 61.1408 46.9201L59.8075 45.802C59.4672 45.5231 59.1226 45.2494 58.7738 44.9809C58.4146 44.7039 58.047 44.4372 57.6709 44.1808C57.3446 43.9479 57.0022 43.745 56.6438 43.572C56.2939 43.3888 55.9313 43.221 55.556 43.0686C54.9649 42.8429 54.5381 42.8896 54.2756 43.2089C54.1486 43.3634 54.0383 43.592 53.9449 43.8946C53.7701 44.5271 53.7611 45.1574 53.9178 45.7857C54.1025 46.5058 54.3765 47.1698 54.7397 47.7777C55.103 48.3856 55.5429 48.9528 56.0593 49.4793L56.3097 49.7103C56.454 49.8286 56.6121 49.9408 56.7837 50.0469C56.9638 50.1428 57.143 50.2293 57.3213 50.3064C57.4395 50.3515 57.545 50.4121 57.6379 50.4882C57.9473 50.7417 58.0308 51.06 57.8884 51.4432C57.8516 51.5509 57.7993 51.646 57.7315 51.7284C57.4775 52.0374 57.1365 52.1372 56.7086 52.0279C56.1708 51.8632 55.6751 51.5949 55.2213 51.2231C55.1491 51.1639 55.082 51.109 55.0201 51.0583C54.9479 50.9992 54.88 50.9349 54.8163 50.8654C54.2276 50.2797 53.7198 49.6482 53.2928 48.9709C52.8657 48.2935 52.5229 47.5559 52.2641 46.7578C51.967 45.8595 51.8676 44.9937 51.9657 44.1605C52.0535 43.3189 52.3815 42.5104 52.95 41.735L53.8898 40.5918L54.8452 39.4612C55.2723 38.9837 55.7366 38.6919 56.2381 38.5857C56.7294 38.4711 57.2626 38.4943 57.8379 38.6554C58.7745 38.9228 59.6395 39.3298 60.4329 39.8764C60.8381 40.1394 61.2348 40.4127 61.623 40.6963C62.0094 40.9612 62.3573 41.2204 62.6667 41.4738L62.9916 41.74C63.7482 42.3944 64.4336 42.9989 65.0476 43.5537C65.6702 44.0982 66.1654 44.6505 66.5335 45.2106C66.7236 45.5042 66.9043 45.7988 67.0757 46.0943C67.2555 46.3795 67.3995 46.6871 67.5079 47.0172C67.5425 47.0801 67.572 47.1387 67.5963 47.1931C67.6103 47.239 67.638 47.2789 67.6792 47.3127C67.7411 47.3634 67.8284 47.3832 67.9411 47.3721C68.4294 47.324 68.8814 47.341 69.2973 47.4231C69.7215 47.495 70.1274 47.6206 70.5149 47.8002C70.9023 47.9797 71.2696 48.1944 71.6165 48.4442C71.9635 48.694 72.3072 48.9583 72.6475 49.2372L73.0188 49.5414C73.8233 50.2005 74.4191 51.0505 74.806 52.0915C75.1163 52.9317 75.0755 53.7687 74.6835 54.6025C74.4649 55.0783 74.2093 55.5153 73.9166 55.9133C73.6324 56.3009 73.3294 56.6905 73.0076 57.0819L72.1059 58.1787Z" fill="white"/>
</svg>
