<svg width="168" height="66" viewBox="0 0 168 66" fill="none" xmlns="http://www.w3.org/2000/svg">
<path d="M7.70437 44.595L4.48515 39.4031L2.95595 18.6597C4.58662 15.7106 10.2203 9.64453 19.7098 8.97336C31.5716 8.13439 45.7152 6.22006 59.33 6.46504C72.9447 6.71002 87.3208 6.52453 92.112 6.53471C96.9033 6.5449 146.205 4.7218 152.472 7.97559C157.486 10.5786 162.053 15.5574 163.709 17.7214C163.2 18.1524 162.479 19.4902 163.668 21.3939C164.856 23.2977 165.462 26.2227 165.616 27.4473C164.935 28.166 163.572 29.7762 163.564 30.4675C163.554 31.3317 159.013 31.5381 161.27 32.6231C163.076 33.4911 163.501 36.0125 163.488 37.1647C161.711 38.2412 157.348 40.4355 154.118 40.6015C150.889 40.7675 148.056 41.5248 147.043 41.8827L147.023 43.6112C148.533 43.9024 151.249 44.5706 150.035 44.9137C148.517 45.3426 147.016 44.2591 145.748 44.9046C144.479 45.55 142.7 46.8425 144.208 47.2778C144.668 47.6769 145.12 47.8765 145.527 47.9546C146.029 47.8522 146.571 47.7683 146.977 47.7158C146.716 47.8927 146.18 48.0799 145.527 47.9546C144.676 48.1285 143.941 48.3559 144.193 48.574C144.592 48.9205 146.2 49.4425 146.954 49.6601L148.201 50.959L144.166 50.9504C141.947 50.9457 142.386 52.2429 142.883 52.8921C142.293 53.0349 140.761 53.2333 139.353 52.8846C137.592 52.4488 138.341 53.0985 135.313 53.3081C132.89 53.4758 94.1713 54.5726 90.0533 54.4918C90.3928 54.2045 90.6179 53.6289 88.8023 53.625C86.5328 53.6202 86.2806 53.6196 83.5018 54.0458C80.723 54.472 61.3109 53.9987 52.7371 53.9804L40.3808 53.9542C36.4219 54.6659 27.0421 56.0431 21.1937 55.8578C13.8832 55.6262 7.60358 53.4524 7.60604 53.2364C7.60801 53.0636 6.2767 51.8653 5.61081 51.2878C6.27916 51.6492 7.61833 52.1562 7.62816 51.292C7.638 50.4279 6.32177 47.9046 5.66243 46.751L7.70437 44.595Z" fill="#FDA3C4"/>
<path d="M12.3555 56.9192C11.5485 56.9175 11.5051 57.7816 11.5842 58.2138L9.94266 58.4264C9.13593 59.1448 7.67426 60.5388 8.28143 60.3673C8.88861 60.1957 10.054 59.7229 10.5608 59.5079C10.9003 59.2206 13.1932 58.6493 19.6487 58.6631C27.7182 58.6802 26.9666 58.2465 27.7231 58.2481C28.4796 58.2498 13.3642 56.9214 12.3555 56.9192Z" fill="#FDA3C4"/>
<path d="M52.9699 44.2778C52.77 44.2835 52.5699 44.2826 52.3696 44.275C52.183 44.2803 51.9895 44.2792 51.7892 44.2716C51.4287 44.2553 51.1658 44.1561 51.0006 43.9741C50.8359 43.8054 50.7414 43.528 50.7173 43.1419C50.6115 41.7444 50.5141 40.4066 50.425 39.1286C50.3497 37.8636 50.2922 36.5247 50.2527 35.1119L50.2139 32.2919L50.2049 31.2517C50.1799 30.3587 50.1351 29.473 50.0706 28.5945C50.0056 27.7026 49.9607 26.8102 49.9357 25.9172L49.9128 25.0976C49.9223 24.4837 49.9119 23.8704 49.8814 23.2577C49.8509 22.645 49.8605 22.0311 49.91 21.4161L49.9066 21.2962C49.8995 21.0429 49.7359 20.9143 49.4156 20.9101L49.0358 20.921C48.4494 20.9378 47.8637 20.9813 47.2787 21.0515C46.7068 21.1079 46.1276 21.1445 45.5411 21.1614L43.8224 21.2307C43.5025 21.2399 43.3402 21.3979 43.3355 21.7048C43.3384 21.8115 43.3346 21.9116 43.3238 22.0053C43.3128 22.0857 43.3085 22.1725 43.3111 22.2658L43.3973 26.0649C43.4122 26.598 43.4269 27.1245 43.4414 27.6442C43.456 28.164 43.484 28.6901 43.5256 29.2225C43.549 29.582 43.5723 29.9414 43.5957 30.3009C43.6191 30.6604 43.6358 31.0201 43.6459 31.3799L43.6505 32.2602C43.6339 32.6208 43.6306 32.981 43.6407 33.3409C43.6504 33.6874 43.6602 34.0406 43.6703 34.4005C43.6837 34.8803 43.6967 35.3468 43.7094 35.7999C43.735 36.2394 43.7605 36.6721 43.7857 37.0983C43.811 37.5244 43.8299 37.964 43.8426 38.4172C43.8682 38.8566 43.8877 39.3162 43.9011 39.7961L43.914 40.2559C43.9259 40.6824 43.958 41.115 44.0103 41.5537C44.0759 41.992 44.115 42.4377 44.1277 42.8908L44.1322 43.0508C44.1311 43.491 44.0532 43.8067 43.8985 43.9979C43.7571 44.1887 43.4676 44.3304 43.0301 44.423C42.6984 44.4858 42.3661 44.5287 42.0333 44.5516C41.7008 44.5878 41.3613 44.6109 41.0148 44.6208L40.0147 44.6295C39.5874 44.6151 39.2847 44.5238 39.1066 44.3555C38.9419 44.1868 38.8402 43.8896 38.8016 43.4639C38.674 41.7601 38.5615 40.1227 38.4642 38.5515C38.367 36.9803 38.2945 35.3417 38.2468 33.6357L37.9831 24.1994C37.9682 23.6663 37.9601 23.1396 37.9589 22.6195C37.9573 22.0859 37.9824 21.5517 38.0342 21.0166C38.0541 20.776 38.0885 20.5749 38.1373 20.4134C38.1862 20.252 38.256 20.1232 38.3466 20.0273C38.4503 19.9176 38.5813 19.8338 38.7398 19.7759C38.9115 19.7176 39.117 19.6717 39.3562 19.6381C39.7941 19.5589 40.2328 19.5063 40.6723 19.4803C41.1117 19.4544 41.558 19.4349 42.0112 19.4219L44.0109 19.3845C44.2775 19.3769 44.5373 19.3694 44.7906 19.3621C45.0571 19.3545 45.3233 19.3335 45.5891 19.2992C46.0948 19.258 46.6006 19.2168 47.1063 19.1756C47.6253 19.1341 48.1381 19.106 48.6445 19.0915L49.0044 19.0811C49.871 19.0696 50.7248 19.0718 51.5655 19.0877C52.4193 19.0899 53.2734 19.1054 54.1278 19.1342C54.5418 19.149 54.8378 19.2405 55.0159 19.4088C55.2069 19.5634 55.3077 19.8273 55.3181 20.2005L55.3054 20.461C55.2585 21.1693 55.2314 21.8703 55.2241 22.5642C55.2301 23.2576 55.243 23.9575 55.2628 24.6639C55.2825 25.3703 55.3087 26.0698 55.3414 26.7625C55.3741 27.4552 55.4137 28.1544 55.4601 28.86L55.5153 30.1189C55.5362 30.8653 55.5435 31.6054 55.5373 32.3392C55.5445 33.0726 55.5583 33.8059 55.5788 34.5389L55.6719 36.437C55.6994 36.9431 55.7263 37.4292 55.7526 37.8953C55.779 38.3614 55.7985 38.821 55.8112 39.2742C55.8376 39.7403 55.8637 40.1997 55.8897 40.6525C55.9294 41.1182 55.9763 41.6037 56.0305 42.1091L56.0528 42.9088C56.0488 43.2423 55.9757 43.4912 55.8336 43.6554C55.6918 43.8328 55.462 43.9595 55.144 44.0353C54.4276 44.1759 53.7029 44.2567 52.9699 44.2778ZM64.6582 18.5919C65.0181 18.5816 65.3785 18.5912 65.7394 18.6209C66.1 18.6372 66.4543 18.6671 66.8024 18.7104C67.471 18.7713 68.0045 19.0094 68.4029 19.4248C68.8147 19.8399 69.1224 20.3512 69.3262 20.959C69.5003 21.4609 69.6212 21.9709 69.6891 22.4892C69.7699 22.9937 69.8308 23.5055 69.872 24.0246L70.3734 29.7926C70.4071 30.045 70.4314 30.4378 70.4463 30.971C70.4609 31.4908 70.4754 32.0106 70.4899 32.5303C70.5018 32.9568 70.5124 33.3367 70.5218 33.6699C70.5307 33.9898 70.5298 34.1966 70.5191 34.2902C70.5101 35.8778 70.4772 37.326 70.4204 38.6349C70.377 39.9433 70.3128 41.2257 70.2278 42.482C70.1865 42.91 70.0749 43.2133 69.8931 43.3919C69.7114 43.5706 69.401 43.6795 68.9619 43.7188C68.6161 43.7554 68.2635 43.7855 67.904 43.8092C67.5582 43.8458 67.2121 43.869 66.8656 43.879C66.7323 43.8828 66.6057 43.8864 66.4857 43.8899C66.3658 43.8933 66.239 43.8903 66.1053 43.8808C65.6377 43.8542 65.3084 43.7636 65.1173 43.609C64.94 43.4674 64.8457 43.1966 64.8345 42.7968L64.8456 42.4764C64.8814 41.8484 64.9174 41.2271 64.9536 40.6125C64.9897 39.9979 65.0189 39.3701 65.041 38.7292C65.0719 37.928 65.0964 37.1336 65.1144 36.3461C65.1321 35.5453 65.1497 34.7444 65.1673 33.9436L65.1573 33.5838C65.1513 33.3705 65.1372 33.1041 65.1149 32.7846C65.1056 32.4514 65.0896 32.1184 65.067 31.7856C65.0573 31.4391 65.0415 31.1127 65.0196 30.8066C65.0107 30.4867 64.9969 30.2336 64.9784 30.0474C64.8834 29.0364 64.7953 28.0319 64.7141 27.0338C64.6325 26.0224 64.5438 24.9978 64.4481 23.9601C64.4136 23.681 64.3725 23.4021 64.3247 23.1233C64.2902 22.8442 64.2491 22.5653 64.2013 22.2865C64.1849 22.1803 64.1622 22.0809 64.1329 21.9884C64.1033 21.8825 64.0736 21.7766 64.044 21.6708C63.9577 21.4465 63.8388 21.2498 63.6874 21.0808C63.5489 20.898 63.3591 20.7901 63.1181 20.757L62.9776 20.741C62.7644 20.7471 62.5865 20.8256 62.444 20.9764C62.3148 21.1268 62.1928 21.2971 62.0781 21.4871C61.7724 22.0028 61.5407 22.543 61.3831 23.1077C61.2255 23.6725 61.0814 24.2435 60.9508 24.8208C60.7163 25.9747 60.5615 27.1196 60.4866 28.2555C60.4116 29.3915 60.377 30.5396 60.3828 31.6999C60.3876 31.8732 60.3925 32.0465 60.3973 32.2197C60.4018 32.3797 60.3931 32.5467 60.3713 32.7207C60.2996 33.4964 60.2547 34.278 60.2367 35.0655C60.2187 35.853 60.2142 36.6468 60.2233 37.4469C60.2319 38.2336 60.2476 39.0335 60.2703 39.8465C60.2931 40.6595 60.3095 41.4861 60.3196 42.3261C60.3237 42.4727 60.321 42.6129 60.3114 42.7465C60.3155 42.8931 60.3062 43.0401 60.2837 43.1875C60.2245 43.456 60.1168 43.6592 59.9606 43.797C59.8181 43.9478 59.6335 44.0265 59.407 44.033L59.287 44.0364C58.752 43.9851 58.476 43.6529 58.4588 43.0398C58.4494 42.2264 58.4414 41.4596 58.4346 40.7395C58.4281 40.0328 58.4153 39.3329 58.3959 38.6398C58.3809 37.6265 58.3794 36.6194 58.3915 35.6187C58.4031 34.6046 58.4481 33.5895 58.5264 32.5735C58.5737 31.8786 58.5879 31.1912 58.5689 30.5115C58.5628 29.818 58.5832 29.1172 58.6301 28.4089C58.7088 27.4062 58.821 26.4092 58.9667 25.418C59.1257 24.4263 59.3518 23.4461 59.6448 22.4773C59.7543 22.1007 59.8911 21.7433 60.055 21.4051C60.2186 21.0536 60.3957 20.7084 60.5863 20.3694C60.8146 19.9494 61.1058 19.6276 61.4597 19.404C61.8265 19.1667 62.2283 18.9884 62.6652 18.8692C62.9961 18.7797 63.3212 18.717 63.6403 18.6811C63.9724 18.6316 64.3117 18.6018 64.6582 18.5919ZM78.2748 28.0652C78.2926 28.7049 78.3303 29.3375 78.3878 29.9627C78.4453 30.588 78.4963 31.2201 78.5409 31.8591C78.5457 32.0324 78.5826 32.1581 78.6514 32.2361C78.7203 32.3142 78.8551 32.3637 79.0557 32.3846C79.216 32.3933 79.3764 32.402 79.5367 32.4108C79.6966 32.4062 79.8565 32.4016 80.0165 32.397C80.4963 32.3832 80.9688 32.3497 81.4342 32.2963C81.9125 32.2292 82.391 32.1688 82.8697 32.1151C83.0559 32.0964 83.202 32.0722 83.3078 32.0425C83.4133 31.9994 83.4918 31.9438 83.5433 31.8756C83.5947 31.8075 83.6254 31.7132 83.6354 31.5929C83.6454 31.4725 83.6542 31.3122 83.662 31.1119C83.6579 30.9653 83.6538 30.8187 83.6497 30.6721C83.6585 30.5118 83.6609 30.3583 83.6568 30.2117C83.6322 29.332 83.5745 28.46 83.4837 27.5956C83.4061 26.7308 83.3218 25.8595 83.2305 24.9818C83.1798 24.5964 83.1158 24.2181 83.0388 23.8468C82.975 23.4751 82.8911 23.0974 82.787 22.7136C82.6681 22.2768 82.4901 21.8751 82.2531 21.5084C82.0294 21.1413 81.7663 20.7954 81.4638 20.4706C81.2709 20.2494 81.0602 20.1087 80.8318 20.0485C80.603 19.9751 80.362 19.942 80.1087 19.9492C80.0021 19.9523 79.8957 19.962 79.7894 19.9784C79.6828 19.9815 79.5764 19.9912 79.4701 20.0076C79.1643 20.043 78.9611 20.1689 78.8604 20.3852C78.7594 20.5882 78.6652 20.7977 78.5779 21.0136C78.1808 22.0788 77.9987 23.1978 78.0314 24.3707C78.0337 24.4506 78.0359 24.5306 78.0381 24.6106C78.0537 24.6901 78.0626 24.7699 78.0648 24.8499C78.092 25.3427 78.1191 25.8354 78.1462 26.3282C78.1862 26.8072 78.2267 27.2996 78.2675 27.8053L78.2748 28.0652ZM73.1748 32.4333C73.0854 31.142 72.9963 29.864 72.9076 28.5994C72.8322 27.3344 72.7633 26.0625 72.7009 24.7837C72.6994 24.7304 72.6913 24.6773 72.6764 24.6244C72.675 24.5711 72.6735 24.5177 72.672 24.4644C72.6641 23.7044 72.7234 22.9623 72.8498 22.2384C72.9897 21.5141 73.2098 20.8008 73.5103 20.0986C73.9344 19.046 74.6916 18.4574 75.7819 18.3327C76.2735 18.2652 76.759 18.218 77.2385 18.1909C77.7309 18.1501 78.2236 18.1226 78.7167 18.1084C79.3565 18.0901 79.9968 18.0917 80.6376 18.1133C81.0915 18.127 81.5014 18.2353 81.8672 18.4382C82.2326 18.6278 82.5668 18.8916 82.8697 19.2298C83.3244 19.7503 83.7134 20.306 84.0367 20.897C84.3597 21.4746 84.5841 22.1084 84.7101 22.7984C84.9295 23.9659 85.1018 25.1215 85.2272 26.265C85.3655 27.3949 85.451 28.5462 85.4838 29.7191C85.495 30.1189 85.4995 30.519 85.4973 30.9192C85.4948 31.3061 85.4858 31.6998 85.4703 32.1004C85.4537 32.4611 85.4371 32.8217 85.4205 33.1823C85.4169 33.5292 85.4201 33.8826 85.4301 34.2425C85.4421 34.669 85.4671 35.0884 85.5053 35.5008C85.5565 35.8995 85.6213 36.3112 85.6999 36.7358C85.7552 37.2811 85.7965 37.8068 85.824 38.3129C85.8652 38.8319 85.9056 39.3243 85.9453 39.79C85.9854 40.269 86.038 40.721 86.1033 41.146C86.1685 41.571 86.2593 41.9552 86.3756 42.2987C86.4052 42.4045 86.4206 42.4775 86.4217 42.5174C86.4292 42.784 86.2954 43.0079 86.0203 43.1892C85.85 43.3008 85.6849 43.3589 85.525 43.3635C85.3384 43.3689 85.1503 43.3209 84.9608 43.2196C84.8112 43.1172 84.6944 42.9939 84.6103 42.8495C84.5262 42.7052 84.4683 42.5402 84.4364 42.3543C84.3889 42.0889 84.3347 41.817 84.2735 41.5387C84.2124 41.2603 84.1779 40.9812 84.1701 40.7013C84.1363 39.9686 84.0845 39.3098 84.0148 38.7249C83.9584 38.1396 83.8969 37.6078 83.8302 37.1296C83.7764 36.6376 83.7238 36.1856 83.6722 35.7735C83.6203 35.3482 83.5886 34.9289 83.577 34.5157L83.572 34.3358C83.5646 34.0693 83.4342 33.9396 83.181 33.9469L83.0411 33.9509C82.5757 34.0043 82.1039 34.0645 81.6256 34.1316C81.1606 34.1983 80.6948 34.2383 80.2284 34.2517C79.8952 34.2613 79.5614 34.2508 79.2271 34.2204L79.1271 34.2233C78.8739 34.2305 78.7516 34.3875 78.7601 34.694C78.7887 35.2401 78.8107 35.7863 78.826 36.3328C78.8409 36.8659 78.8561 37.4124 78.8718 37.9721L78.9275 42.1123C78.9405 42.5787 78.8565 42.9146 78.6755 43.1199C78.5079 43.3248 78.1911 43.4473 77.7254 43.4873C77.1401 43.5441 76.5609 43.5807 75.9878 43.5972C75.8279 43.6018 75.6611 43.5999 75.4875 43.5915C75.3275 43.5961 75.1676 43.6007 75.0077 43.6053C74.5008 43.6065 74.1378 43.5036 73.9186 43.2964C73.6998 43.1026 73.5764 42.746 73.5486 42.2266C73.5233 41.8005 73.5049 41.3808 73.4934 40.9677C73.4818 40.5545 73.4701 40.1347 73.4582 39.7082L73.412 35.9079C73.3956 35.3215 73.3661 34.7421 73.3234 34.1697C73.2807 33.5974 73.2312 33.0186 73.1748 32.4333ZM94.2065 43.1344C93.9266 43.1424 93.6464 43.1371 93.3657 43.1185C93.0988 43.1128 92.8247 43.0873 92.5433 43.0421C92.2349 42.9842 92.0118 42.8772 91.8741 42.7211C91.75 42.5779 91.67 42.3401 91.634 42.0077C91.4705 40.4518 91.3271 38.9019 91.204 37.3581C91.0945 35.8273 91.0178 34.2755 90.9738 32.7028L90.9508 31.1628C90.9391 29.7893 90.9142 28.4228 90.8762 27.0633C90.8512 25.6901 90.8524 24.3028 90.8799 22.9015C90.8939 22.4476 90.9083 22.007 90.923 21.5797C90.9507 21.1387 90.9862 20.7375 91.0294 20.3762L91.0272 20.2962C91.0224 20.1229 90.9788 19.9974 90.8966 19.9198C90.8278 19.8417 90.6997 19.792 90.5123 19.7707C90.1647 19.7407 89.8243 19.7305 89.4911 19.74C89.3711 19.7435 89.2445 19.7471 89.1112 19.7509C88.9913 19.7544 88.8715 19.7645 88.7519 19.7812C88.6316 19.7714 88.5115 19.7681 88.3915 19.7716C88.2716 19.775 88.1579 19.7649 88.0505 19.7413C87.8491 19.6938 87.6864 19.5984 87.5624 19.4552C87.4383 19.3121 87.3735 19.1405 87.3679 18.9406L87.3662 18.8806C87.3562 18.5208 87.5351 18.2422 87.9031 18.0449C88.0745 17.9733 88.2535 17.9348 88.4401 17.9294L88.6805 17.9425C90.0537 17.9165 91.4068 17.891 92.74 17.8661C94.0861 17.8274 95.4455 17.7884 96.8183 17.749L98.1777 17.71C98.4176 17.7031 98.6851 17.7288 98.9802 17.787C99.2086 17.8472 99.3851 17.9555 99.5095 18.112C99.6469 18.2547 99.7183 18.4261 99.7239 18.626L99.7079 18.7665C99.6872 18.9806 99.5989 19.1632 99.4431 19.3144C99.2868 19.4522 99.0823 19.5315 98.8295 19.5521L97.0702 19.6026C96.9103 19.6071 96.7838 19.6174 96.6909 19.6334C96.6109 19.6357 96.5515 19.6575 96.5127 19.6986C96.4738 19.7397 96.4423 19.8073 96.4183 19.9014C96.4072 19.9817 96.3972 20.1021 96.3884 20.2624C96.2756 21.4794 96.2164 22.7016 96.2107 23.929C96.218 25.1426 96.2385 26.3559 96.2724 27.5687L96.3641 30.8474C96.3638 31.3143 96.3637 31.7878 96.3638 32.268C96.3768 32.7345 96.3898 33.201 96.4029 33.6675C96.4204 34.2939 96.4446 34.9201 96.4754 35.5462C96.5059 36.1589 96.5565 36.7777 96.6273 37.4026C96.6989 38.0541 96.7436 38.6998 96.7615 39.3395C96.7797 39.9926 96.8513 40.6442 96.9762 41.2942C96.9906 41.3338 96.9984 41.3736 96.9995 41.4135C97.001 41.4669 97.0023 41.5135 97.0034 41.5535L96.9941 41.9339C96.9619 42.215 96.8748 42.4375 96.7326 42.6017C96.6038 42.7655 96.4 42.8713 96.1213 42.9194C95.8029 42.9819 95.4841 43.031 95.165 43.0669C94.8459 43.1027 94.5264 43.1252 94.2065 43.1344ZM108.761 28.2507C108.508 28.258 108.35 28.3426 108.288 28.5044C108.226 28.6529 108.2 28.9338 108.212 29.347C108.225 30.3203 108.245 31.2668 108.271 32.1864C108.296 33.0927 108.318 33.8658 108.336 34.5055C108.329 35.1993 108.324 35.9798 108.321 36.8469C108.332 37.7269 108.338 38.6272 108.337 39.5476L108.341 40.4078C108.348 40.661 108.465 40.7844 108.691 40.7779L108.851 40.7533C108.956 40.7236 109.062 40.6939 109.168 40.6642C109.274 40.6478 109.381 40.6247 109.486 40.595C110.001 40.3802 110.439 40.0941 110.803 39.7369C111.167 39.393 111.434 38.9385 111.605 38.3733C112.032 36.9472 112.258 35.4801 112.282 33.9721C112.28 33.8788 112.277 33.7788 112.274 33.6722C112.284 33.5519 112.287 33.4251 112.283 33.2918C112.282 33.2251 112.28 33.1585 112.278 33.0919C112.276 33.0252 112.267 32.9588 112.252 32.8925C112.22 32.7067 112.18 32.4411 112.13 32.0957C112.093 31.7366 112.036 31.3647 111.959 30.9801C111.846 30.3031 111.604 29.7365 111.231 29.2803C110.871 28.8238 110.329 28.5192 109.605 28.3666C109.578 28.354 109.544 28.3417 109.504 28.3295C109.463 28.3173 109.423 28.3118 109.383 28.3129C109.249 28.2901 109.129 28.2735 109.022 28.2633C108.928 28.2526 108.841 28.2484 108.761 28.2507ZM103.919 17.5052L104.059 17.5012C104.486 17.5023 104.913 17.5034 105.34 17.5045C105.766 17.4922 106.193 17.4933 106.62 17.5077C106.727 17.518 106.828 17.5285 106.921 17.5391C107.028 17.5361 107.135 17.5463 107.242 17.5699C107.779 17.6879 108.055 18.0068 108.069 18.5266L108.04 20.3282C108.032 20.5418 108.032 20.7553 108.037 20.9685C108.043 21.1818 108.049 21.395 108.055 21.6083C108.069 22.0881 108.082 22.5679 108.096 23.0477C108.122 23.5271 108.142 24.0001 108.155 24.4666L108.199 26.046C108.205 26.2459 108.242 26.3649 108.309 26.4029C108.377 26.441 108.544 26.4562 108.811 26.4486C109.544 26.4409 110.194 26.5489 110.761 26.7728C111.327 26.9833 111.808 27.2696 112.205 27.6317C112.616 27.9934 112.941 28.4109 113.181 28.8842C113.434 29.3438 113.614 29.8189 113.721 30.3093C113.798 30.6939 113.869 31.0721 113.932 31.4437C113.996 31.8154 114.045 32.1341 114.079 32.3999C114.116 32.7457 114.137 33.0252 114.143 33.2384C114.148 33.4383 114.153 33.5916 114.156 33.6982L114.161 33.8782C114.127 35.5465 113.873 37.1944 113.398 38.8221C113.07 39.952 112.521 40.8214 111.751 41.4304C110.994 42.039 110.051 42.4262 108.922 42.592L108.123 42.655L106.524 42.7009L105.045 42.7633L104.285 42.7651C103.724 42.7412 103.334 42.619 103.114 42.3985C102.908 42.191 102.791 41.8076 102.762 41.2482L102.753 40.9283C102.759 40.1945 102.752 39.4611 102.732 38.728C102.724 37.9946 102.724 37.261 102.73 36.5272C102.738 35.86 102.733 35.1999 102.715 34.5468C102.709 33.88 102.697 33.2067 102.678 32.527L102.598 29.6681C102.575 28.8284 102.551 27.9554 102.525 27.0491C102.5 26.1295 102.474 25.2099 102.448 24.2902C102.436 23.3702 102.424 22.4568 102.412 21.5501C102.399 20.6301 102.401 19.743 102.417 18.8889C102.41 18.1421 102.771 17.6982 103.5 17.5573C103.567 17.542 103.633 17.5334 103.7 17.5315C103.779 17.5159 103.852 17.5071 103.919 17.5052ZM122.179 31.4271L122.518 31.3974C122.678 31.3795 122.783 31.3364 122.835 31.2683C122.886 31.1868 122.909 31.0727 122.905 30.9261L122.849 28.9069L122.775 26.9882C122.769 26.7483 122.762 26.5151 122.756 26.2885C122.749 26.0486 122.749 25.8085 122.756 25.5682C122.758 24.6878 122.76 23.814 122.762 22.9469C122.764 22.0665 122.767 21.1861 122.769 20.3057L122.76 19.2655C122.752 18.9856 122.621 18.8493 122.368 18.8566L122.308 18.8583C122.028 18.8796 121.744 18.9545 121.454 19.0829C121.177 19.1975 120.908 19.3586 120.647 19.5662C120.399 19.7601 120.178 19.9798 119.985 20.2255C119.792 20.4711 119.646 20.7287 119.547 20.9984C119.375 21.5235 119.229 22.0479 119.11 22.5715C118.992 23.0951 118.92 23.6374 118.896 24.1984C118.88 24.5856 118.864 24.9796 118.849 25.3802C118.847 25.7804 118.844 26.174 118.842 26.5609C118.843 26.6142 118.846 26.7275 118.851 26.9007C118.869 27.0603 118.888 27.2465 118.907 27.4594C118.94 27.6719 118.972 27.8843 119.005 28.0968C119.037 28.296 119.068 28.4552 119.098 28.5743C119.145 28.8264 119.205 29.0715 119.279 29.3095C119.365 29.5471 119.472 29.7775 119.598 30.0006C119.851 30.4602 120.215 30.8166 120.689 31.0698C121.162 31.3229 121.659 31.4421 122.179 31.4271ZM127.161 42.1686C126.641 42.1836 126.121 42.1852 125.601 42.1734C125.08 42.1617 124.56 42.1499 124.039 42.1382C123.651 42.1093 123.375 42.0172 123.211 41.8618C123.047 41.7198 122.96 41.4689 122.95 41.109L122.921 35.0674L122.933 34.7869C122.932 34.7336 122.917 34.6806 122.889 34.6281C122.874 34.5752 122.826 34.5299 122.745 34.4922C122.693 34.547 122.648 34.6017 122.609 34.6561C122.571 34.6973 122.525 34.7386 122.473 34.7801C122.163 35.1358 121.874 35.5509 121.607 36.0254C121.354 36.4996 121.101 36.987 120.848 37.4878C120.609 38.0016 120.376 38.5018 120.15 38.9885C119.937 39.4881 119.716 39.9413 119.487 40.348C119.309 40.6599 119.131 40.9585 118.952 41.2437C118.774 41.5423 118.561 41.8085 118.314 42.0424C118.133 42.2343 117.915 42.3339 117.662 42.3412C117.449 42.3473 117.254 42.2796 117.076 42.1379C116.885 41.9567 116.785 41.7461 116.779 41.5062C116.774 41.3329 116.816 41.1583 116.904 40.9824C116.954 40.8742 117.005 40.7794 117.056 40.6979C117.121 40.616 117.185 40.5275 117.249 40.4323C117.339 40.3096 117.422 40.1872 117.499 40.065C117.589 39.9557 117.666 39.8334 117.728 39.6982C117.842 39.4815 117.988 39.1906 118.164 38.8254C118.341 38.4735 118.537 38.081 118.752 37.648C118.967 37.2283 119.194 36.7883 119.435 36.3279C119.676 35.8675 119.904 35.4407 120.119 35.0477C120.348 34.641 120.565 34.2813 120.77 33.9686C120.974 33.656 121.148 33.4242 121.29 33.2734C121.183 33.2365 121.102 33.2054 121.048 33.1803C120.994 33.1552 120.94 33.1367 120.886 33.1249C119.865 32.8475 119.064 32.3769 118.486 31.7132C117.92 31.0358 117.543 30.1996 117.355 29.2046C117.278 28.82 117.207 28.4485 117.144 28.0902C117.093 27.7182 117.051 27.3993 117.017 27.1335L116.952 26.235C116.939 25.3016 116.993 24.373 117.114 23.4492C117.235 22.5253 117.436 21.5992 117.717 20.6707C118.047 19.6075 118.584 18.7784 119.328 18.1835C120.072 17.5886 120.981 17.209 122.057 17.0447C122.429 16.9807 122.801 16.9367 123.174 16.9126C123.547 16.8886 123.926 16.871 124.313 16.8599C124.739 16.8477 125.173 16.8419 125.613 16.8426C126.053 16.8433 126.487 16.8509 126.914 16.8653C127.822 16.8793 128.288 17.3394 128.313 18.2458L128.336 19.0454C128.346 19.4053 128.349 19.7654 128.346 20.1256C128.356 20.4855 128.359 20.8455 128.356 21.2058C128.356 22.1795 128.357 23.1532 128.358 24.1269C128.358 25.0873 128.372 26.0606 128.399 27.0469L128.48 29.2255C128.523 30.7449 128.546 32.2849 128.549 33.8454C128.553 35.4059 128.573 37.0861 128.61 38.8857C128.59 39.1397 128.571 39.3871 128.551 39.6277C128.544 39.8814 128.545 40.1348 128.552 40.388L128.562 40.7479C128.588 41.6675 128.121 42.1411 127.161 42.1686Z" fill="white"/>
</svg>
