<svg width="240" height="50" viewBox="0 0 240 50" fill="none" xmlns="http://www.w3.org/2000/svg">
<path d="M4.87491 35.1015L1.75665 30.2089L0.0299424 10.6385C1.53454 7.85243 6.78807 2.11722 15.7654 1.46487C26.987 0.649435 32.1777 -0.175394 45.0738 0.028464C57.9699 0.232322 189.682 0.437941 194.219 0.437941C198.757 0.437941 221.232 -0.173467 227.211 2.88424C231.994 5.33041 236.385 10.0192 237.983 12.0579C237.506 12.4655 236.841 13.7294 237.992 15.5233C239.144 17.3173 239.756 20.0762 239.919 21.2314C239.284 21.9109 238.015 23.4331 238.016 24.0854C238.019 24.9008 233.721 25.1047 235.873 26.124C237.595 26.9394 238.031 29.3178 238.034 30.405C236.365 31.4243 232.264 33.5037 229.208 33.6667C226.151 33.8298 223.479 34.5501 222.524 34.8899L222.529 36.5209C223.963 36.7927 226.544 37.4177 225.398 37.7439C223.966 38.1516 222.531 37.1323 221.338 37.7439C220.146 38.3555 218.478 39.5786 219.912 39.9864C220.353 40.3621 220.784 40.5494 221.171 40.6223C221.644 40.5247 222.157 40.4444 222.54 40.3941C222.295 40.5615 221.791 40.7393 221.171 40.6223C220.367 40.7882 219.674 41.0042 219.915 41.2095C220.298 41.5357 221.828 42.0249 222.545 42.2288L223.743 43.452H219.922C217.82 43.452 218.253 44.6751 218.733 45.2867C218.176 45.4226 216.728 45.6129 215.39 45.2867C213.717 44.879 214.435 45.4905 211.57 45.6944C209.278 45.8575 196.814 45.7623 192.914 45.6944C193.231 45.4226 193.437 44.879 191.717 44.879C189.568 44.879 188.307 44.879 185.681 45.2867C183.056 45.6944 47.5881 44.8772 39.4686 44.8772C32.9731 44.8772 41.2273 43.8673 40.0333 43.8673C36.2939 44.5468 23.3411 45.8651 17.8003 45.702C10.8743 45.4982 4.89843 43.4596 4.89785 43.2557C4.89739 43.0926 3.62058 41.9646 2.98224 41.421C3.62001 41.7608 4.89498 42.2364 4.89269 41.421C4.89039 40.6056 3.61007 38.2272 2.97019 37.14L4.87491 35.1015Z" fill="#FDA3C4"/>
<path d="M9.44493 46.7213C8.68075 46.7213 8.6512 47.5367 8.73195 47.9445L7.18028 48.1483C6.42597 48.8278 5.06052 50.1461 5.6332 49.983C6.20588 49.82 7.30313 49.3715 7.78017 49.1676C8.09781 48.8958 10.2615 48.3522 16.3749 48.3522C24.0167 48.3522 23.2992 47.9445 24.0156 47.9445C24.732 47.9445 10.4002 46.7213 9.44493 46.7213Z" fill="#FDA3C4"/>
<path d="M42.3139 32.3116C42.1739 32.3112 42.034 32.3061 41.894 32.2963C41.7633 32.2959 41.628 32.2909 41.488 32.2811C41.2361 32.2617 41.0543 32.1865 40.9427 32.0555C40.8311 31.9338 40.7711 31.7377 40.7626 31.467C40.719 30.4868 40.6799 29.5487 40.6454 28.6526C40.6202 27.7659 40.6091 26.8278 40.6122 25.8385L40.6464 23.8646L40.6627 23.1366C40.6646 22.5113 40.6526 21.8906 40.6265 21.2745C40.6005 20.6491 40.5884 20.0237 40.5904 19.3984L40.5922 18.8244C40.6122 18.3951 40.6182 17.9658 40.6102 17.5365C40.6022 17.1071 40.6222 16.6778 40.6703 16.2486L40.6705 16.1646C40.6711 15.9873 40.5594 15.8936 40.3354 15.8836L40.0694 15.8828C39.6587 15.8816 39.248 15.8991 38.8372 15.9352C38.4358 15.962 38.0298 15.9748 37.6191 15.9736L36.4151 15.984C36.1911 15.9834 36.0741 16.0903 36.0641 16.305C36.0638 16.3796 36.0589 16.4496 36.0494 16.5149C36.0399 16.5709 36.035 16.6316 36.0348 16.6969L36.0125 19.3568C36.0113 19.7302 36.0102 20.0988 36.009 20.4628C36.0079 20.8268 36.0161 21.1955 36.0336 21.5689C36.0421 21.8209 36.0507 22.073 36.0592 22.325C36.0677 22.577 36.0716 22.829 36.0708 23.081L36.0549 23.697C36.0354 23.9489 36.0253 24.2009 36.0245 24.4529C36.0238 24.6956 36.023 24.9429 36.0222 25.1949C36.0212 25.5309 36.0201 25.8576 36.0191 26.1749C36.0275 26.4829 36.0359 26.7863 36.0443 27.085C36.0527 27.3837 36.0564 27.6917 36.0554 28.009C36.0638 28.317 36.0674 28.639 36.0664 28.975L36.0654 29.297C36.0644 29.5957 36.0775 29.8991 36.1045 30.2072C36.1409 30.5153 36.1586 30.828 36.1576 31.1453L36.1572 31.2573C36.1469 31.5653 36.0856 31.7844 35.9731 31.9148C35.8701 32.0451 35.6644 32.1379 35.3563 32.193C35.1228 32.2296 34.8894 32.2522 34.6561 32.2609C34.4227 32.2789 34.1846 32.2875 33.942 32.2868L33.242 32.2707C32.9434 32.2511 32.7336 32.1805 32.6127 32.0588C32.5011 31.9372 32.4364 31.727 32.4187 31.4282C32.3664 30.2334 32.3233 29.0853 32.2894 27.9838C32.2556 26.8824 32.2405 25.7344 32.2442 24.5397L32.2649 17.9317C32.2661 17.5584 32.2719 17.1897 32.2824 16.8258C32.2929 16.4525 32.3221 16.0792 32.3699 15.706C32.3891 15.5381 32.4176 15.3982 32.4552 15.2863C32.4929 15.1744 32.5445 15.0859 32.6101 15.0207C32.685 14.9463 32.7785 14.8906 32.8906 14.8536C33.012 14.8166 33.1568 14.789 33.3249 14.7709C33.633 14.7251 33.9411 14.698 34.2491 14.6896C34.5571 14.6812 34.8698 14.6774 35.1872 14.6784L36.5871 14.6965C36.7738 14.6971 36.9558 14.6976 37.1331 14.6981C37.3198 14.6987 37.5065 14.6899 37.6932 14.6718C38.0479 14.6542 38.4026 14.6366 38.7574 14.619C39.1214 14.6014 39.4808 14.5931 39.8354 14.5941L40.0874 14.5949C40.6941 14.606 41.2913 14.6265 41.8793 14.6562C42.4765 14.6766 43.0738 14.7064 43.671 14.7455C43.9603 14.765 44.1654 14.8356 44.2863 14.9573C44.4166 15.0697 44.4814 15.2566 44.4806 15.5179L44.466 15.6999C44.4178 16.1944 44.3836 16.6843 44.3634 17.1696C44.3525 17.6549 44.3463 18.1449 44.3448 18.6395C44.3432 19.1342 44.3464 19.6242 44.3542 20.1096C44.362 20.5949 44.3745 21.085 44.3916 21.5797L44.4028 22.4617C44.4012 22.9844 44.3902 23.5023 44.3699 24.0156C44.359 24.5289 44.3527 25.0422 44.3511 25.5556L44.3749 26.8856C44.3832 27.2403 44.3914 27.581 44.3997 27.9077C44.4081 28.2344 44.4117 28.5564 44.4107 28.8738C44.419 29.2005 44.4274 29.5225 44.4357 29.8398C44.4533 30.1666 44.4756 30.5073 44.5025 30.862L44.5007 31.422C44.4907 31.6553 44.4341 31.8278 44.3311 31.9395C44.2281 32.0606 44.0645 32.1441 43.8403 32.1901C43.3361 32.2726 42.8273 32.3131 42.3139 32.3116ZM50.6548 24.7062C50.7108 24.7064 50.7715 24.7019 50.8368 24.6928C50.9115 24.6837 50.9956 24.6699 51.089 24.6515C51.117 24.6516 51.145 24.647 51.173 24.6378C51.201 24.6285 51.2244 24.6193 51.2431 24.61C51.7475 24.4901 52.1215 24.2673 52.3652 23.9413C52.6182 23.6154 52.7781 23.2145 52.845 22.7387C52.8925 22.4682 52.926 22.2116 52.9454 21.969C52.9742 21.7171 52.9981 21.5258 53.0172 21.3952C53.0267 21.3486 53.0315 21.3019 53.0316 21.2553C53.0318 21.2086 53.0319 21.1619 53.0321 21.1153C53.0323 21.0219 53.0279 20.9379 53.0188 20.8632C53.0191 20.7792 53.0193 20.7046 53.0195 20.6392C52.9762 19.5844 52.7927 18.5619 52.4692 17.5716C52.3397 17.1792 52.1447 16.866 51.8841 16.6319C51.6235 16.3884 51.3115 16.1962 50.9479 16.0551C50.8733 16.0362 50.7987 16.022 50.724 16.0124C50.6494 15.9935 50.5748 15.9746 50.5002 15.9557L50.3883 15.9414C50.2296 15.9409 50.15 16.0294 50.1494 16.2067L50.1615 16.8087C50.1782 17.4528 50.1902 18.0828 50.1976 18.6989C50.2144 19.3056 50.2313 19.8516 50.2485 20.337C50.2471 20.785 50.2454 21.331 50.2433 21.975C50.2414 22.6097 50.244 23.2677 50.2512 23.949C50.2503 24.2384 50.273 24.4391 50.3193 24.5512C50.3656 24.6541 50.4775 24.7057 50.6548 24.7062ZM47.4529 32.3128C47.4063 32.3127 47.355 32.3078 47.299 32.2983C47.2523 32.2982 47.2057 32.2934 47.159 32.2839C46.646 32.1984 46.3856 31.8943 46.3779 31.3716C46.3518 30.7742 46.335 30.1535 46.3277 29.5094C46.3204 28.8748 46.313 28.2354 46.3057 27.5914C46.3077 26.9474 46.3098 26.308 46.3117 25.6734C46.3138 25.0294 46.3157 24.4134 46.3175 23.8254L46.3238 21.8234C46.3253 21.3474 46.3221 20.8807 46.3142 20.4234C46.3157 19.9567 46.3078 19.49 46.2906 19.0233C46.2735 18.5099 46.2611 17.9965 46.2534 17.4832C46.255 16.9698 46.2473 16.4565 46.2302 15.9431L46.2309 15.7191C46.2415 15.3271 46.317 15.0567 46.4575 14.9078C46.6073 14.7495 46.8783 14.657 47.2703 14.6302L47.8024 14.6177L48.8383 14.6348L49.9583 14.6381L50.5182 14.6678C51.3113 14.7635 51.9778 15.0175 52.5179 15.4297C53.0672 15.842 53.4667 16.4405 53.7162 17.2253C54.0767 18.3557 54.2831 19.5043 54.3355 20.6711L54.3351 20.7971C54.3348 20.8718 54.3345 20.9838 54.334 21.1331C54.3336 21.2731 54.3236 21.4644 54.3042 21.707C54.285 21.8937 54.2563 22.1176 54.2181 22.3788C54.1799 22.64 54.1371 22.9059 54.0896 23.1764C54.0232 23.5216 53.9055 23.8619 53.7364 24.1974C53.5767 24.5236 53.3565 24.8169 53.0756 25.0774C52.8042 25.3379 52.4722 25.5516 52.0796 25.7185C51.6871 25.876 51.2342 25.9586 50.7208 25.9664C50.5342 25.9659 50.4175 25.9795 50.3707 26.0074C50.324 26.0353 50.3004 26.1192 50.2999 26.2592L50.2965 27.3652C50.2954 27.6919 50.2897 28.0232 50.2793 28.3591C50.2783 28.6951 50.2772 29.0311 50.2762 29.3671C50.2757 29.5165 50.2752 29.6658 50.2748 29.8151C50.2743 29.9645 50.2785 30.1138 50.2874 30.2632L50.3394 31.5233C50.3383 31.8873 50.1509 32.1155 49.7773 32.2077C49.7026 32.2261 49.6279 32.2352 49.5532 32.235C49.4878 32.2442 49.4178 32.2533 49.3431 32.2624C49.0444 32.2802 48.7457 32.2886 48.447 32.2877C48.1483 32.2962 47.8496 32.3046 47.5509 32.3131L47.4529 32.3128ZM61.334 30.9679C61.5393 30.9685 61.7217 30.8291 61.8813 30.5495C61.947 30.4284 61.9987 30.3072 62.0364 30.186C62.0834 30.0741 62.1305 29.9529 62.1776 29.8224C62.5168 28.7781 62.7675 27.7241 62.9295 26.6606C63.1008 25.5971 63.2069 24.5101 63.2477 23.3995L63.248 23.3015C63.2516 22.1349 63.1478 21.0146 62.9365 19.9406C62.7346 18.8573 62.458 17.7785 62.1067 16.7041C62.0881 16.6574 62.0696 16.6154 62.0511 16.578C62.0325 16.5406 62.014 16.4985 61.9954 16.4518C61.8376 16.1993 61.628 16.0727 61.3666 16.0719C61.264 16.0716 61.1565 16.0993 61.0444 16.155C60.9416 16.2014 60.8527 16.2758 60.7777 16.3782C60.6183 16.5924 60.4963 16.816 60.4116 17.0491C60.3268 17.2822 60.2514 17.52 60.1853 17.7625C59.9868 18.5552 59.849 19.3528 59.7718 20.1552C59.6947 20.9483 59.6315 21.7555 59.5822 22.5767C59.563 22.7633 59.5531 22.9499 59.5525 23.1366C59.5519 23.3233 59.5513 23.5099 59.5507 23.6966C59.5474 24.7699 59.6188 25.8015 59.765 26.7912C59.9113 27.781 60.1229 28.7663 60.3998 29.7471C60.4459 29.9059 60.4968 30.0554 60.5524 30.1956C60.6079 30.3451 60.6868 30.4853 60.7891 30.6163C60.9657 30.8502 61.1473 30.9674 61.334 30.9679ZM58.8517 32.3186C58.637 32.3179 58.4459 32.266 58.2782 32.1629C58.1198 32.0691 57.9662 31.9519 57.8173 31.8115C57.5754 31.5774 57.3848 31.3202 57.2457 31.0398C57.1159 30.7594 57.0048 30.4651 56.9125 30.1568C56.6078 29.0919 56.3778 28.0272 56.2225 26.9627C56.0765 25.889 56.0053 24.7781 56.0089 23.6301C56.0103 23.1821 56.0258 22.7248 56.0552 22.2582C56.1045 21.4277 56.1771 20.6113 56.2729 19.8089C56.3688 18.9971 56.516 18.1902 56.7145 17.3882C56.9318 16.5581 57.3074 15.8359 57.8413 15.2215C57.9537 15.0818 58.0754 14.9702 58.2063 14.8866C58.3373 14.803 58.4961 14.7521 58.6828 14.734C58.9349 14.7161 59.1869 14.6981 59.439 14.6802C59.691 14.6623 59.9477 14.6537 60.2091 14.6545C60.5077 14.6554 60.8017 14.6749 61.0909 14.7131C61.3801 14.742 61.6693 14.7988 61.9584 14.8837C62.322 14.9874 62.6155 15.161 62.8387 15.4043C63.062 15.6476 63.229 15.9468 63.3399 16.3018C63.5987 17.1239 63.8248 17.9506 64.0182 18.7818C64.2209 19.6037 64.3629 20.4488 64.4442 21.3171C64.4713 21.5972 64.4938 21.8772 64.5116 22.1573C64.5387 22.428 64.5519 22.6987 64.551 22.9694L64.5501 23.2774C64.4996 24.4999 64.3838 25.6896 64.2029 26.8464C64.0313 27.9939 63.7617 29.1271 63.3942 30.246C63.3471 30.4045 63.2953 30.5537 63.2388 30.6936C63.1824 30.8427 63.1166 30.9872 63.0415 31.127C62.7314 31.7794 62.2076 32.1558 61.4699 32.2563C61.2365 32.293 61.0031 32.3156 60.7697 32.3242C60.5457 32.3329 60.317 32.3369 60.0837 32.3362L58.8517 32.3186ZM71.0797 14.6587C71.3317 14.6595 71.5836 14.6742 71.8355 14.703C72.0875 14.7224 72.3347 14.7511 72.5773 14.7892C73.0438 14.8465 73.4119 15.025 73.6816 15.3244C73.9607 15.6239 74.1649 15.9885 74.2942 16.4182C74.4051 16.7732 74.4786 17.1328 74.5148 17.4969C74.5603 17.8517 74.5919 18.2111 74.6094 18.5752L74.8347 22.6219C74.8528 22.7993 74.8613 23.0746 74.8601 23.448C74.859 23.812 74.8579 24.1759 74.8567 24.5399C74.8558 24.8386 74.855 25.1046 74.8542 25.3379C74.8535 25.5619 74.8484 25.7066 74.8389 25.7719C74.7981 26.8825 74.7435 27.895 74.6753 28.8094C74.6165 29.7239 74.5437 30.6197 74.4569 31.4968C74.4187 31.7953 74.334 32.0051 74.203 32.126C74.0719 32.247 73.8524 32.3163 73.5443 32.3341C73.3016 32.352 73.0542 32.3653 72.8022 32.3739C72.5594 32.3918 72.3168 32.4005 72.0741 32.3997C71.9808 32.3995 71.8921 32.3992 71.8081 32.3989C71.7241 32.3987 71.6354 32.3938 71.5421 32.3842C71.2156 32.3552 70.9871 32.2845 70.8568 32.1721C70.7358 32.0691 70.6757 31.8776 70.6766 31.5976L70.6913 31.3736C70.73 30.9351 70.7687 30.5012 70.8074 30.072C70.8461 29.6428 70.8801 29.2042 70.9095 28.7563C70.9486 28.1964 70.983 27.6412 71.0127 27.0906C71.0425 26.5307 71.0722 25.9707 71.102 25.4108L71.1028 25.1588C71.1032 25.0095 71.0992 24.8228 71.0905 24.5988C71.0913 24.3655 71.0873 24.1321 71.0787 23.8988C71.0795 23.6561 71.0755 23.4274 71.0669 23.2127C71.0676 22.9887 71.0635 22.8114 71.0545 22.6807C71.0101 21.9712 70.9703 21.2664 70.9352 20.5663C70.9 19.8569 70.8603 19.1381 70.8159 18.4099C70.7979 18.2139 70.7751 18.0178 70.7478 17.8217C70.7297 17.6257 70.707 17.4296 70.6796 17.2335C70.6705 17.1588 70.6567 17.0888 70.6383 17.0234C70.6198 16.9487 70.6014 16.874 70.583 16.7993C70.5275 16.6404 70.4486 16.5002 70.3463 16.3785C70.2534 16.2476 70.1229 16.1679 69.955 16.1394L69.8571 16.1251C69.7077 16.1247 69.5816 16.1756 69.4786 16.278C69.3849 16.3804 69.2959 16.4968 69.2115 16.6272C68.9864 16.9812 68.8125 17.354 68.69 17.7456C68.5674 18.1373 68.4542 18.5336 68.3503 18.9346C68.1611 19.7368 68.0279 20.5344 67.9508 21.3275C67.8736 22.1206 67.8244 22.9231 67.8032 23.735C67.8028 23.8564 67.8025 23.9777 67.8021 24.099C67.8017 24.211 67.792 24.3277 67.773 24.449C67.7059 24.9901 67.6576 25.536 67.6278 26.0865C67.5981 26.6371 67.5777 27.1924 67.5666 27.7524C67.5556 28.303 67.5491 28.863 67.5474 29.4323C67.5456 30.0016 67.5391 30.5803 67.5279 31.1683C67.5276 31.2709 67.5226 31.3689 67.513 31.4622C67.5127 31.5649 67.503 31.6675 67.484 31.7701C67.4368 31.9567 67.357 32.0964 67.2447 32.1894C67.1417 32.2918 67.0109 32.3427 66.8522 32.3423L66.7682 32.342C66.3951 32.2942 66.2091 32.0557 66.2105 31.6264C66.2216 31.0571 66.2326 30.5204 66.2435 30.0165C66.2544 29.5218 66.2606 29.0318 66.2621 28.5465C66.2737 27.8372 66.2946 27.1326 66.3248 26.4327C66.355 25.7234 66.4085 25.0143 66.4854 24.3051C66.5336 23.82 66.5584 23.3394 66.5599 22.8634C66.5708 22.3781 66.6003 21.8881 66.6485 21.3936C66.7254 20.6938 66.8256 19.9988 66.9491 19.3085C67.0819 18.6182 67.2614 17.9374 67.4875 17.2661C67.5723 17.005 67.6757 16.758 67.7978 16.525C67.9199 16.2827 68.0513 16.0451 68.192 15.8122C68.3609 15.5233 68.5716 15.3046 68.8241 15.156C69.0859 14.9981 69.371 14.8823 69.6792 14.8086C69.9127 14.7533 70.1415 14.7166 70.3655 14.6986C70.599 14.6713 70.837 14.658 71.0797 14.6587ZM81.869 31.0288C82.0744 31.0294 82.2568 30.8899 82.4163 30.6104C82.4821 30.4892 82.5338 30.3681 82.5715 30.2468C82.6185 30.135 82.6655 30.0138 82.7126 29.8832C83.0519 28.8389 83.3025 27.785 83.4645 26.7215C83.6359 25.658 83.7419 24.5709 83.7827 23.4604L83.7831 23.3624C83.7867 22.1957 83.6829 21.0754 83.4716 20.0015C83.2696 18.9182 82.993 17.8394 82.6417 16.765C82.6232 16.7183 82.6047 16.6762 82.5861 16.6388C82.5676 16.6014 82.549 16.5594 82.5305 16.5126C82.3726 16.2602 82.163 16.1336 81.9017 16.1328C81.799 16.1325 81.6916 16.1602 81.5794 16.2158C81.4766 16.2622 81.3877 16.3366 81.3127 16.439C81.1534 16.6532 81.0314 16.8769 80.9466 17.11C80.8619 17.343 80.7865 17.5808 80.7204 17.8233C80.5219 18.616 80.3841 19.4136 80.3069 20.2161C80.2297 21.0092 80.1665 21.8163 80.1173 22.6375C80.0981 22.8241 80.0881 23.0108 80.0876 23.1974C80.087 23.3841 80.0864 23.5708 80.0858 23.7574C80.0824 24.8308 80.1539 25.8623 80.3001 26.8521C80.4463 27.8419 80.6579 28.8272 80.9348 29.808C80.981 29.9668 81.0319 30.1163 81.0874 30.2564C81.143 30.4059 81.2219 30.5462 81.3241 30.6771C81.5007 30.911 81.6824 31.0282 81.869 31.0288ZM79.3868 32.3794C79.1721 32.3788 78.9809 32.3269 78.8133 32.2237C78.6549 32.1299 78.5013 32.0128 78.3524 31.8723C78.1104 31.6383 77.9199 31.3811 77.7808 31.1006C77.651 30.8203 77.5399 30.5259 77.4475 30.2176C77.1429 29.1527 76.9129 28.0881 76.7575 27.0236C76.6116 25.9498 76.5404 24.8389 76.544 23.6909C76.5454 23.2429 76.5608 22.7857 76.5903 22.3191C76.6396 21.4886 76.7121 20.6721 76.808 19.8697C76.9038 19.058 77.051 18.2511 77.2496 17.449C77.4668 16.619 77.8424 15.8968 78.3763 15.2823C78.4888 15.1427 78.6105 15.031 78.7414 14.9474C78.8723 14.8638 79.0312 14.8129 79.2179 14.7948C79.4699 14.7769 79.722 14.759 79.974 14.7411C80.2261 14.7231 80.4828 14.7146 80.7441 14.7153C81.0428 14.7162 81.3367 14.7358 81.626 14.774C81.9152 14.8028 82.2044 14.8597 82.4934 14.9445C82.8571 15.0483 83.1506 15.2218 83.3738 15.4651C83.597 15.7085 83.7641 16.0076 83.875 16.3626C84.1337 17.1847 84.3598 18.0114 84.5532 18.8427C84.756 19.6646 84.898 20.5097 84.9793 21.3779C85.0064 21.658 85.0289 21.9381 85.0466 22.2181C85.0738 22.4889 85.0869 22.7596 85.0861 23.0302L85.0851 23.3382C85.0346 24.5608 84.9189 25.7504 84.738 26.9072C84.5664 28.0547 84.2968 29.1879 83.9293 30.3069C83.8821 30.4654 83.8303 30.6146 83.7739 30.7544C83.7174 30.9036 83.6516 31.048 83.5765 31.1878C83.2665 31.8402 82.7426 32.2167 82.005 32.3172C81.7715 32.3538 81.5381 32.3764 81.3048 32.3851C81.0807 32.3938 80.8521 32.3977 80.6187 32.3971L79.3868 32.3794ZM92.506 29.6463C92.5144 29.9356 92.5275 30.2343 92.5452 30.5424C92.563 30.7944 92.5716 31.0511 92.5707 31.3125L92.5694 31.7325C92.5491 32.2551 92.4175 32.5533 92.1746 32.6273C92.0438 32.6642 91.9084 32.6965 91.7683 32.7241C91.6376 32.7517 91.5022 32.7746 91.3621 32.7929C91.3154 32.8021 91.2641 32.7973 91.2081 32.7784C91.1615 32.7596 91.1149 32.7408 91.0683 32.722C90.9006 32.6375 90.808 32.3946 90.7906 31.9932L90.7156 29.109C90.1338 30.1152 89.5426 31.1308 88.9421 32.1557C88.7356 32.5098 88.4739 32.6397 88.1569 32.5454C88.073 32.5078 87.9891 32.4702 87.9052 32.4326C87.8213 32.4044 87.7374 32.3621 87.6536 32.3059C87.4487 32.156 87.2439 31.9967 87.0391 31.8281C86.8343 31.6595 86.6342 31.4909 86.4387 31.3223C86.085 31.0039 86.0163 30.5977 86.2325 30.1037L86.4298 29.6983C86.5519 29.456 86.6879 29.223 86.838 28.9995C87.1194 28.5523 87.3961 28.1098 87.6681 27.6719C87.9402 27.2341 88.1983 26.7822 88.4424 26.3162L88.8649 25.5055C88.987 25.2818 89.0996 25.0675 89.2029 24.8625L89.3579 24.5549C89.098 24.1061 88.8427 23.648 88.5922 23.1806C88.323 22.7038 88.0493 22.199 87.771 21.6662C87.4184 20.9931 87.0518 20.3387 86.6711 19.7029C86.2998 19.0578 85.9285 18.3987 85.5573 17.7256C85.3438 17.3423 85.2608 17.0387 85.3081 16.8149C85.3555 16.591 85.5429 16.3722 85.8702 16.1585L87.4411 15.2392C87.7029 15.1 87.913 15.0539 88.0715 15.1011C88.2394 15.1482 88.4022 15.3074 88.56 15.5785L88.769 15.9151C88.9732 16.2704 89.1774 16.621 89.3817 16.9669C89.5953 17.3036 89.7996 17.6449 89.9945 17.9908C90.0502 18.0843 90.1384 18.2385 90.259 18.4536C90.3704 18.6592 90.5003 18.9023 90.6487 19.1827L90.652 18.1467C90.6449 17.4187 90.6426 16.6813 90.6449 15.9347C90.6463 15.5054 90.6845 15.2068 90.7597 15.039C90.835 14.8619 90.9659 14.7643 91.1527 14.7462L92.0208 14.6928C92.1701 14.7025 92.2726 14.7635 92.3283 14.8757C92.3839 14.9878 92.4112 15.1979 92.4103 15.5059L92.409 15.8979C92.4171 16.2993 92.4205 16.696 92.4193 17.0879C92.4275 17.4706 92.4356 17.858 92.4437 18.25L92.4428 18.544L92.6259 18.1806C92.7293 17.9569 92.8044 17.7984 92.8514 17.7052C93.0392 17.3418 93.2317 16.983 93.4288 16.6289C93.6259 16.2655 93.8231 15.8974 94.0202 15.5247L94.2033 15.1752C94.3535 14.8957 94.4987 14.7328 94.6389 14.6865C94.7884 14.631 94.9796 14.6735 95.2125 14.8142L96.5815 15.7563C96.8702 15.9718 97.0328 16.1963 97.0694 16.4297C97.106 16.6632 97.021 16.9802 96.8144 17.381C96.4669 18.0799 96.1147 18.7649 95.758 19.4359C95.4106 20.0975 95.0724 20.7825 94.7435 21.4909C94.4804 22.0501 94.2268 22.5767 93.9826 23.0706C93.7948 23.4341 93.6116 23.7928 93.4332 24.147C93.5075 24.2592 93.5819 24.3668 93.6562 24.4696C93.7027 24.5351 93.7816 24.666 93.893 24.8623C94.0044 25.0493 94.1204 25.2504 94.2411 25.4654L94.7006 26.2507C94.9605 26.6995 95.2345 27.1343 95.5225 27.5552C95.8199 27.9667 96.1173 28.3876 96.4146 28.8178C96.5726 29.033 96.7212 29.2527 96.8605 29.4772L97.0693 29.8698C97.3011 30.3465 97.2112 30.7382 96.7996 31.045C96.5751 31.2123 96.3459 31.375 96.1121 31.533C95.8782 31.7003 95.6397 31.8582 95.3966 32.0068C95.3124 32.0626 95.2189 32.1043 95.1162 32.132C95.0227 32.1691 94.9246 32.2061 94.8218 32.2431C94.4669 32.3447 94.1779 32.2226 93.955 31.8766C93.4627 31.1284 92.9797 30.385 92.506 29.6463ZM103.085 32.4636C102.871 32.4536 102.708 32.3925 102.596 32.2802C102.484 32.1772 102.429 32.0323 102.429 31.8457L102.458 31.6358C102.496 31.4772 102.515 31.3186 102.515 31.1599C102.525 31.0013 102.54 30.8427 102.559 30.684C102.578 30.4881 102.593 30.2081 102.604 29.8442C102.623 29.4802 102.639 29.0789 102.649 28.6403C102.669 28.211 102.68 27.7677 102.681 27.3104C102.692 26.8438 102.698 26.4144 102.7 26.0224C102.71 25.6211 102.716 25.2758 102.717 24.9865C102.727 24.6972 102.732 24.5105 102.733 24.4265C102.734 23.9972 102.731 23.5445 102.723 23.0685C102.715 22.5831 102.712 22.0885 102.713 21.5845L102.715 21.2205C102.715 21.1645 102.696 21.1317 102.659 21.1223C102.612 21.1595 102.579 21.2061 102.56 21.262C102.551 21.3087 102.537 21.3599 102.518 21.4159C102.329 22.0967 102.14 22.7774 101.952 23.4582C101.763 24.139 101.565 24.8197 101.357 25.5005C101.084 26.405 100.829 27.3049 100.593 28.2002C100.357 29.0955 100.065 29.944 99.7167 30.7456C99.6227 30.96 99.5334 31.1698 99.4487 31.3748C99.3641 31.5799 99.2701 31.7803 99.1669 31.976C99.0166 32.2836 98.7967 32.4369 98.5074 32.4361L98.2975 32.4074C97.8964 32.3222 97.6826 32.0509 97.656 31.5935C97.6562 31.5375 97.6564 31.4815 97.6566 31.4255C97.6661 31.3696 97.6756 31.3136 97.6851 31.2576C97.7444 30.2124 97.813 29.1486 97.8911 28.0662C97.9785 26.9745 98.066 25.8734 98.1535 24.763C98.2312 23.7739 98.2856 22.794 98.3167 21.8234C98.3477 20.8435 98.3648 19.8589 98.3679 18.8696C98.3691 18.4869 98.3703 18.1089 98.3715 17.7356C98.3726 17.3623 98.3691 17.0029 98.3609 16.6576L98.3507 15.4255C98.3606 15.2389 98.4171 15.0944 98.5201 14.992C98.6324 14.8803 98.7726 14.8154 98.9407 14.7973L98.9687 14.7973C99.1274 14.7978 99.2625 14.8449 99.3742 14.9385C99.486 15.0322 99.5602 15.1678 99.597 15.3452C99.6153 15.4386 99.6244 15.532 99.6241 15.6253C99.6238 15.7186 99.6282 15.812 99.6372 15.9053C99.6551 16.148 99.6636 16.4094 99.6628 16.6894C99.6712 16.9601 99.675 17.2354 99.6742 17.5154L99.6523 20.0354C99.6489 21.1087 99.6129 22.1726 99.5443 23.2271C99.4756 24.2816 99.4023 25.3407 99.3243 26.4044C99.3052 26.5351 99.2908 26.6703 99.281 26.8103C99.2713 26.941 99.2662 27.0763 99.2658 27.2163C99.2655 27.3003 99.2699 27.389 99.2789 27.4823C99.288 27.5663 99.3017 27.6551 99.3201 27.7484C99.3483 27.6739 99.3766 27.6039 99.4048 27.5387C99.433 27.4734 99.4565 27.4035 99.4754 27.3289C99.6358 26.788 99.7915 26.2518 99.9425 25.7203C100.103 25.1887 100.258 24.6525 100.41 24.1117C100.815 22.6662 101.217 21.2347 101.613 19.8172C102.019 18.3904 102.331 16.9493 102.551 15.494C102.579 15.2794 102.645 15.1209 102.748 15.0185C102.86 14.9162 103.033 14.8561 103.267 14.8381C103.537 14.8202 103.803 14.807 104.065 14.7984C104.326 14.7899 104.592 14.786 104.863 14.7868C105.255 14.788 105.637 14.8031 106.011 14.8322C106.235 14.8515 106.407 14.9267 106.528 15.0577C106.658 15.1888 106.723 15.3617 106.722 15.5763L106.721 15.8983C106.721 16.1316 106.724 16.365 106.733 16.5984C106.742 16.8224 106.746 17.0511 106.745 17.2844L106.744 17.5644C106.724 17.9843 106.713 18.4183 106.712 18.8663C106.711 19.3143 106.709 19.767 106.708 20.2243C106.706 20.7283 106.705 21.2276 106.703 21.7223C106.711 22.2076 106.723 22.7024 106.74 23.2064L106.752 23.8644L106.752 24.0884C106.751 24.2471 106.746 24.4664 106.736 24.7464C106.735 25.0171 106.729 25.3204 106.719 25.6564C106.708 25.9923 106.698 26.3516 106.687 26.7343C106.677 27.1076 106.666 27.4762 106.656 27.8402C106.655 28.1948 106.649 28.5308 106.639 28.8481C106.628 29.1748 106.623 29.4501 106.622 29.6741C106.621 29.9634 106.606 30.248 106.577 30.528C106.549 30.8172 106.524 31.1065 106.505 31.3957C106.504 31.5637 106.476 31.7317 106.419 31.8995C106.315 32.2539 106.081 32.4305 105.717 32.4294C105.279 32.4374 104.84 32.4455 104.401 32.4535C103.972 32.4616 103.533 32.4649 103.085 32.4636ZM111.878 32.5457C111.682 32.5451 111.486 32.5352 111.29 32.5159C111.103 32.506 110.912 32.4821 110.716 32.4442C110.502 32.3969 110.348 32.3171 110.255 32.2049C110.171 32.1019 110.12 31.9338 110.102 31.7004C110.022 30.6082 109.955 29.5206 109.903 28.4378C109.859 27.3643 109.839 26.2769 109.843 25.1756L109.86 24.0977C109.882 23.1364 109.894 22.1797 109.897 21.2277C109.91 20.2664 109.941 19.2959 109.99 18.316C110.01 17.9987 110.03 17.6908 110.049 17.3922C110.078 17.0843 110.112 16.8044 110.15 16.5525L110.15 16.4965C110.15 16.3751 110.123 16.2864 110.067 16.2302C110.02 16.1741 109.932 16.1365 109.801 16.1174C109.559 16.0887 109.321 16.074 109.087 16.0733C109.003 16.0731 108.915 16.0728 108.821 16.0725C108.737 16.0723 108.653 16.0767 108.569 16.0858C108.485 16.0762 108.401 16.0713 108.317 16.071C108.233 16.0708 108.154 16.0612 108.079 16.0423C107.94 16.0046 107.828 15.9343 107.744 15.8313C107.66 15.7284 107.619 15.607 107.619 15.467L107.619 15.425C107.62 15.173 107.751 14.982 108.013 14.8521C108.135 14.8058 108.261 14.7829 108.391 14.7833L108.559 14.7978C109.521 14.8099 110.468 14.8221 111.401 14.8342C112.344 14.837 113.296 14.8398 114.257 14.8426L115.209 14.8455C115.377 14.846 115.564 14.8698 115.769 14.9171C115.928 14.9643 116.049 15.0439 116.132 15.1562C116.225 15.2591 116.272 15.3806 116.271 15.5206L116.257 15.6186C116.238 15.7678 116.172 15.8937 116.06 15.996C115.947 16.089 115.803 16.1399 115.625 16.1487L114.393 16.145C114.281 16.1447 114.193 16.1491 114.127 16.1583C114.071 16.1581 114.029 16.172 114.001 16.1999C113.973 16.2278 113.949 16.2744 113.931 16.3397C113.921 16.3957 113.911 16.4796 113.902 16.5916C113.796 17.4406 113.728 18.2944 113.698 19.153C113.676 20.0023 113.664 20.8516 113.662 21.7009L113.655 23.9969C113.644 24.3235 113.634 24.6548 113.623 24.9908C113.622 25.3175 113.621 25.6441 113.62 25.9708C113.619 26.4095 113.622 26.8481 113.63 27.2868C113.638 27.7162 113.66 28.1503 113.696 28.589C113.732 29.0465 113.749 29.4992 113.748 29.9472C113.747 30.4045 113.782 30.862 113.856 31.3195C113.865 31.3475 113.869 31.3756 113.869 31.4036C113.869 31.4409 113.869 31.4736 113.869 31.5016L113.854 31.7675C113.826 31.9634 113.76 32.1172 113.657 32.2289C113.563 32.3407 113.418 32.4102 113.222 32.4377C112.998 32.4743 112.774 32.5017 112.55 32.5197C112.326 32.5377 112.102 32.5463 111.878 32.5457ZM122.385 22.4548C122.208 22.4542 122.095 22.5099 122.048 22.6218C122.001 22.7243 121.977 22.9202 121.976 23.2095C121.965 23.8908 121.958 24.5535 121.956 25.1975C121.954 25.8322 121.953 26.3735 121.951 26.8215C121.931 27.3068 121.911 27.8527 121.89 28.4593C121.879 29.0753 121.863 29.7052 121.842 30.3492L121.826 30.9511C121.826 31.1285 121.905 31.2174 122.063 31.2178L122.175 31.2042C122.25 31.1857 122.325 31.1673 122.4 31.1488C122.474 31.1397 122.549 31.1259 122.624 31.1075C122.988 30.9686 123.301 30.7782 123.564 30.5363C123.826 30.3037 124.023 29.9916 124.154 29.6C124.484 28.6117 124.674 27.5902 124.724 26.5357C124.724 26.4704 124.725 26.4004 124.725 26.3257C124.734 26.2417 124.739 26.1531 124.74 26.0597C124.74 26.0131 124.74 25.9664 124.74 25.9197C124.74 25.8731 124.736 25.8264 124.726 25.7797C124.708 25.649 124.685 25.4622 124.658 25.2195C124.64 24.9674 124.608 24.706 124.563 24.4352C124.499 23.959 124.341 23.5572 124.09 23.2298C123.849 22.9024 123.476 22.6773 122.973 22.5545C122.954 22.5451 122.931 22.5357 122.903 22.5263C122.875 22.5169 122.847 22.5121 122.819 22.512C122.725 22.4931 122.641 22.4788 122.567 22.4693C122.502 22.4598 122.441 22.4549 122.385 22.4548ZM119.231 14.8294L119.329 14.8297C119.627 14.8399 119.926 14.8501 120.225 14.8603C120.523 14.8612 120.822 14.8714 121.121 14.891C121.195 14.9005 121.265 14.9101 121.33 14.9196C121.405 14.9198 121.48 14.9294 121.554 14.9483C121.927 15.0427 122.113 15.2719 122.112 15.6359L122.052 16.8957C122.042 17.045 122.037 17.1944 122.037 17.3437C122.036 17.493 122.036 17.6424 122.035 17.7917C122.034 18.1277 122.033 18.4637 122.032 18.7997C122.041 19.1357 122.044 19.4671 122.043 19.7937L122.04 20.8997C122.039 21.0397 122.062 21.1238 122.109 21.1519C122.156 21.1801 122.272 21.1944 122.459 21.195C122.972 21.2058 123.424 21.2958 123.816 21.465C124.207 21.6248 124.538 21.8358 124.808 22.0979C125.087 22.3601 125.306 22.6594 125.463 22.9959C125.63 23.323 125.746 23.6594 125.81 24.0049C125.856 24.2757 125.897 24.5418 125.934 24.8033C125.97 25.0647 125.997 25.2888 126.015 25.4755C126.033 25.7182 126.042 25.9143 126.042 26.0636C126.041 26.2036 126.041 26.3109 126.041 26.3856L126.04 26.5116C125.981 27.6781 125.767 28.8255 125.399 29.9537C125.145 30.737 124.742 31.3331 124.19 31.7421C123.647 32.1512 122.979 32.4012 122.185 32.4922L121.625 32.5185L120.505 32.5152L119.469 32.5262L118.937 32.5106C118.545 32.4814 118.275 32.3873 118.126 32.2282C117.987 32.0784 117.913 31.8075 117.905 31.4155L117.905 31.1915C117.926 30.6782 117.937 30.1649 117.938 29.6516C117.949 29.1383 117.965 28.625 117.985 28.1117C118.005 27.6451 118.016 27.1832 118.017 26.7258C118.028 26.2592 118.034 25.7879 118.036 25.3119L118.042 23.3099C118.044 22.7219 118.046 22.1106 118.048 21.4759C118.05 20.8319 118.052 20.1879 118.054 19.5439C118.065 18.8999 118.077 18.2606 118.088 17.626C118.099 16.982 118.12 16.3614 118.15 15.7642C118.161 15.2415 118.423 14.939 118.937 14.8565C118.983 14.8473 119.03 14.8428 119.077 14.8429C119.133 14.8338 119.184 14.8292 119.231 14.8294ZM135.684 32.5882C135.301 32.5871 135.083 32.3718 135.028 31.9423C135.01 31.7742 134.996 31.6062 134.987 31.4381C134.979 31.2701 134.97 31.1021 134.961 30.9341C134.936 29.9166 134.902 28.8992 134.859 27.8817C134.815 26.8549 134.79 25.8282 134.784 24.8015C134.785 24.5028 134.777 24.2041 134.759 23.9054C134.741 23.6067 134.733 23.308 134.734 23.0093L134.784 15.9955C134.805 15.3702 135.104 15.0304 135.683 14.9761C135.991 14.9397 136.295 14.9126 136.593 14.8948C136.901 14.8677 137.209 14.8546 137.517 14.8556C137.601 14.8558 137.685 14.8561 137.769 14.8563C137.853 14.8565 137.942 14.8615 138.035 14.8711C138.334 14.8906 138.544 14.9566 138.665 15.069C138.786 15.1813 138.869 15.3822 138.915 15.6717C139.126 16.7737 139.407 17.9505 139.758 19.2022C140.109 20.4446 140.483 21.7104 140.88 22.9996L140.977 23.2238C141.043 23.1774 141.08 23.1401 141.09 23.1122C141.108 23.0749 141.123 23.0329 141.132 22.9863C141.435 21.6619 141.766 20.3702 142.124 19.1112C142.492 17.8523 142.841 16.6587 143.171 15.5303C143.285 15.092 143.514 14.8733 143.859 14.8743L143.943 14.8746C144.13 14.9031 144.284 14.9969 144.405 15.156C144.525 15.3057 144.59 15.4972 144.599 15.7305L144.589 18.9785L144.572 19.8605C144.57 20.5511 144.577 21.2372 144.593 21.9185C144.619 22.5906 144.65 23.2721 144.685 23.9628C144.729 24.719 144.764 25.5124 144.79 26.3431C144.815 27.1739 144.84 27.9673 144.866 28.7234C144.884 29.0128 144.897 29.2975 144.905 29.5775C144.923 29.8669 144.941 30.1563 144.959 30.4457C144.977 30.6604 144.995 30.8704 145.013 31.0758C145.031 31.2906 145.067 31.5053 145.123 31.7202L145.15 31.9022C145.15 32.0609 145.093 32.2007 144.981 32.3217C144.878 32.4521 144.747 32.5357 144.588 32.5726C144.551 32.5818 144.499 32.5863 144.434 32.5861C144.303 32.5857 144.182 32.5387 144.07 32.445C143.959 32.3607 143.875 32.2391 143.82 32.0803C143.783 31.9775 143.755 31.8748 143.736 31.7721C143.727 31.6787 143.718 31.5807 143.709 31.478C143.612 29.6857 143.525 27.8607 143.447 26.0032C143.378 24.1456 143.323 22.3161 143.282 20.5147C143.273 20.468 143.263 20.4259 143.254 20.3886C143.245 20.3512 143.231 20.3092 143.213 20.2625C143.09 20.5234 142.996 20.7891 142.93 21.0596C142.864 21.3208 142.798 21.5866 142.732 21.857C142.58 22.4726 142.434 23.0835 142.292 23.6897C142.159 24.2867 142.027 24.893 141.894 25.5086C141.866 25.6112 141.837 25.7184 141.809 25.8303C141.781 25.9422 141.743 26.0495 141.696 26.152C141.63 26.2731 141.546 26.3615 141.443 26.4172C141.35 26.473 141.247 26.5007 141.135 26.5003C140.92 26.4997 140.743 26.4012 140.604 26.2047C140.548 26.1299 140.506 26.0505 140.479 25.9664C140.451 25.873 140.423 25.7795 140.396 25.6861C140.137 24.8547 139.869 24.0326 139.591 23.2197C139.314 22.3976 139.064 21.5615 138.843 20.7115C138.825 20.6648 138.811 20.6227 138.802 20.5854C138.802 20.5387 138.778 20.5013 138.732 20.4732L138.704 20.4731C138.676 20.473 138.662 20.4916 138.662 20.529C138.651 20.8743 138.641 21.2196 138.63 21.5649C138.629 21.9009 138.628 22.2415 138.627 22.5869C138.626 23.1189 138.643 23.6416 138.678 24.155C138.714 24.6685 138.731 25.1912 138.729 25.7232C138.724 27.3565 138.761 28.976 138.84 30.5815C138.849 30.7402 138.853 30.9036 138.853 31.0716C138.861 31.2396 138.875 31.4076 138.893 31.5757L138.907 31.7297C138.906 31.9724 138.84 32.1542 138.709 32.2752C138.587 32.3961 138.396 32.4749 138.134 32.5115C137.733 32.5569 137.331 32.5744 136.93 32.5639C136.529 32.5627 136.127 32.5708 135.726 32.5883L135.684 32.5882ZM150.428 21.7958C150.426 22.2438 150.439 22.6872 150.465 23.126C150.492 23.5647 150.514 24.0081 150.531 24.4562C150.531 24.5775 150.554 24.6662 150.6 24.7224C150.647 24.7785 150.74 24.8161 150.88 24.8352C150.992 24.8449 151.104 24.8545 151.216 24.8642C151.328 24.8645 151.44 24.8648 151.552 24.8652C151.888 24.8662 152.219 24.8532 152.546 24.8261C152.882 24.7898 153.218 24.7581 153.554 24.7311C153.685 24.7222 153.788 24.7085 153.863 24.69C153.937 24.6622 153.993 24.6251 154.031 24.5785C154.068 24.532 154.092 24.4667 154.102 24.3827C154.111 24.2988 154.121 24.1868 154.131 24.0468C154.131 23.9441 154.131 23.8415 154.132 23.7388C154.141 23.6268 154.146 23.5195 154.147 23.4169C154.148 22.8009 154.127 22.1895 154.082 21.5827C154.047 20.9759 154.007 20.3644 153.962 19.7483C153.935 19.4775 153.898 19.2114 153.853 18.95C153.816 18.6885 153.766 18.4224 153.701 18.1515C153.627 17.8433 153.512 17.5583 153.354 17.2965C153.205 17.0347 153.029 16.7869 152.824 16.5529C152.694 16.3939 152.55 16.2908 152.391 16.2436C152.233 16.1872 152.065 16.1587 151.887 16.1581C151.813 16.1579 151.738 16.1624 151.663 16.1715C151.589 16.1712 151.514 16.1757 151.439 16.1848C151.224 16.2028 151.08 16.2864 151.004 16.4355C150.929 16.5753 150.859 16.7198 150.793 16.8689C150.492 17.6053 150.34 18.3842 150.338 19.2056C150.338 19.2616 150.337 19.3176 150.337 19.3736C150.346 19.4296 150.351 19.4856 150.351 19.5416C150.359 19.887 150.367 20.2323 150.375 20.5777C150.393 20.9137 150.411 21.2591 150.428 21.6138L150.428 21.7958ZM146.764 24.739C146.73 23.8336 146.695 22.9374 146.661 22.0507C146.636 21.1639 146.615 20.2725 146.599 19.3765C146.599 19.3391 146.595 19.3018 146.586 19.2644C146.586 19.2271 146.586 19.1898 146.586 19.1524C146.597 18.6205 146.655 18.1026 146.759 17.5989C146.872 17.0953 147.042 16.6011 147.267 16.1164C147.587 15.3894 148.13 14.9943 148.895 14.9313C149.241 14.895 149.581 14.8726 149.917 14.8643C150.263 14.8466 150.608 14.8383 150.953 14.8394C151.401 14.8407 151.849 14.856 152.297 14.8853C152.615 14.905 152.899 14.9898 153.15 15.1399C153.402 15.2806 153.63 15.4726 153.835 15.7159C154.142 16.0901 154.402 16.4876 154.615 16.9082C154.828 17.3195 154.972 17.7679 155.045 18.2535C155.173 19.0752 155.268 19.8875 155.331 20.6904C155.403 21.4839 155.438 22.2913 155.436 23.1127C155.435 23.3927 155.429 23.6727 155.419 23.9526C155.409 24.2233 155.394 24.4986 155.374 24.7785C155.355 25.0304 155.335 25.2824 155.316 25.5343C155.306 25.777 155.3 26.0243 155.3 26.2763C155.299 26.575 155.307 26.869 155.325 27.1584C155.352 27.4384 155.388 27.7279 155.434 28.0267C155.461 28.4094 155.478 28.7782 155.487 29.1329C155.504 29.4969 155.522 29.8423 155.539 30.169C155.557 30.5051 155.584 30.8225 155.62 31.1213C155.657 31.42 155.712 31.6909 155.786 31.9338C155.804 32.0085 155.813 32.0598 155.813 32.0878C155.813 32.2745 155.714 32.4282 155.518 32.549C155.396 32.6233 155.28 32.6603 155.168 32.6599C155.037 32.6595 154.906 32.6218 154.776 32.5468C154.674 32.4718 154.594 32.3829 154.539 32.2801C154.483 32.1772 154.446 32.0605 154.428 31.9297C154.4 31.743 154.368 31.5516 154.332 31.3554C154.295 31.1593 154.277 30.9633 154.278 30.7673C154.27 30.2539 154.248 29.7919 154.212 29.3811C154.185 28.9703 154.154 28.5969 154.117 28.2608C154.09 27.9154 154.063 27.598 154.036 27.3086C154.009 27.0098 153.996 26.7158 153.997 26.4264L153.998 26.3004C153.998 26.1138 153.91 26.0202 153.732 26.0196L153.634 26.0194C153.308 26.0464 152.976 26.0781 152.64 26.1144C152.313 26.1508 151.987 26.1685 151.66 26.1675C151.427 26.1668 151.193 26.1521 150.96 26.1234L150.89 26.1232C150.713 26.1227 150.624 26.2298 150.623 26.4444C150.631 26.8271 150.635 27.2098 150.633 27.5925C150.632 27.9658 150.631 28.3485 150.63 28.7405L150.579 31.6383C150.578 31.965 150.512 32.1981 150.381 32.3377C150.259 32.4774 150.035 32.5561 149.708 32.5737C149.297 32.6005 148.891 32.6133 148.49 32.6121C148.378 32.6118 148.261 32.6068 148.14 32.5971C148.028 32.5968 147.916 32.5964 147.804 32.5961C147.449 32.5857 147.197 32.5056 147.049 32.3559C146.9 32.2154 146.821 31.9632 146.813 31.5992C146.804 31.3005 146.801 31.0065 146.802 30.7171C146.803 30.4278 146.803 30.1338 146.804 29.8351L146.855 27.1753C146.856 26.7646 146.848 26.3586 146.831 25.9572C146.813 25.5558 146.791 25.1497 146.764 24.739ZM161.971 25.036C162.027 25.0362 162.087 25.0317 162.153 25.0226C162.227 25.0135 162.311 24.9997 162.405 24.9813C162.433 24.9814 162.461 24.9768 162.489 24.9676C162.517 24.9583 162.54 24.9491 162.559 24.9398C163.063 24.82 163.437 24.5971 163.681 24.2711C163.934 23.9452 164.094 23.5443 164.161 23.0685C164.208 22.798 164.242 22.5414 164.261 22.2988C164.29 22.0469 164.314 21.8556 164.333 21.725C164.343 21.6784 164.347 21.6317 164.348 21.5851C164.348 21.5384 164.348 21.4917 164.348 21.4451C164.348 21.3517 164.344 21.2677 164.335 21.193C164.335 21.109 164.335 21.0344 164.335 20.969C164.292 19.9142 164.109 18.8917 163.785 17.9014C163.656 17.509 163.461 17.1958 163.2 16.9617C162.939 16.7182 162.627 16.526 162.264 16.3849C162.189 16.366 162.115 16.3518 162.04 16.3422C161.965 16.3233 161.891 16.3044 161.816 16.2856L161.704 16.2712C161.545 16.2707 161.466 16.3592 161.465 16.5365L161.477 17.1386C161.494 17.7826 161.506 18.4126 161.514 19.0287C161.53 19.6354 161.547 20.1814 161.564 20.6668C161.563 21.1148 161.561 21.6608 161.559 22.3048C161.557 22.9395 161.56 23.5975 161.567 24.2788C161.566 24.5682 161.589 24.7689 161.635 24.8811C161.682 24.9839 161.793 25.0355 161.971 25.036ZM158.769 32.6426C158.722 32.6425 158.671 32.6376 158.615 32.6281C158.568 32.628 158.522 32.6232 158.475 32.6137C157.962 32.5282 157.701 32.2241 157.694 31.7014C157.668 31.104 157.651 30.4833 157.644 29.8392C157.636 29.2046 157.629 28.5652 157.622 27.9212C157.624 27.2772 157.626 26.6378 157.628 26.0032C157.63 25.3592 157.632 24.7432 157.633 24.1552L157.64 22.1532C157.641 21.6772 157.638 21.2105 157.63 20.7532C157.632 20.2865 157.624 19.8198 157.606 19.3531C157.589 18.8397 157.577 18.3263 157.569 17.813C157.571 17.2996 157.563 16.7863 157.546 16.2729L157.547 16.0489C157.557 15.6569 157.633 15.3865 157.773 15.2376C157.923 15.0793 158.194 14.9868 158.586 14.96L159.118 14.9476L160.154 14.9646L161.274 14.9679L161.834 14.9976C162.627 15.0933 163.294 15.3473 163.834 15.7595C164.383 16.1718 164.783 16.7703 165.032 17.5551C165.393 18.6855 165.599 19.8341 165.651 21.0009L165.651 21.1269C165.651 21.2016 165.65 21.3136 165.65 21.4629C165.649 21.6029 165.64 21.7942 165.62 22.0368C165.601 22.2235 165.572 22.4474 165.534 22.7086C165.496 22.9698 165.453 23.2357 165.406 23.5062C165.339 23.8514 165.221 24.1917 165.052 24.5272C164.893 24.8534 164.672 25.1467 164.392 25.4072C164.12 25.6678 163.788 25.8814 163.396 26.0483C163.003 26.2058 162.55 26.2884 162.037 26.2962C161.85 26.2957 161.733 26.3094 161.687 26.3372C161.64 26.3651 161.616 26.449 161.616 26.589L161.612 27.695C161.611 28.0217 161.606 28.353 161.595 28.689C161.594 29.0249 161.593 29.3609 161.592 29.6969C161.592 29.8463 161.591 29.9956 161.591 30.1449C161.59 30.2943 161.594 30.4436 161.603 30.593L161.655 31.8531C161.654 32.2171 161.467 32.4453 161.093 32.5375C161.018 32.5559 160.944 32.565 160.869 32.5648C160.804 32.574 160.734 32.5831 160.659 32.5922C160.36 32.61 160.062 32.6184 159.763 32.6175C159.464 32.626 159.166 32.6344 158.867 32.6429L158.769 32.6426ZM174.666 31.4157L175.366 31.4178C175.59 31.4091 175.702 31.3161 175.702 31.1388L175.703 31.0548C175.657 30.6253 175.64 30.1959 175.651 29.7666C175.661 29.3373 175.658 28.908 175.641 28.4786L175.643 27.9046C175.644 27.2792 175.66 26.6586 175.69 26.0427C175.72 25.4175 175.736 24.7922 175.738 24.1668L175.727 23.4388L175.705 21.4647C175.708 20.4754 175.725 19.5374 175.756 18.6509C175.796 17.755 175.841 16.8171 175.89 15.8372C175.901 15.5666 175.962 15.3708 176.074 15.2498C176.187 15.1195 176.369 15.0453 176.621 15.0274C176.761 15.0185 176.896 15.0142 177.027 15.0146C177.167 15.0057 177.307 15.0014 177.447 15.0019C177.96 15.0034 178.469 15.0469 178.973 15.1324C179.196 15.1797 179.359 15.2642 179.462 15.3858C179.564 15.4981 179.62 15.671 179.628 15.9043L179.626 16.4643C179.597 16.8189 179.573 17.1595 179.553 17.4861C179.543 17.8034 179.533 18.1254 179.522 18.452C179.521 18.7694 179.515 19.0913 179.505 19.418C179.495 19.7446 179.484 20.0852 179.474 20.4399L179.442 21.7698C179.44 22.2831 179.443 22.7965 179.451 23.3098C179.468 23.8232 179.476 24.3412 179.474 24.8639L179.457 25.7459C179.437 26.2405 179.422 26.7304 179.411 27.2157C179.4 27.701 179.394 28.191 179.392 28.6857C179.391 29.1803 179.394 29.6704 179.401 30.1557C179.419 30.6411 179.45 31.1312 179.495 31.626L179.508 31.808C179.507 32.0694 179.442 32.2558 179.311 32.3675C179.189 32.4884 178.983 32.5578 178.694 32.5756C178.096 32.6112 177.499 32.6374 176.902 32.6543C176.314 32.6806 175.716 32.6975 175.109 32.705L174.857 32.7043C174.503 32.7032 174.144 32.6928 173.78 32.6731C173.425 32.6534 173.07 32.6336 172.716 32.6139C172.529 32.5947 172.342 32.5848 172.156 32.5843C171.978 32.5837 171.797 32.5832 171.61 32.5826L170.21 32.5925C169.892 32.5916 169.58 32.586 169.272 32.5757C168.964 32.5655 168.656 32.5366 168.348 32.489C168.18 32.4698 168.036 32.4414 167.914 32.4037C167.802 32.366 167.709 32.3097 167.635 32.2349C167.57 32.1693 167.519 32.0805 167.482 31.9684C167.445 31.8563 167.417 31.7162 167.399 31.5482C167.354 31.1747 167.327 30.8013 167.319 30.4279C167.31 30.0639 167.307 29.6952 167.308 29.3219L167.329 22.7139C167.332 21.5193 167.355 20.3713 167.396 19.2701C167.436 18.1689 167.487 17.021 167.546 15.8265C167.566 15.5279 167.632 15.3181 167.744 15.1971C167.866 15.0761 168.076 15.0068 168.375 14.989L169.075 14.9771C169.318 14.9778 169.556 14.9878 169.789 15.0072C170.022 15.0172 170.255 15.0412 170.489 15.0792C170.796 15.1362 171.002 15.2301 171.104 15.3611C171.215 15.4921 171.275 15.7116 171.284 16.0196L171.283 16.1316C171.282 16.4489 171.263 16.7615 171.224 17.0694C171.195 17.3773 171.181 17.6806 171.18 17.9793L171.179 18.3013C171.178 18.6373 171.172 18.9639 171.162 19.2813C171.161 19.5893 171.155 19.8926 171.145 20.1912C171.134 20.4898 171.124 20.7978 171.114 21.1151C171.113 21.4231 171.112 21.7451 171.111 22.0811C171.11 22.3331 171.109 22.5851 171.108 22.8371C171.108 23.0798 171.116 23.3271 171.134 23.5792L171.146 24.1952C171.145 24.4472 171.14 24.6992 171.13 24.9512C171.12 25.2032 171.109 25.4551 171.099 25.7071C171.08 26.0804 171.069 26.449 171.068 26.813C171.067 27.177 171.066 27.5457 171.064 27.919L171.07 30.579C171.07 30.6444 171.074 30.705 171.084 30.7611C171.093 30.8264 171.097 30.8964 171.097 30.9711C171.106 31.1858 171.222 31.2935 171.446 31.2941L172.16 31.3103C172.126 30.0408 172.093 28.7854 172.06 27.5439C172.017 26.2092 171.998 24.8604 172.002 23.4978C172.004 22.9938 172.005 22.4851 172.007 21.9718C172.018 21.4491 172.034 20.9078 172.054 20.3479C172.084 19.6293 172.096 18.9247 172.089 18.234C172.091 17.534 172.103 16.8247 172.123 16.1061C172.134 15.6861 172.186 15.4016 172.28 15.2525C172.383 15.0942 172.57 15.0154 172.841 15.0162L174.059 15.0898C174.264 15.1184 174.404 15.1935 174.478 15.3151C174.562 15.4273 174.603 15.6328 174.602 15.9314L174.601 16.2954C174.6 16.6874 174.598 17.0748 174.597 17.4574C174.605 17.8308 174.609 18.2041 174.608 18.5775C174.607 18.6801 174.602 18.8481 174.592 19.0814C174.591 19.3054 174.586 19.5714 174.576 19.8794C174.575 20.178 174.564 20.5 174.545 20.8453C174.534 21.1813 174.524 21.5126 174.514 21.8392C174.513 22.1565 174.507 22.4505 174.497 22.7211C174.487 22.9825 174.481 23.1924 174.481 23.3511C174.48 23.7338 174.483 24.1118 174.491 24.4851C174.499 24.8492 174.512 25.2132 174.53 25.5773L174.524 27.5233C174.522 28.0086 174.535 28.4893 174.561 28.9654C174.597 29.4508 174.628 29.9409 174.655 30.4357C174.672 30.6877 174.681 30.9351 174.68 31.1777L174.666 31.4157ZM185.732 25.1064C185.788 25.1066 185.849 25.1021 185.914 25.093C185.989 25.0839 186.073 25.0701 186.166 25.0517C186.194 25.0518 186.223 25.0472 186.251 25.038C186.279 25.0287 186.302 25.0195 186.321 25.0102C186.825 24.8904 187.199 24.6675 187.443 24.3415C187.696 24.0156 187.856 23.6147 187.922 23.1389C187.97 22.8684 188.003 22.6118 188.023 22.3692C188.052 22.1173 188.076 21.926 188.095 21.7954C188.104 21.7488 188.109 21.7021 188.109 21.6555C188.109 21.6088 188.109 21.5621 188.11 21.5155C188.11 21.4221 188.105 21.3381 188.096 21.2634C188.097 21.1794 188.097 21.1048 188.097 21.0394C188.054 19.9846 187.87 18.9621 187.547 17.9718C187.417 17.5794 187.222 17.2662 186.962 17.0321C186.701 16.7886 186.389 16.5964 186.025 16.4553C185.951 16.4364 185.876 16.4222 185.802 16.4126C185.727 16.3937 185.652 16.3748 185.578 16.356L185.466 16.3416C185.307 16.3411 185.227 16.4296 185.227 16.6069L185.239 17.209C185.256 17.853 185.268 18.483 185.275 19.0991C185.292 19.7058 185.309 20.2518 185.326 20.7372C185.325 21.1852 185.323 21.7312 185.321 22.3752C185.319 23.0099 185.321 23.6679 185.329 24.3492C185.328 24.6386 185.35 24.8393 185.397 24.9515C185.443 25.0543 185.555 25.1059 185.732 25.1064ZM182.53 32.713C182.484 32.7129 182.432 32.708 182.377 32.6985C182.33 32.6984 182.283 32.6936 182.237 32.6841C181.723 32.5986 181.463 32.2945 181.455 31.7718C181.429 31.1744 181.413 30.5537 181.405 29.9096C181.398 29.275 181.391 28.6356 181.383 27.9916C181.385 27.3476 181.387 26.7082 181.389 26.0736C181.391 25.4296 181.393 24.8136 181.395 24.2256L181.401 22.2236C181.403 21.7476 181.4 21.2809 181.392 20.8236C181.393 20.3569 181.385 19.8902 181.368 19.4235C181.351 18.9101 181.339 18.3967 181.331 17.8834C181.333 17.37 181.325 16.8567 181.308 16.3433L181.308 16.1193C181.319 15.7273 181.395 15.4569 181.535 15.308C181.685 15.1497 181.956 15.0572 182.348 15.0304L182.88 15.018L183.916 15.035L185.036 15.0383L185.596 15.068C186.389 15.1637 187.055 15.4177 187.595 15.8299C188.145 16.2422 188.544 16.8407 188.794 17.6255C189.154 18.7559 189.361 19.9045 189.413 21.0713L189.413 21.1973C189.412 21.272 189.412 21.384 189.412 21.5333C189.411 21.6733 189.401 21.8646 189.382 22.1072C189.362 22.2939 189.334 22.5178 189.296 22.779C189.257 23.0402 189.215 23.3061 189.167 23.5766C189.101 23.9218 188.983 24.2621 188.814 24.5976C188.654 24.9238 188.434 25.2171 188.153 25.4776C187.882 25.7382 187.55 25.9518 187.157 26.1187C186.765 26.2762 186.312 26.3588 185.798 26.3666C185.612 26.3661 185.495 26.3798 185.448 26.4076C185.401 26.4355 185.378 26.5194 185.377 26.6594L185.374 27.7654C185.373 28.0921 185.367 28.4234 185.357 28.7594C185.356 29.0954 185.355 29.4313 185.354 29.7673C185.353 29.9167 185.353 30.066 185.352 30.2153C185.352 30.3647 185.356 30.514 185.365 30.6634L185.417 31.9235C185.416 32.2875 185.228 32.5157 184.855 32.6079C184.78 32.6263 184.705 32.6354 184.631 32.6352C184.565 32.6444 184.495 32.6535 184.421 32.6626C184.122 32.6804 183.823 32.6888 183.525 32.6879C183.226 32.6964 182.927 32.7048 182.628 32.7133L182.53 32.713ZM198.884 15.3314C198.921 15.3501 198.949 15.3736 198.968 15.4016C199.098 15.5513 199.162 15.7895 199.161 16.1162L199.145 16.7042C199.144 17.0308 199.148 17.3528 199.156 17.6702C199.174 17.9876 199.192 18.3096 199.209 18.6363C199.209 18.7017 199.213 18.8137 199.222 18.9724C199.222 19.1031 199.221 19.2897 199.221 19.5324C199.229 19.7657 199.233 20.0691 199.232 20.4424C199.231 20.8158 199.224 21.2731 199.213 21.8144C199.212 22.3464 199.205 22.9764 199.194 23.7043C199.182 24.4323 199.165 25.2722 199.144 26.2242C199.131 27.1668 199.114 28.2354 199.092 29.43C199.081 29.738 199.057 30.0413 199.019 30.3398C198.98 30.6477 198.923 30.9509 198.848 31.2493C198.801 31.4265 198.73 31.5803 198.636 31.7107C198.552 31.8411 198.444 31.9621 198.313 32.0738C198.051 32.2876 197.775 32.4548 197.486 32.5753C197.196 32.7051 196.883 32.7695 196.547 32.7685L196.407 32.7681C196.127 32.7579 195.847 32.7478 195.567 32.7376C195.297 32.7368 195.021 32.7267 194.741 32.7072C194.461 32.6877 194.181 32.6542 193.902 32.6067C193.631 32.5592 193.361 32.4837 193.09 32.3803C192.503 32.1545 192.019 31.8451 191.637 31.452C191.265 31.0682 191.029 30.5542 190.928 29.9099C190.882 29.6391 190.846 29.3729 190.819 29.1115C190.801 28.8501 190.792 28.5888 190.793 28.3275C190.793 28.1688 190.799 28.0148 190.808 27.8655C190.818 27.7162 190.837 27.5623 190.866 27.4037C190.904 27.1891 190.928 26.9792 190.938 26.7739C190.957 26.5593 190.977 26.3447 190.996 26.13C191.005 26.0741 191.01 26.0181 191.01 25.9621C191.011 25.8968 191.02 25.8408 191.039 25.7942C191.086 25.617 191.166 25.4772 191.278 25.3749C191.391 25.2725 191.526 25.2216 191.685 25.2221L191.755 25.2223C191.913 25.2414 192.044 25.3118 192.146 25.4335C192.258 25.5458 192.313 25.6953 192.313 25.8819L192.312 25.9379C192.293 26.1712 192.274 26.4045 192.254 26.6378C192.235 26.8617 192.206 27.0903 192.168 27.3235C192.149 27.5008 192.13 27.6781 192.11 27.8554C192.101 28.0233 192.095 28.196 192.095 28.3733C192.094 28.6066 192.103 28.84 192.121 29.0734C192.148 29.3068 192.185 29.5403 192.23 29.7737C192.341 30.3154 192.624 30.7082 193.081 30.9522C193.221 31.0273 193.36 31.0884 193.5 31.1355C193.649 31.1919 193.803 31.2391 193.962 31.2769C194.074 31.3052 194.181 31.3195 194.284 31.3198C194.536 31.3206 194.741 31.2418 194.9 31.0836C195.069 30.9348 195.177 30.7251 195.224 30.4546C195.253 30.2867 195.277 30.1187 195.296 29.9508C195.315 29.7829 195.33 29.6149 195.339 29.4469C195.343 28.3456 195.351 27.2303 195.364 26.101C195.365 25.625 195.367 25.121 195.369 24.589C195.37 24.057 195.377 23.5203 195.388 22.979L195.389 22.741C195.183 22.7591 194.982 22.7725 194.786 22.7813C194.553 22.7899 194.315 22.7939 194.072 22.7931C193.82 22.7924 193.568 22.787 193.316 22.7769C193.064 22.7668 192.817 22.7521 192.575 22.7327C192.108 22.7033 191.735 22.6229 191.455 22.4914C191.185 22.3599 190.985 22.2053 190.855 22.0276C190.743 21.8686 190.664 21.7144 190.618 21.5649C190.581 21.4061 190.554 21.2474 190.536 21.0887L190.303 19.324C190.285 19.2492 190.276 19.1325 190.276 18.9739C190.277 18.8152 190.277 18.6566 190.278 18.4979C190.278 18.3672 190.279 18.2552 190.279 18.1619C190.279 18.0592 190.284 17.9939 190.293 17.9659C190.332 17.4807 190.38 17.0422 190.438 16.6504C190.504 16.2492 190.58 15.8574 190.665 15.475C190.703 15.3445 190.787 15.256 190.918 15.2098C191.049 15.1542 191.268 15.1221 191.576 15.1137C191.819 15.1051 192.062 15.1012 192.304 15.1019C192.556 15.0933 192.804 15.0894 193.046 15.0901L193.578 15.0917C193.905 15.1113 194.129 15.1446 194.25 15.1916C194.381 15.2387 194.446 15.3229 194.445 15.4442L194.431 15.5422C194.393 15.7287 194.355 15.9153 194.317 16.1018C194.279 16.2884 194.246 16.4796 194.218 16.6756C194.179 16.9181 194.146 17.1607 194.117 17.4033C194.088 17.6365 194.06 17.8791 194.031 18.131L194.031 18.229C194.03 18.2943 194.03 18.3783 194.03 18.481C194.039 18.5837 194.043 18.6864 194.043 18.789C194.052 18.8917 194.056 18.9897 194.056 19.0831C194.065 19.1764 194.074 19.2511 194.083 19.3072C194.129 19.6153 194.17 19.9234 194.206 20.2315C194.243 20.5396 194.284 20.8478 194.329 21.1559C194.348 21.2493 194.366 21.338 194.385 21.4221C194.412 21.5061 194.44 21.5902 194.468 21.6743C194.477 21.7023 194.491 21.735 194.51 21.7724C194.528 21.8005 194.547 21.8285 194.565 21.8566C194.621 21.9314 194.696 21.997 194.789 22.0533C194.891 22.1002 195.026 22.1333 195.194 22.1525L195.39 22.153L195.398 19.8571C195.4 19.1291 195.402 18.4897 195.404 17.9391C195.405 17.3791 195.402 16.9684 195.393 16.707L195.395 16.315C195.395 16.2404 195.395 16.175 195.395 16.119C195.395 16.0537 195.4 15.9884 195.41 15.9231C195.468 15.3726 195.758 15.0934 196.28 15.0857L196.981 15.0737C197.401 15.075 197.82 15.0902 198.24 15.1195L198.352 15.1198C198.651 15.1393 198.828 15.2099 198.884 15.3314ZM204.614 32.8204C204.418 32.8198 204.222 32.8099 204.026 32.7907C203.839 32.7808 203.648 32.7569 203.452 32.719C203.237 32.6717 203.084 32.5919 202.991 32.4796C202.907 32.3767 202.856 32.2085 202.838 31.9752C202.758 30.8829 202.691 29.7954 202.639 28.7126C202.595 27.6391 202.575 26.5517 202.579 25.4504L202.596 24.3724C202.618 23.4111 202.63 22.4545 202.633 21.5025C202.646 20.5412 202.677 19.5706 202.726 18.5908C202.746 18.2735 202.766 17.9655 202.785 17.6669C202.814 17.359 202.848 17.0791 202.886 16.8272L202.886 16.7712C202.886 16.6499 202.859 16.5612 202.803 16.505C202.756 16.4488 202.668 16.4113 202.537 16.3922C202.295 16.3635 202.057 16.3488 201.823 16.3481C201.739 16.3478 201.651 16.3476 201.557 16.3473C201.473 16.347 201.389 16.3515 201.305 16.3605C201.221 16.351 201.137 16.3461 201.053 16.3458C200.969 16.3456 200.89 16.336 200.815 16.3171C200.676 16.2793 200.564 16.209 200.48 16.1061C200.396 16.0032 200.355 15.8817 200.355 15.7417L200.355 15.6997C200.356 15.4477 200.487 15.2568 200.749 15.1269C200.871 15.0806 200.997 15.0576 201.127 15.058L201.295 15.0725C202.257 15.0847 203.204 15.0968 204.137 15.1089C205.08 15.1117 206.032 15.1145 206.993 15.1174L207.945 15.1202C208.113 15.1207 208.3 15.1446 208.505 15.1919C208.663 15.239 208.785 15.3187 208.868 15.431C208.961 15.5339 209.008 15.6554 209.007 15.7954L208.993 15.8933C208.974 16.0426 208.908 16.1684 208.796 16.2707C208.683 16.3637 208.538 16.4146 208.361 16.4235L207.129 16.4198C207.017 16.4195 206.928 16.4239 206.863 16.433C206.807 16.4328 206.765 16.4467 206.737 16.4746C206.709 16.5026 206.685 16.5492 206.666 16.6144C206.657 16.6704 206.647 16.7544 206.638 16.8663C206.532 17.7154 206.464 18.5692 206.434 19.4278C206.412 20.277 206.4 21.1263 206.398 21.9757L206.39 24.2716C206.38 24.5983 206.37 24.9296 206.359 25.2656C206.358 25.5922 206.357 25.9189 206.356 26.2456C206.355 26.6842 206.358 27.1229 206.366 27.5616C206.374 27.991 206.396 28.425 206.432 28.8638C206.468 29.3212 206.485 29.774 206.484 30.222C206.482 30.6793 206.518 31.1367 206.592 31.5943C206.601 31.6223 206.605 31.6503 206.605 31.6783C206.605 31.7157 206.605 31.7483 206.605 31.7763L206.59 32.0423C206.562 32.2382 206.496 32.392 206.393 32.5037C206.299 32.6154 206.154 32.685 205.958 32.7124C205.734 32.7491 205.51 32.7764 205.286 32.7944C205.062 32.8124 204.838 32.8211 204.614 32.8204Z" fill="white"/>
</svg>
