<svg width="208" height="61" viewBox="0 0 208 61" fill="none" xmlns="http://www.w3.org/2000/svg">
<path d="M8.02517 37.6954L3.38232 32.5822L1.53366 12.758C3.99437 10.0382 12.4153 4.56554 26.4131 4.43332C43.9104 4.26805 64.7914 3.20111 84.8509 4.16106C104.91 5.12101 135.516 5.69527 142.577 5.96073C149.637 6.22619 178.275 6.68572 187.448 10.1171C194.786 12.8622 201.419 17.8445 203.818 19.9926C203.059 20.3756 201.97 21.6104 203.685 23.4857C205.399 25.361 206.235 28.1773 206.438 29.351C205.421 29.9987 203.38 31.4584 203.355 32.116C203.324 32.9379 196.627 32.8919 199.932 34.0451C202.577 34.9676 203.154 37.3901 203.112 38.486C200.472 39.4156 194 41.2712 189.237 41.2568C184.474 41.2423 180.284 41.8119 178.785 42.0985L178.722 43.7425C180.941 44.1002 184.931 44.8812 183.134 45.1429C180.889 45.47 178.699 44.3588 176.817 44.9054C174.935 45.452 172.287 46.5871 174.501 47.0819C175.171 47.4863 175.835 47.7004 176.433 47.7965C177.174 47.7257 177.974 47.6749 178.573 47.6465C178.185 47.801 177.392 47.9506 176.433 47.7965C175.174 47.9165 174.088 48.0938 174.454 48.3148C175.036 48.6659 177.396 49.2485 178.503 49.4959L180.314 50.7986L174.368 50.5751C171.098 50.4521 171.719 51.7102 172.439 52.3546C171.567 52.459 169.305 52.566 167.237 52.159C164.651 51.6502 165.742 52.3086 161.275 52.3464C157.701 52.3767 144.674 51.7908 138.606 51.4941C139.112 51.2388 139.455 50.7029 136.78 50.6023C133.435 50.4766 133.064 50.4626 128.96 50.7199C124.857 50.9772 86.8422 49.507 74.2073 49.032L55.9981 48.3474C50.15 48.8135 36.3 49.6234 27.6847 49.1349C16.9157 48.5243 7.70373 46.1201 7.71157 45.9146C7.71784 45.7503 5.77927 44.5387 4.80921 43.9535C5.78711 44.3332 7.75077 44.8872 7.78213 44.0653C7.81349 43.2434 5.92301 40.7715 4.97385 39.6384L8.02517 37.6954Z" fill="#FDA3C4"/>
<path d="M14.639 49.6733C13.4498 49.6286 13.3689 50.4487 13.4771 50.8643L11.0538 50.979C9.85084 51.6197 7.66955 52.8684 8.5677 52.7375C9.46585 52.6067 11.1925 52.2189 11.9436 52.0413C12.4495 51.786 15.8398 51.3647 25.3531 51.7224C37.2448 52.1695 36.1457 51.7166 37.2605 51.7585C38.3754 51.8004 16.1255 49.7292 14.639 49.6733Z" fill="#FDA3C4"/>
<path d="M48.1823 23.2234C48.1295 23.05 48.0834 22.8765 48.0439 22.703C47.8594 22.0225 47.7682 21.3155 47.7705 20.5822C47.7714 20.2889 47.7857 19.9956 47.8132 19.7023C47.8682 19.1692 47.9499 18.6427 48.0581 18.1231C48.1121 17.9232 48.166 17.7234 48.22 17.5235C48.1404 17.4033 48.0541 17.283 47.9611 17.1628C47.9345 17.136 47.9146 17.116 47.9013 17.1026C47.8747 17.0892 47.8481 17.0691 47.8215 17.0423C47.6485 16.9218 47.4087 16.8611 47.102 16.8602C46.982 16.8598 46.862 16.8728 46.7419 16.8991C46.6218 16.9254 46.5217 16.9584 46.4416 16.9982C46.2546 17.1043 46.1143 17.2172 46.0206 17.3369C45.9269 17.4433 45.8399 17.5497 45.7596 17.6562C45.5317 18.0288 45.3772 18.4084 45.296 18.7948C45.2015 19.1678 45.127 19.5476 45.0725 19.9341C45.0589 20.0274 45.0519 20.1207 45.0516 20.2141C45.0514 20.2941 45.0511 20.3807 45.0508 20.4741C45.0493 20.9807 45.1344 21.4676 45.3063 21.9348C45.4649 22.402 45.7034 22.8694 46.022 23.337C46.075 23.4171 46.1348 23.4907 46.2013 23.5575C46.2677 23.6244 46.3609 23.6913 46.4807 23.7584C46.6803 23.8656 46.8868 23.9196 47.1002 23.9202C47.3402 23.9209 47.547 23.8549 47.7208 23.7221C47.8009 23.669 47.8678 23.6158 47.9213 23.5627C47.9614 23.5095 48.0083 23.4496 48.0618 23.3831C48.102 23.3299 48.1422 23.2767 48.1823 23.2234ZM52.8207 17.3173C52.8472 17.3707 52.8737 17.4241 52.9002 17.4775C53.1252 18.0116 53.2835 18.552 53.3751 19.099C53.4146 19.2724 53.4474 19.4525 53.4735 19.6393C53.4996 19.8127 53.5124 19.9861 53.5118 20.1594L53.5112 20.3594C53.4555 21.1326 53.3265 21.8855 53.1242 22.6182C53.0567 22.8847 52.9692 23.1511 52.8617 23.4175L52.9812 23.5778C53.0477 23.6447 53.1408 23.7116 53.2606 23.7787C53.4603 23.8859 53.6668 23.9399 53.8801 23.9405C54.1201 23.9412 54.327 23.8752 54.5007 23.7424C54.5809 23.6893 54.6411 23.6361 54.6812 23.5829C54.7347 23.5297 54.7883 23.4699 54.8418 23.4034C55.23 22.9112 55.5182 22.4121 55.7064 21.906C55.8947 21.3999 56.0096 20.8869 56.0512 20.367L56.0514 20.307C56.0531 19.7603 55.9347 19.2333 55.6963 18.7259C55.4579 18.2052 55.1395 17.6909 54.7411 17.1831C54.7145 17.1563 54.6879 17.1362 54.6613 17.1228C54.648 17.1094 54.628 17.0894 54.6015 17.0626C54.4285 16.9421 54.1887 16.8814 53.882 16.8805C53.762 16.8801 53.642 16.8931 53.5219 16.9194C53.4018 16.9457 53.295 16.9787 53.2016 17.0184C53.0413 17.1113 52.9143 17.2109 52.8207 17.3173ZM51.6734 26.1139L51.6683 27.7539C51.6647 28.9006 51.6612 30.0406 51.6577 31.1739C51.6542 32.3072 51.6573 33.4472 51.6671 34.5939C51.6784 35.234 51.6898 35.854 51.7013 36.454C51.7128 37.0674 51.7175 37.6874 51.7156 38.3141C51.7146 38.6208 51.7072 38.8674 51.6933 39.054C51.6926 39.254 51.6721 39.414 51.6318 39.5339C51.6047 39.6538 51.5511 39.7469 51.4709 39.8134C51.404 39.8932 51.3171 39.9596 51.2103 40.0126C51.0768 40.0655 50.9433 40.0985 50.81 40.1114C50.6899 40.1244 50.5766 40.1307 50.4699 40.1304L49.89 40.1086C49.7167 40.0815 49.597 39.9878 49.5308 39.8276C49.4647 39.6674 49.4255 39.3939 49.4134 39.0072C49.3757 38.2604 49.3581 37.4937 49.3605 36.707C49.3512 35.4003 49.3353 34.1003 49.3126 32.8069C49.3033 31.5135 49.3007 30.2135 49.3047 28.9068L49.3134 26.1068L49.2134 26.1065C48.9467 26.1191 48.68 26.125 48.4133 26.1242L46.9934 26.0999C46.7534 26.0992 46.5401 26.0719 46.3536 26.018C46.1672 25.9508 45.9874 25.8702 45.8144 25.7764C45.5349 25.6289 45.322 25.4682 45.1759 25.2945C45.0165 25.1073 44.8837 24.9202 44.7776 24.7333C44.4197 24.0522 44.1552 23.3714 43.984 22.6909C43.8127 22.0104 43.7283 21.3034 43.7305 20.5701C43.7314 20.2768 43.7457 19.9835 43.7733 19.6902C43.8282 19.1571 43.9099 18.6373 44.0181 18.131C44.1264 17.6113 44.2946 17.0918 44.5229 16.5725C44.7779 16.0532 45.206 15.5945 45.8072 15.1963C45.9408 15.1167 46.081 15.0505 46.2278 14.9976C46.3746 14.9447 46.5547 14.9119 46.7681 14.8992C47.0615 14.8867 47.3549 14.8743 47.6482 14.8618C47.9283 14.8493 48.2216 14.8435 48.5283 14.8444C48.8616 14.8454 49.1949 14.8531 49.5282 14.8674C49.7681 14.8948 50.0014 14.9222 50.228 14.9495C50.2814 14.9364 50.3347 14.9232 50.3881 14.91C50.5349 14.8838 50.6882 14.8709 50.8482 14.8714C50.9682 14.8851 51.0682 14.8921 51.1482 14.8923C51.3348 14.8929 51.5148 14.8867 51.6882 14.8739C51.9683 14.8614 52.2616 14.8556 52.5683 14.8565C52.9016 14.8575 53.2349 14.8719 53.5682 14.8995C53.9014 14.9139 54.2347 14.9482 54.5678 15.0025C54.981 15.0704 55.3139 15.1848 55.5668 15.3455C55.8197 15.4929 56.0124 15.6802 56.145 15.9073C56.4501 16.4415 56.7151 16.9756 56.9401 17.5096C57.1651 18.0303 57.3235 18.5641 57.4151 19.1111C57.4546 19.2845 57.4874 19.4646 57.5134 19.6514C57.5396 19.8248 57.5524 19.9982 57.5518 20.1715L57.5512 20.3715C57.4955 21.1447 57.3665 21.8976 57.1642 22.6303C56.9619 23.3631 56.653 24.0888 56.2374 24.8076C56.1838 24.9007 56.1235 24.9939 56.0566 25.087C55.9896 25.1802 55.916 25.2733 55.8357 25.3664C55.4744 25.7786 54.8737 26.0168 54.0335 26.081C53.7667 26.1068 53.5 26.1261 53.2333 26.1386C52.98 26.1378 52.72 26.137 52.4533 26.1363L51.6734 26.1139ZM69.5541 15.2274C69.6073 15.2542 69.6472 15.2877 69.6738 15.3278C69.8598 15.5417 69.9521 15.8819 69.9506 16.3486L69.928 17.1885C69.9266 17.6552 69.9318 18.1152 69.9437 18.5686C69.969 19.022 69.9942 19.4821 70.0195 19.9488C70.0192 20.0422 70.0253 20.2022 70.038 20.4289C70.0374 20.6155 70.0366 20.8822 70.0355 21.2289C70.0478 21.5622 70.0531 21.9956 70.0515 22.5289C70.0498 23.0623 70.0411 23.7156 70.0254 24.4889C70.023 25.2489 70.0136 26.1488 69.997 27.1888C69.9804 28.2287 69.9567 29.4287 69.9258 30.7886C69.9083 32.1352 69.8836 33.6618 69.8516 35.3684C69.8369 35.8083 69.8023 36.2416 69.7476 36.6681C69.6929 37.1079 69.6116 37.541 69.5036 37.9674C69.4361 38.2205 69.3355 38.4402 69.2015 38.6265C69.081 38.8128 68.9271 38.9856 68.7399 39.1451C68.3656 39.4506 67.9716 39.6894 67.5577 39.8615C67.1438 40.047 66.6968 40.139 66.2168 40.1375L66.0168 40.1369C65.6169 40.1224 65.2169 40.1079 64.817 40.0933C64.4303 40.0922 64.037 40.0777 63.6371 40.0498C63.2372 40.0219 62.8373 39.9741 62.4375 39.9062C62.0511 39.8384 61.6647 39.7306 61.2785 39.5827C60.4395 39.2602 59.7476 38.8181 59.2026 38.2565C58.671 37.7083 58.3333 36.9739 58.1895 36.0535C58.124 35.6666 58.0718 35.2864 58.033 34.913C58.0075 34.5396 57.9953 34.1662 57.9965 33.7929C57.9972 33.5662 58.0045 33.3462 58.0185 33.1329C58.0325 32.9197 58.0599 32.6997 58.1006 32.4732C58.1548 32.1667 58.1891 31.8668 58.2034 31.5735C58.231 31.2669 58.2586 30.9603 58.2862 30.6537C58.2998 30.5738 58.3067 30.4938 58.307 30.4138C58.3072 30.3205 58.3208 30.2405 58.3477 30.1739C58.4151 29.9208 58.5291 29.7211 58.6896 29.5749C58.85 29.4288 59.0436 29.356 59.2702 29.3567L59.3702 29.357C59.5968 29.3843 59.7832 29.4849 59.9293 29.6587C60.0888 29.8191 60.1681 30.0327 60.1673 30.2994L60.1671 30.3794C60.1394 30.7126 60.1117 31.0459 60.084 31.3791C60.0563 31.699 60.0153 32.0256 59.9609 32.3588C59.9335 32.612 59.906 32.8653 59.8786 33.1185C59.8645 33.3585 59.8571 33.6051 59.8563 33.8585C59.8552 34.1918 59.8675 34.5252 59.8932 34.8586C59.9321 35.192 59.9844 35.5255 60.0501 35.859C60.2077 36.6329 60.6126 37.1941 61.2649 37.5427C61.4645 37.65 61.6643 37.7372 61.8641 37.8045C62.0771 37.8851 62.2969 37.9524 62.5234 38.0065C62.6833 38.0469 62.8366 38.0674 62.9832 38.0678C63.3432 38.0689 63.6369 37.9565 63.8643 37.7305C64.105 37.5179 64.2592 37.2183 64.3271 36.8319C64.3678 36.592 64.4019 36.3521 64.4293 36.1122C64.4567 35.8722 64.4775 35.6323 64.4915 35.3923C64.4964 33.819 64.508 32.2257 64.5264 30.6124C64.5285 29.9324 64.5307 29.2124 64.5331 28.4524C64.5354 27.6924 64.5445 26.9258 64.5602 26.1525L64.5612 25.8125C64.2678 25.8383 63.9811 25.8574 63.7011 25.8699C63.3677 25.8823 63.0277 25.8879 62.681 25.8869C62.321 25.8858 61.961 25.8781 61.6011 25.8636C61.2411 25.8492 60.8878 25.8282 60.5413 25.8005C59.8747 25.7585 59.3417 25.6435 58.9423 25.4557C58.5562 25.2679 58.2703 25.047 58.0844 24.7931C57.9251 24.566 57.8124 24.3456 57.7464 24.1321C57.6938 23.9053 57.6545 23.6785 57.6285 23.4517L57.2963 20.9307C57.27 20.824 57.2572 20.6573 57.2579 20.4306C57.2586 20.2039 57.2593 19.9773 57.26 19.7506C57.2606 19.5639 57.2611 19.4039 57.2615 19.2706C57.2619 19.124 57.2689 19.0306 57.2824 18.9907C57.3378 18.2975 57.4065 17.671 57.4882 17.1113C57.5833 16.5382 57.6917 15.9786 57.8134 15.4323C57.8673 15.2457 57.9877 15.1194 58.1746 15.0533C58.3615 14.9739 58.675 14.9282 59.115 14.9161C59.4617 14.9039 59.8084 14.8982 60.1551 14.8993C60.5151 14.887 60.8685 14.8814 61.2151 14.8824L61.9751 14.8847C62.4417 14.9128 62.7615 14.9604 62.9347 15.0276C63.1211 15.0948 63.2141 15.2151 63.2136 15.3884L63.1931 15.5284C63.139 15.7949 63.0848 16.0614 63.0306 16.3279C62.9765 16.5944 62.929 16.8676 62.8881 17.1475C62.8337 17.494 62.786 17.8405 62.7449 18.187C62.7038 18.5202 62.6628 18.8668 62.6217 19.2267L62.6212 19.3667C62.6209 19.46 62.6206 19.58 62.6201 19.7267C62.633 19.8734 62.6392 20.0201 62.6387 20.1667C62.6516 20.3134 62.6579 20.4534 62.6574 20.5868C62.6704 20.7202 62.6834 20.8269 62.6964 20.9069C62.7617 21.3471 62.8204 21.7873 62.8724 22.2274C62.9243 22.6676 62.983 23.1078 63.0483 23.548C63.0745 23.6814 63.1008 23.8081 63.1271 23.9282C63.1667 24.0483 63.2063 24.1684 63.246 24.2886C63.2592 24.3286 63.279 24.3753 63.3055 24.4287C63.3321 24.4688 63.3586 24.5089 63.3852 24.549C63.4648 24.6559 63.5712 24.7495 63.7043 24.8299C63.8507 24.897 64.0439 24.9443 64.2839 24.9717L64.5639 24.9725L64.574 21.6925C64.5772 20.6525 64.5801 19.7392 64.5825 18.9525C64.585 18.1525 64.5801 17.5659 64.568 17.1925L64.5697 16.6325C64.57 16.5258 64.5703 16.4325 64.5706 16.3525C64.5709 16.2592 64.5778 16.1658 64.5914 16.0726C64.6739 15.2861 65.0885 14.8874 65.8352 14.8763L66.8352 14.8593C67.4352 14.8611 68.0351 14.8829 68.635 14.9247L68.795 14.9251C69.2216 14.9531 69.4746 15.0538 69.5541 15.2274ZM77.7406 40.212C77.4606 40.2112 77.1806 40.197 76.9007 40.1695C76.6341 40.1554 76.3608 40.1212 76.081 40.0671C75.7746 39.9995 75.5549 39.8855 75.4221 39.7251C75.3025 39.5781 75.2299 39.3378 75.2043 39.0044C75.0891 37.4441 74.994 35.8905 74.9188 34.3436C74.8568 32.81 74.8283 31.2566 74.8332 29.6833L74.858 28.1433C74.8889 26.7701 74.9065 25.4035 74.9107 24.0435C74.9283 22.6702 74.9726 21.2837 75.0436 19.8839C75.0717 19.4306 75.0997 18.9907 75.1277 18.5641C75.169 18.1242 75.2169 17.7244 75.2714 17.3645L75.2716 17.2845C75.2722 17.1112 75.2326 16.9844 75.1528 16.9042C75.0864 16.824 74.9599 16.7703 74.7733 16.743C74.4268 16.702 74.0868 16.681 73.7535 16.68C73.6335 16.6796 73.5068 16.6793 73.3735 16.6789C73.2535 16.6785 73.1335 16.6848 73.0135 16.6978C72.8935 16.6841 72.7735 16.6771 72.6535 16.6767C72.5335 16.6763 72.4202 16.6627 72.3136 16.6357C72.1138 16.5817 71.9541 16.4813 71.8346 16.3342C71.715 16.1872 71.6556 16.0137 71.6562 15.8137L71.6564 15.7537C71.6575 15.3937 71.845 15.1209 72.2189 14.9354C72.3925 14.8692 72.5726 14.8364 72.7592 14.837L72.9992 14.8577C74.3724 14.8752 75.7257 14.8926 77.059 14.9099C78.4057 14.9139 79.7657 14.918 81.139 14.9221L82.499 14.9262C82.739 14.9269 83.0056 14.961 83.2987 15.0286C83.5251 15.0959 83.6981 15.2098 83.8176 15.3701C83.9505 15.5172 84.0166 15.6907 84.016 15.8907L83.9956 16.0307C83.9682 16.2439 83.8744 16.4236 83.7139 16.5698C83.5535 16.7027 83.3466 16.7754 83.0932 16.788L81.3332 16.7827C81.1732 16.7822 81.0465 16.7885 80.9532 16.8015C80.8732 16.8013 80.8131 16.8211 80.773 16.861C80.7329 16.9009 80.6993 16.9675 80.6724 17.0607C80.6588 17.1407 80.6451 17.2606 80.6312 17.4206C80.4808 18.6335 80.3837 19.8532 80.3399 21.0797C80.3095 22.293 80.2924 23.5063 80.2886 24.7196L80.2784 27.9996C80.2637 28.4662 80.2489 28.9395 80.234 29.4195C80.2326 29.8861 80.2312 30.3528 80.2297 30.8194C80.2278 31.4461 80.2325 32.0728 80.2439 32.6995C80.2553 33.3129 80.2867 33.933 80.3381 34.5598C80.3894 35.2133 80.4141 35.86 80.4121 36.5C80.4101 37.1533 80.4614 37.8068 80.566 38.4605C80.5792 38.5005 80.5858 38.5405 80.5856 38.5805C80.5855 38.6339 80.5853 38.6805 80.5852 38.7205L80.564 39.1005C80.5232 39.3804 80.4292 39.6001 80.282 39.7596C80.1482 39.9192 79.9412 40.0186 79.6611 40.0578C79.3409 40.1102 79.0208 40.1492 78.7007 40.1749C78.3806 40.2006 78.0606 40.213 77.7406 40.212ZM92.3912 38.3559C93.3519 38.1588 94.1526 37.9078 94.7936 37.6031C95.4345 37.3117 95.8557 36.9329 96.0571 36.4669C96.1511 36.2671 96.2117 36.0607 96.239 35.8474C96.2797 35.6342 96.3004 35.4209 96.301 35.2076L96.2828 34.6475C96.2177 34.1407 96.1725 33.6472 96.1473 33.1671C96.1355 32.6737 96.1038 32.1737 96.052 31.6668C95.9745 30.8533 95.5169 30.0852 94.6791 29.3627C94.4664 29.1754 94.1801 29.0412 93.8204 28.9601C93.474 28.8791 93.1008 28.818 92.7009 28.7768C92.6476 28.7633 92.581 28.7564 92.501 28.7562C92.2743 28.7555 92.1474 28.8285 92.1203 28.975L92.0386 29.5348C91.9977 29.828 91.9568 30.1212 91.9159 30.4144C91.875 30.6943 91.8541 30.9809 91.8532 31.2743C91.8528 31.4076 91.859 31.5476 91.8719 31.6943C91.8848 31.8277 91.9044 31.9611 91.9307 32.0945C91.9298 32.3745 91.9489 32.6545 91.988 32.9347C91.9993 33.6014 92.0105 34.2814 92.0217 34.9748C92.0329 35.6681 92.0775 36.3416 92.1555 36.9952C92.1815 37.2086 92.2075 37.422 92.2335 37.6354C92.2594 37.8622 92.312 38.1023 92.3912 38.3559ZM90.0477 26.5888L90.2077 26.5893L92.2276 26.6354C92.6675 26.65 93.0874 26.6913 93.4872 26.7591C93.887 26.827 94.2801 26.9148 94.6664 27.0227C95.2792 27.1845 95.7651 27.4259 96.1242 27.747C96.6294 28.2019 97.0146 28.683 97.2797 29.1905C97.5448 29.698 97.7365 30.2119 97.8549 30.7322C97.9602 31.1859 98.0121 31.6394 98.0107 32.0927C98.0227 32.5327 98.0746 32.9729 98.1666 33.4132L98.143 34.5731L98.1608 35.2732L98.1799 35.5732C98.1789 35.8799 98.1447 36.1798 98.0771 36.4729C98.0095 36.7794 97.9219 37.0858 97.8143 37.3921C97.6798 37.7517 97.4388 38.0777 97.0912 38.37C96.757 38.6623 96.3628 38.9411 95.9086 39.2064C95.2675 39.5778 94.56 39.8491 93.7861 40.0201C93.0122 40.1911 92.1653 40.2752 91.2453 40.2725L90.8054 40.2512L88.4056 40.164L87.8056 40.1622C87.7123 40.1619 87.6123 40.1416 87.5058 40.1013C87.4126 40.0743 87.3127 40.0407 87.2061 40.0004C86.8466 39.8526 86.661 39.4987 86.6494 38.9387C86.5755 36.9651 86.5149 35.005 86.4676 33.0581C86.4427 32.4981 86.4245 31.9313 86.4129 31.358L86.3937 31.1179C86.3808 30.9579 86.3746 30.8045 86.3751 30.6578C86.3757 30.4578 86.383 30.2645 86.3969 30.0779C86.3865 29.1179 86.3828 28.1579 86.3858 27.1979C86.3881 26.4645 86.3904 25.7245 86.3927 24.9779C86.4083 24.2312 86.4374 23.4513 86.4799 22.6381C86.5098 21.5982 86.5263 20.5716 86.5295 19.5583C86.5326 18.5449 86.5425 17.5183 86.559 16.4783C86.5739 15.985 86.6284 15.6185 86.7224 15.3788C86.7359 15.3522 86.7426 15.3255 86.7427 15.2989C86.8235 15.0325 86.9973 14.8863 87.2641 14.8604C88.2242 14.81 89.171 14.7661 90.1045 14.7289C91.0513 14.6784 92.0047 14.6546 92.9647 14.6575C93.3247 14.6586 93.6847 14.6663 94.0446 14.6807C94.4046 14.6818 94.7846 14.6963 95.1845 14.7242C95.6778 14.7523 96.1711 14.7671 96.6644 14.7686C97.1578 14.7567 97.6578 14.7582 98.1644 14.7731C98.4577 14.7873 98.6575 14.8546 98.7638 14.9749C98.8701 15.0819 98.9228 15.2887 98.9218 15.5953L98.8775 16.9952C98.8501 17.2218 98.7963 17.3816 98.716 17.4747C98.6357 17.5678 98.4889 17.6141 98.2756 17.6134L98.0156 17.6126C97.7489 17.6118 97.4822 17.6177 97.2155 17.6302C96.9489 17.6294 96.6822 17.6287 96.4155 17.6279C96.3489 17.6277 96.2355 17.6273 96.0755 17.6268C95.9156 17.613 95.7223 17.6058 95.4956 17.6051C95.2823 17.5911 95.0557 17.5771 94.8157 17.5631C94.5891 17.549 94.3625 17.535 94.1358 17.521C93.9092 17.507 93.6959 17.4997 93.4959 17.4991C93.3093 17.4852 93.1626 17.4781 93.056 17.4778C92.7893 17.477 92.5293 17.4829 92.2759 17.4955C92.0226 17.4947 91.7625 17.5073 91.4958 17.5331C91.4424 17.5463 91.3424 17.5527 91.1957 17.5522C91.0491 17.5518 90.8957 17.5513 90.7357 17.5508L90.2157 17.5493C90.2148 17.8426 90.2206 18.136 90.233 18.4293C90.2446 18.976 90.2496 19.5227 90.2479 20.0694C90.2475 20.2161 90.2401 20.456 90.2257 20.7893C90.2113 21.1226 90.1968 21.5092 90.1821 21.9492C90.1807 22.3892 90.166 22.8558 90.1378 23.3491C90.1229 23.8424 90.1081 24.3223 90.0933 24.789C90.0918 25.2556 90.0839 25.6823 90.0693 26.0689C90.0687 26.2556 90.0615 26.4289 90.0477 26.5888ZM108.21 38.2633C108.504 38.2641 108.764 38.0649 108.992 37.6656C109.086 37.4925 109.16 37.3194 109.214 37.1463C109.281 36.9865 109.348 36.8133 109.415 36.6269C109.9 35.135 110.258 33.6294 110.489 32.1101C110.734 30.5908 110.886 29.0379 110.944 27.4514L110.944 27.3114C110.949 25.6447 110.801 24.0443 110.499 22.51C110.211 20.9625 109.815 19.4213 109.314 17.8865C109.287 17.8197 109.261 17.7596 109.234 17.7062C109.208 17.6528 109.181 17.5927 109.155 17.526C108.929 17.1653 108.63 16.9844 108.256 16.9833C108.11 16.9829 107.956 17.0224 107.796 17.1019C107.649 17.1682 107.522 17.2744 107.415 17.4208C107.187 17.7268 107.013 18.0463 106.892 18.3792C106.771 18.7122 106.663 19.0519 106.569 19.3983C106.285 20.5308 106.088 21.6702 105.978 22.8165C105.868 23.9495 105.778 25.1026 105.708 26.2757C105.68 26.5423 105.666 26.8089 105.665 27.0756C105.664 27.3423 105.663 27.6089 105.663 27.8756C105.658 29.4089 105.76 30.8826 105.969 32.2965C106.178 33.7105 106.48 35.1181 106.876 36.5193C106.942 36.7461 107.014 36.9597 107.094 37.1599C107.173 37.3735 107.286 37.5738 107.432 37.7609C107.684 38.095 107.944 38.2625 108.21 38.2633ZM104.664 40.1927C104.358 40.1917 104.085 40.1176 103.845 39.9702C103.619 39.8362 103.399 39.6689 103.187 39.4682C102.841 39.1339 102.569 38.7664 102.37 38.3658C102.185 37.9652 102.026 37.5447 101.894 37.1043C101.459 35.583 101.13 34.062 100.908 32.5414C100.699 31.0074 100.598 29.4204 100.603 27.7804C100.605 27.1404 100.627 26.4872 100.669 25.8206C100.739 24.6342 100.843 23.4678 100.98 22.3215C101.117 21.1619 101.327 20.0092 101.61 18.8634C101.921 17.6777 102.457 16.6459 103.22 15.7682C103.381 15.5687 103.555 15.4092 103.742 15.2898C103.929 15.1703 104.155 15.0977 104.422 15.0718C104.782 15.0462 105.142 15.0206 105.502 14.9951C105.863 14.9695 106.229 14.9572 106.603 14.9583C107.029 14.9596 107.449 14.9875 107.862 15.0421C108.276 15.0834 108.689 15.1646 109.102 15.2858C109.621 15.4341 110.04 15.682 110.359 16.0296C110.678 16.3772 110.917 16.8046 111.075 17.3117C111.445 18.4862 111.768 19.6672 112.044 20.8547C112.334 22.0289 112.537 23.2362 112.653 24.4765C112.692 24.8766 112.724 25.2767 112.749 25.6768C112.788 26.0636 112.807 26.4503 112.806 26.837L112.804 27.277C112.732 29.0234 112.567 30.7229 112.309 32.3755C112.064 34.0148 111.679 35.6336 111.154 37.2321C111.086 37.4585 111.012 37.6717 110.932 37.8714C110.851 38.0845 110.757 38.2909 110.65 38.4906C110.207 39.4226 109.458 39.9603 108.405 40.1039C108.071 40.1562 107.738 40.1885 107.404 40.2009C107.084 40.2132 106.758 40.2189 106.424 40.2179L104.664 40.1927ZM122.132 14.9648C122.492 14.9659 122.852 14.987 123.212 15.0281C123.572 15.0558 123.925 15.0969 124.271 15.1513C124.938 15.2332 125.464 15.4882 125.849 15.916C126.248 16.3438 126.539 16.8647 126.724 17.4786C126.883 17.9858 126.988 18.4994 127.039 19.0196C127.105 19.5264 127.15 20.0399 127.175 20.56L127.497 26.341C127.523 26.5944 127.535 26.9877 127.533 27.5211C127.532 28.0411 127.53 28.5611 127.528 29.0811C127.527 29.5077 127.526 29.8877 127.525 30.2211C127.524 30.5411 127.516 30.7477 127.503 30.841C127.445 32.4275 127.367 33.8739 127.269 35.1803C127.185 36.4867 127.081 37.7664 126.957 39.0194C126.903 39.4459 126.782 39.7455 126.595 39.9183C126.407 40.0911 126.094 40.1902 125.654 40.2155C125.307 40.2411 124.954 40.2601 124.594 40.2723C124.247 40.298 123.9 40.3103 123.553 40.3092C123.42 40.3088 123.293 40.3084 123.173 40.3081C123.053 40.3077 122.927 40.3007 122.794 40.2869C122.327 40.2455 122.001 40.1446 121.814 39.984C121.642 39.8368 121.556 39.5632 121.557 39.1632L121.578 38.8433C121.633 38.2168 121.689 37.597 121.744 36.9838C121.799 36.3706 121.848 35.7441 121.89 35.1042C121.945 34.3044 121.995 33.5112 122.037 32.7246C122.079 31.9248 122.122 31.1249 122.164 30.325L122.166 29.965C122.166 29.7517 122.16 29.485 122.148 29.165C122.149 28.8316 122.143 28.4983 122.131 28.1649C122.132 27.8182 122.127 27.4916 122.114 27.1848C122.115 26.8648 122.109 26.6115 122.096 26.4248C122.033 25.4113 121.976 24.4044 121.926 23.4043C121.876 22.3908 121.819 21.3639 121.755 20.3237C121.73 20.0437 121.697 19.7636 121.658 19.4834C121.632 19.2034 121.6 18.9233 121.561 18.6432C121.548 18.5364 121.528 18.4364 121.502 18.343C121.475 18.2362 121.449 18.1295 121.423 18.0227C121.343 17.7958 121.231 17.5955 121.084 17.4217C120.952 17.2347 120.765 17.1208 120.525 17.08L120.386 17.0596C120.172 17.059 119.992 17.1318 119.845 17.278C119.711 17.4243 119.584 17.5906 119.463 17.7769C119.142 18.2826 118.893 18.8152 118.718 19.3746C118.543 19.9341 118.382 20.5003 118.233 21.0732C117.963 22.2191 117.773 23.3585 117.662 24.4915C117.552 25.6245 117.482 26.771 117.452 27.9309C117.451 28.1042 117.451 28.2776 117.45 28.4509C117.45 28.6109 117.436 28.7775 117.409 28.9508C117.313 29.7238 117.244 30.5036 117.201 31.2902C117.159 32.0767 117.13 32.8699 117.114 33.6699C117.098 34.4565 117.089 35.2565 117.087 36.0698C117.084 36.8832 117.075 37.7098 117.059 38.5498C117.058 38.6964 117.051 38.8364 117.038 38.9697C117.037 39.1164 117.023 39.263 116.996 39.4096C116.929 39.676 116.815 39.8757 116.654 40.0086C116.507 40.1548 116.32 40.2276 116.094 40.2269L115.974 40.2265C115.441 40.1583 115.175 39.8175 115.177 39.2041C115.193 38.3908 115.208 37.6242 115.224 36.9043C115.239 36.1976 115.248 35.4977 115.25 34.8043C115.267 33.791 115.297 32.7845 115.34 31.7846C115.383 30.7714 115.459 29.7583 115.569 28.7453C115.638 28.0521 115.674 27.3656 115.676 26.6856C115.691 25.9923 115.733 25.2924 115.802 24.5859C115.912 23.5863 116.055 22.5934 116.231 21.6072C116.421 20.6211 116.677 19.6485 117 18.6895C117.122 18.3165 117.269 17.9636 117.444 17.6308C117.618 17.2847 117.806 16.9452 118.007 16.6125C118.248 16.1999 118.549 15.8875 118.91 15.6752C119.284 15.4497 119.691 15.2842 120.131 15.1789C120.465 15.0999 120.792 15.0475 121.112 15.0218C121.445 14.9828 121.785 14.9638 122.132 14.9648ZM131.32 40.2725C130.814 40.271 130.501 40.0034 130.383 39.4697C130.343 39.3362 130.323 39.2028 130.324 39.0695L129.931 30.4483C129.933 29.6616 129.942 28.9016 129.958 28.1683C129.959 27.8617 129.96 27.5483 129.961 27.2283C129.975 26.9084 129.983 26.6017 129.983 26.3084C129.998 26.0018 130.005 25.7218 130.006 25.4685C130.007 25.2151 130.008 24.9951 130.008 24.8085L130.01 24.2885C129.987 22.9151 129.978 21.5484 129.982 20.1884C129.987 18.8284 129.991 17.5017 129.995 16.2084C129.996 15.8484 130.063 15.5819 130.197 15.409C130.344 15.2228 130.592 15.1102 130.938 15.0712C131.232 15.0454 131.518 15.0263 131.798 15.0138C132.079 15.0013 132.365 14.9955 132.659 14.9964C132.965 14.9973 133.279 15.0049 133.598 15.0192C133.918 15.0335 134.232 15.0544 134.538 15.082C134.885 15.1097 135.138 15.2171 135.297 15.4043C135.457 15.5781 135.556 15.8384 135.595 16.1852C135.608 16.2919 135.614 16.4119 135.614 16.5452C135.613 16.6652 135.613 16.7786 135.613 16.8852C135.608 18.4452 135.603 20.0319 135.598 21.6452C135.593 23.2452 135.595 24.8585 135.603 26.4852L135.601 26.9852C135.722 26.8789 135.795 26.7791 135.822 26.6859C135.863 26.5927 135.896 26.4994 135.923 26.4062C136.475 24.7945 137.067 23.1229 137.699 21.3915C138.331 19.6467 139.003 17.8954 139.715 16.1375C139.769 16.031 139.816 15.9245 139.856 15.8179C139.896 15.698 139.95 15.5849 140.017 15.4784C140.205 15.2123 140.465 15.0797 140.798 15.0807C140.838 15.0809 140.878 15.081 140.918 15.0811C140.972 15.0813 141.025 15.0948 141.078 15.1216C141.464 15.2694 141.657 15.5633 141.655 16.0033C141.655 16.15 141.635 16.2833 141.594 16.4031C141.554 16.523 141.507 16.6495 141.453 16.7827C140.701 18.6471 139.988 20.4983 139.316 22.3363C138.657 24.161 138.038 25.9325 137.459 27.6508C137.311 28.077 137.157 28.4966 136.995 28.9094C136.848 29.309 136.686 29.7085 136.512 30.108C136.445 30.2811 136.411 30.421 136.41 30.5277C136.41 30.661 136.463 30.8212 136.569 31.0081C137.311 32.3437 138.014 33.5592 138.678 34.6545C139.354 35.7632 140.071 36.8053 140.828 37.7809C141.001 38.0081 141.213 38.2088 141.466 38.3828C141.533 38.423 141.592 38.4632 141.646 38.5034C141.712 38.5569 141.779 38.6104 141.845 38.664C142.071 38.8647 142.184 39.105 142.183 39.385C142.182 39.5717 142.129 39.7382 142.021 39.8845C141.847 40.1507 141.6 40.2833 141.28 40.2823C141.174 40.282 141.04 40.2482 140.881 40.1811C140.561 40.0335 140.275 39.846 140.022 39.6185C139.77 39.3911 139.53 39.1371 139.305 38.8564C138.8 38.1749 138.302 37.4667 137.811 36.7319C137.32 35.9971 136.823 35.1289 136.319 34.1274C136.253 33.9939 136.173 33.867 136.08 33.7467C135.988 33.6131 135.875 33.4527 135.742 33.2657C135.728 33.4523 135.721 33.6256 135.72 33.7856C135.72 33.9456 135.719 34.1056 135.719 34.2656C135.718 34.6123 135.723 34.939 135.736 35.2457C135.761 35.5658 135.787 35.8792 135.813 36.1859C135.851 36.6394 135.883 37.0928 135.909 37.5462C135.934 37.9996 135.946 38.453 135.944 38.9063L135.943 39.2263C135.916 39.5862 135.822 39.846 135.661 40.0055C135.514 40.1784 135.267 40.271 134.92 40.2833C134.667 40.2958 134.413 40.3017 134.16 40.301C133.907 40.3002 133.653 40.2995 133.4 40.2987L131.32 40.2725ZM152.348 40.3554C152.041 40.3412 151.808 40.2538 151.648 40.0933C151.489 39.9462 151.409 39.7393 151.41 39.4726L151.451 39.1727C151.505 38.9462 151.533 38.7197 151.533 38.493C151.547 38.2664 151.568 38.0398 151.595 37.8132C151.623 37.5333 151.644 37.1333 151.659 36.6134C151.687 36.0934 151.709 35.5202 151.724 34.8935C151.753 34.2803 151.768 33.647 151.77 32.9937C151.786 32.3271 151.794 31.7137 151.796 31.1537C151.811 30.5805 151.819 30.0871 151.821 29.6738C151.835 29.2605 151.843 28.9939 151.843 28.8739C151.845 28.2605 151.84 27.6139 151.829 26.9338C151.818 26.2405 151.813 25.5338 151.816 24.8138L151.817 24.2938C151.818 24.2138 151.791 24.167 151.738 24.1535C151.671 24.2067 151.624 24.2732 151.597 24.3531C151.584 24.4197 151.563 24.493 151.536 24.5729C151.267 25.5455 150.997 26.518 150.727 27.4905C150.458 28.4631 150.175 29.4355 149.878 30.408C149.488 31.7002 149.124 32.9858 148.786 34.2647C148.449 35.5437 148.032 36.7558 147.535 37.901C147.401 38.2073 147.273 38.5069 147.152 38.7999C147.031 39.0928 146.897 39.3791 146.75 39.6587C146.535 40.098 146.221 40.3171 145.808 40.3159L145.508 40.275C144.935 40.1532 144.629 39.7657 144.591 39.1122C144.592 39.0322 144.592 38.9522 144.592 38.8722C144.606 38.7922 144.619 38.7123 144.633 38.6323C144.717 37.1392 144.815 35.6195 144.927 34.0732C145.052 32.5136 145.177 30.9406 145.302 29.3543C145.413 27.9413 145.49 26.5415 145.535 25.155C145.579 23.7551 145.603 22.3485 145.608 20.9352C145.609 20.3885 145.611 19.8485 145.613 19.3152C145.614 18.7818 145.609 18.2685 145.597 17.7751L145.583 16.0151C145.597 15.7484 145.678 15.542 145.825 15.3958C145.985 15.2363 146.186 15.1435 146.426 15.1176L146.466 15.1177C146.692 15.1184 146.886 15.1856 147.045 15.3194C147.205 15.4533 147.311 15.6469 147.363 15.9004C147.39 16.0338 147.402 16.1672 147.402 16.3005C147.402 16.4339 147.408 16.5672 147.421 16.7006C147.446 17.0473 147.459 17.4207 147.457 17.8207C147.469 18.2074 147.475 18.6007 147.474 19.0007L147.443 22.6007C147.438 24.134 147.386 25.6538 147.288 27.1602C147.19 28.6666 147.086 30.1796 146.974 31.6993C146.947 31.8859 146.926 32.0792 146.913 32.2791C146.899 32.4658 146.891 32.6591 146.891 32.8591C146.89 32.9791 146.897 33.1057 146.91 33.2391C146.923 33.3592 146.942 33.4859 146.968 33.6193C147.009 33.5128 147.049 33.4129 147.089 33.3197C147.13 33.2264 147.163 33.1265 147.19 33.02C147.419 32.2473 147.642 31.4813 147.857 30.7219C148.086 29.9626 148.309 29.1966 148.524 28.4239C149.104 26.359 149.677 24.314 150.244 22.2891C150.823 20.2508 151.27 18.1921 151.583 16.113C151.624 15.8065 151.718 15.5801 151.865 15.4339C152.025 15.2877 152.272 15.2018 152.606 15.1761C152.992 15.1506 153.372 15.1317 153.746 15.1195C154.119 15.1073 154.499 15.1018 154.886 15.1029C155.446 15.1046 155.992 15.1262 156.526 15.1678C156.846 15.1955 157.092 15.3029 157.265 15.49C157.451 15.6773 157.543 15.9242 157.542 16.2309L157.541 16.6909C157.54 17.0242 157.546 17.3576 157.558 17.6909C157.57 18.011 157.576 18.3377 157.575 18.671L157.574 19.071C157.545 19.6709 157.53 20.2909 157.528 20.9309C157.526 21.5709 157.524 22.2175 157.522 22.8709C157.52 23.5908 157.517 24.3042 157.515 25.0108C157.526 25.7042 157.544 26.4109 157.569 27.131L157.586 28.0711L157.585 28.3911C157.584 28.6177 157.576 28.931 157.562 29.331C157.561 29.7177 157.553 30.151 157.538 30.6309C157.523 31.1109 157.508 31.6242 157.493 32.1708C157.478 32.7041 157.463 33.2307 157.448 33.7507C157.446 34.2573 157.438 34.7373 157.424 35.1906C157.409 35.6572 157.401 36.0506 157.4 36.3705C157.399 36.7839 157.377 37.1905 157.336 37.5904C157.295 38.0036 157.26 38.4168 157.232 38.8301C157.232 39.0701 157.191 39.3099 157.11 39.5497C156.962 40.0559 156.628 40.3083 156.108 40.3067C155.481 40.3182 154.854 40.3296 154.228 40.3411C153.614 40.3526 152.988 40.3574 152.348 40.3554Z" fill="white"/>
</svg>
