<svg width="146" height="127" viewBox="0 0 146 127" fill="none" xmlns="http://www.w3.org/2000/svg">
<path d="M16.7904 34.9597L17.2522 28.796L28.1861 11.0035C31.2227 9.58823 39.297 8.05181 47.3009 13.228C57.3057 19.6982 69.771 26.6697 80.5462 35.0785C91.3214 43.4872 102.96 52.005 106.796 54.9023C110.633 57.7997 126.567 69.019 129.686 75.4444C132.181 80.5848 132.924 87.3876 132.984 90.1465C132.323 90.1899 130.96 90.843 130.798 93.1081C130.635 95.3732 129.406 98.1173 128.812 99.2062C127.845 99.3803 125.807 99.8678 125.396 100.425C124.881 101.122 121.118 98.5516 122.292 100.795C123.232 102.59 122.095 104.897 121.409 105.826C119.352 105.63 114.567 104.784 111.88 102.971C109.192 101.159 106.476 100.067 105.454 99.7471L104.425 101.141C105.465 102.288 107.252 104.469 106.077 104.016C104.608 103.45 104.039 101.663 102.644 101.424C101.248 101.184 99.0632 101.162 100.017 102.425C100.153 103.027 100.399 103.462 100.679 103.771C101.141 103.99 101.625 104.249 101.981 104.451C101.668 104.438 101.129 104.267 100.679 103.771C99.8941 103.399 99.1719 103.141 99.2458 103.47C99.363 103.993 100.347 105.387 100.824 106.019L101.062 107.827L97.831 105.387C96.054 104.045 95.6458 105.365 95.6638 106.192C95.1069 105.953 93.7618 105.19 92.8369 104.058C91.6806 102.642 91.9006 103.622 89.3489 101.966C87.3075 100.642 80.2867 95.2129 77.0315 92.6641C77.4723 92.6352 77.9902 92.3027 76.5364 91.2048C74.7191 89.8324 74.5172 89.6799 72.0388 88.3509C69.5604 87.022 54.2695 74.9317 47.4042 69.747L37.5099 62.2749C33.9177 60.4666 25.5879 55.9307 21.0062 52.2536C15.279 47.6571 11.5171 42.1026 11.6458 41.9284C11.7487 41.789 11.3834 40.0117 11.1879 39.1405C11.512 39.8375 12.2889 41.0573 12.8033 40.3604C13.3178 39.6635 13.7414 36.8177 13.8889 35.4819L16.7904 34.9597Z" fill="#FDA3C4"/>
<path d="M13.2958 47.7875C12.6496 47.2995 12.1082 47.976 11.9183 48.3753L10.4772 47.5583C9.40904 47.6562 7.41962 47.9085 8.00713 48.1351C8.59464 48.3617 9.80645 48.6799 10.3389 48.8107C10.7796 48.7817 12.9534 49.6997 18.1226 53.6035C24.5842 58.4832 24.2356 57.6773 24.8414 58.1348C25.4472 58.5922 14.1035 48.3974 13.2958 47.7875Z" fill="#FDA3C4"/>
<path d="M42.623 54.3846C42.5025 54.301 42.4103 54.1883 42.3463 54.0465C42.204 53.7368 42.2315 53.4394 42.4289 53.1545C42.4897 53.0668 42.5407 53.0048 42.582 52.9686C42.6495 52.918 42.7169 52.8674 42.7844 52.8169C42.8552 52.7849 42.9206 52.7491 42.9804 52.7095C44.1584 51.9689 45.3974 51.2221 46.6976 50.4689C48.0012 49.7344 49.3233 48.9964 50.6639 48.2552C50.9666 48.0757 51.1901 47.8819 51.3343 47.6736C51.4339 47.483 51.5069 47.3308 51.5533 47.217C51.6073 47.0922 51.652 46.969 51.6875 46.8476C52.1443 45.2982 52.6302 43.7771 53.1452 42.2844C53.6601 40.7916 54.1616 39.33 54.6495 37.8996C54.8403 37.3666 55.0585 36.8526 55.304 36.3576C55.5605 35.8702 55.7677 35.3486 55.9256 34.7928C55.9417 34.7228 55.9632 34.6566 55.9902 34.5942C56.0172 34.5317 56.0497 34.4731 56.0877 34.4183C56.2471 34.1882 56.4714 34.0517 56.7605 34.0089C57.0497 33.9661 57.359 34.0347 57.6885 34.2147C57.9666 34.3752 58.2371 34.5466 58.5 34.7291C58.7629 34.9115 59.0295 35.0885 59.3 35.26C59.4205 35.3436 59.5372 35.4327 59.6501 35.5273C59.763 35.6218 59.8797 35.7109 60.0002 35.7945C60.2227 35.9651 60.392 36.107 60.5083 36.2201C60.6246 36.3333 60.7037 36.4531 60.7458 36.5797C60.7879 36.7063 60.7908 36.8544 60.7544 37.0239C60.7291 37.201 60.6788 37.4258 60.6036 37.6982C60.5521 37.8897 60.4859 38.079 60.4048 38.2663C60.3424 38.4501 60.2651 38.6319 60.1732 38.8115C59.85 39.5123 59.5347 40.2835 59.2275 41.1252C58.9388 41.9635 58.6416 42.8609 58.336 43.8173C58.4616 43.8233 58.5859 43.796 58.709 43.7353C58.8507 43.6713 58.983 43.609 59.1061 43.5484C60.1559 42.946 61.1959 42.3694 62.2263 41.8186C63.2676 41.2753 64.2144 40.7395 65.0669 40.2113C65.228 40.0958 65.392 40.023 65.5589 39.9927C65.8185 39.9457 66.0415 39.9868 66.2277 40.116C66.3153 40.1769 66.3916 40.2541 66.4564 40.3478C66.6619 40.6365 66.6786 40.9402 66.5065 41.259L66.4382 41.3576C66.3167 41.533 66.1793 41.6729 66.0258 41.7774C65.8723 41.8819 65.7134 41.9826 65.549 42.0794C64.5818 42.6093 63.5511 43.1842 62.4566 43.8042C61.3622 44.4242 60.2345 45.0455 59.0734 45.6679C58.5954 45.9367 58.2311 46.1464 57.9807 46.2972C57.7378 46.4371 57.5405 46.6166 57.3887 46.8358C57.2748 47.0002 57.1731 47.2056 57.0836 47.4518C57.0017 47.6871 56.9173 47.9612 56.8303 48.2741C56.485 49.3815 56.127 50.472 55.7564 51.5457C55.3968 52.6269 55.0481 53.7157 54.7104 54.8121C54.4512 55.6547 54.2215 56.5015 54.0212 57.3526C53.821 58.2036 53.676 59.0686 53.5862 59.9476C53.5659 60.0471 53.544 60.1374 53.5203 60.2183C53.4967 60.2993 53.4583 60.3782 53.4052 60.4549C53.2761 60.6412 53.0927 60.7655 52.855 60.8277C52.6172 60.89 52.3589 60.8649 52.0799 60.7524C51.8229 60.6552 51.5755 60.5323 51.3379 60.3836C51.0927 60.2459 50.8551 60.0972 50.625 59.9376L49.1133 58.8886C48.8875 58.6994 48.7304 58.493 48.642 58.2694C48.5646 58.0533 48.558 57.8053 48.6222 57.5253C48.857 56.6009 49.0678 55.676 49.2546 54.7507C49.4413 53.8254 49.6926 52.9124 50.0083 52.0117C50.0977 51.7654 50.1834 51.5246 50.2653 51.2893C50.3472 51.054 50.3861 50.8457 50.382 50.6643C50.2345 50.6431 50.1139 50.6649 50.0203 50.7298C49.9343 50.7837 49.839 50.8393 49.7345 50.8966C48.7674 51.4265 47.8281 51.9513 46.9166 52.471C46.0085 53.0093 45.1505 53.5338 44.3428 54.0444C44.1969 54.1379 44.0548 54.2259 43.9165 54.3085C43.7706 54.402 43.6104 54.4694 43.4359 54.5106C43.135 54.5938 42.864 54.5519 42.623 54.3846ZM77.9845 48.6885C78.0131 48.7408 78.027 48.791 78.0261 48.8391C78.058 49.1209 77.9411 49.4536 77.6754 49.8372L77.1807 50.5163C76.9149 50.9 76.6585 51.2819 76.4113 51.6622C76.1751 52.0501 75.9351 52.4434 75.6913 52.8422C75.6381 52.919 75.5525 53.0543 75.4344 53.2482C75.3281 53.4017 75.1763 53.6209 74.9789 53.9059C74.8 54.1875 74.5588 54.5475 74.2551 54.986C73.9514 55.4244 73.5739 55.9577 73.1226 56.5858C72.6899 57.2106 72.172 57.9466 71.5688 58.794C70.9657 59.6413 70.266 60.6164 69.4697 61.7192C68.692 62.8186 67.8062 64.0622 66.8126 65.45C66.5511 65.8041 66.2769 66.1414 65.9902 66.4617C65.6958 66.793 65.3834 67.1036 65.0528 67.3935C64.8538 67.5638 64.6463 67.6876 64.4305 67.7651C64.2256 67.8501 64.001 67.9052 63.7565 67.9303C63.2752 67.9695 62.8154 67.9426 62.3771 67.8494C61.9312 67.7672 61.5111 67.5893 61.1168 67.3156L60.9525 67.2016C60.6314 66.9626 60.3104 66.7236 59.9894 66.4846C59.6717 66.2642 59.3561 66.0289 59.0427 65.779C58.7293 65.529 58.4272 65.2626 58.1365 64.9797C57.8568 64.7045 57.5999 64.3964 57.3657 64.0553C56.8578 63.3134 56.5387 62.5564 56.4085 61.7844C56.2816 61.0309 56.4198 60.2342 56.8232 59.3943C56.9886 59.0384 57.1611 58.6957 57.3408 58.366C57.5315 58.0438 57.7331 57.7293 57.9457 57.4224C58.0748 57.2361 58.2055 57.0591 58.3379 56.8913C58.4704 56.7235 58.6175 56.5579 58.7795 56.3943C58.9979 56.1726 59.1961 55.945 59.3741 55.7115C59.5706 55.4746 59.7671 55.2377 59.9636 55.0008C60.0202 54.9426 60.0712 54.8807 60.1167 54.8149C60.1699 54.7382 60.2264 54.68 60.2863 54.6404C60.4853 54.4702 60.6923 54.3704 60.9072 54.341C61.1222 54.3117 61.3228 54.3616 61.509 54.4908L61.5912 54.5478C61.7622 54.699 61.8586 54.8876 61.8804 55.1137C61.9208 55.3365 61.865 55.5575 61.7132 55.7767L61.6676 55.8424C61.4559 56.1013 61.2442 56.3601 61.0325 56.6189C60.8284 56.8668 60.6095 57.1125 60.3759 57.3561C60.2097 57.5492 60.0436 57.7422 59.8774 57.9353C59.7298 58.125 59.5839 58.3239 59.4396 58.5322C59.2498 58.8062 59.071 59.0878 58.9031 59.377C58.7462 59.6739 58.6002 59.9783 58.4652 60.2903C58.1563 61.0173 58.1715 61.7095 58.5109 62.3669C58.6145 62.5686 58.7294 62.7539 58.8558 62.9227C58.9855 63.1101 59.1283 63.2904 59.2841 63.4634C59.3928 63.5875 59.5074 63.6914 59.6279 63.775C59.9236 63.9803 60.2292 64.0543 60.5444 63.9972C60.8631 63.9587 61.1599 63.7995 61.4348 63.5196C61.6043 63.3451 61.7684 63.1668 61.9269 62.9847C62.0855 62.8027 62.2386 62.6168 62.3862 62.4271C63.2821 61.1337 64.1948 59.8277 65.1244 58.509C65.5116 57.95 65.9215 57.3581 66.3543 56.7334C66.787 56.1086 67.229 55.4821 67.6803 54.854L67.8739 54.5745C67.6177 54.4292 67.3708 54.2822 67.1332 54.1335C66.8518 53.9545 66.5686 53.7661 66.2838 53.5685C65.9881 53.3632 65.6961 53.1525 65.4079 52.9363C65.1197 52.7201 64.8409 52.5022 64.5712 52.2826C64.0463 51.8697 63.6727 51.4725 63.4503 51.091C63.2389 50.7171 63.1287 50.3728 63.1196 50.0581C63.1172 49.7805 63.1494 49.5351 63.2161 49.3217C63.3013 49.1049 63.3975 48.8958 63.5047 48.6943L64.6602 46.4288C64.699 46.3259 64.783 46.1813 64.912 45.995C65.0411 45.8087 65.1702 45.6223 65.2992 45.436C65.4055 45.2825 65.4966 45.151 65.5725 45.0414C65.6561 44.9208 65.7147 44.8479 65.7484 44.8226C66.187 44.2831 66.5986 43.8059 66.9832 43.3912C67.3863 42.9731 67.7928 42.5735 68.2027 42.1926C68.3528 42.0695 68.5235 42.0338 68.7148 42.0854C68.9137 42.1261 69.1977 42.2663 69.5668 42.5062C69.8592 42.6929 70.1478 42.8851 70.4326 43.0827C70.736 43.277 71.03 43.473 71.3149 43.6706L71.9392 44.1039C72.3075 44.3919 72.5438 44.6127 72.6482 44.7663C72.7636 44.9275 72.772 45.0794 72.6733 45.2219L72.5771 45.3256C72.3815 45.5144 72.1858 45.7032 71.9902 45.892C71.7945 46.0808 71.6005 46.2789 71.4082 46.4863C71.167 46.7408 70.9313 46.9992 70.701 47.2614C70.4784 47.5126 70.2481 47.7748 70.0103 48.0479L69.9306 48.163C69.8774 48.2397 69.8091 48.3384 69.7256 48.459C69.653 48.5871 69.575 48.7115 69.4915 48.8321C69.4189 48.9602 69.3447 49.0791 69.2688 49.1887C69.2038 49.3059 69.154 49.4012 69.1194 49.4746C68.9237 49.8743 68.7224 50.2702 68.5157 50.6623C68.309 51.0545 68.1077 51.4504 67.912 51.8501C67.858 51.9749 67.8077 52.0942 67.7613 52.2081C67.7259 52.3295 67.6904 52.451 67.6549 52.5724C67.6431 52.6129 67.633 52.6627 67.6245 52.7217C67.6236 52.7698 67.6228 52.8179 67.6219 52.866C67.6269 52.9993 67.6614 53.1368 67.7254 53.2786C67.8079 53.417 67.9402 53.5656 68.1222 53.7244L68.3522 53.884L70.2198 51.1876C70.812 50.3327 71.3321 49.5819 71.78 48.9352C72.2355 48.2775 72.5641 47.7915 72.7657 47.4769L73.0846 47.0166C73.1453 46.9289 73.1984 46.8522 73.244 46.7864C73.2971 46.7097 73.3558 46.6368 73.4198 46.5676C73.9335 45.9666 74.5008 45.8734 75.1219 46.2881L75.9548 46.8418C76.4478 47.1839 76.9293 47.5424 77.3995 47.9173L77.5309 48.0085C77.8663 48.2737 78.0175 48.5004 77.9845 48.6885ZM72.478 72.2054L73.4475 72.8782C74.0274 72.9073 74.5846 72.8639 75.1191 72.748C76.0245 72.5648 76.8554 72.1027 77.6119 71.3618C77.9543 71.0314 78.2731 70.6765 78.5683 70.2971C78.8745 69.9253 79.1605 69.5476 79.4262 69.164L80.1272 68.1168C80.7101 67.1581 81.3019 66.2217 81.9026 65.3077C82.5142 64.4013 83.1169 63.4726 83.7108 62.5215C84.6776 60.9852 85.2715 59.32 85.4924 57.5258C85.5525 57.0643 85.484 56.6598 85.2869 56.312C85.1084 55.9609 84.8852 55.6275 84.6173 55.3118C84.5811 55.2704 84.5301 55.2269 84.4644 55.1813C84.2781 55.0521 84.0868 55.1059 83.8903 55.3428L83.0957 56.3495C82.6908 56.8637 82.2898 57.3725 81.8925 57.8759C81.4952 58.3792 81.1106 58.8994 80.7385 59.4364C80.5639 59.6885 80.3948 59.9444 80.2311 60.2041C80.0675 60.4638 79.9093 60.7273 79.7566 60.9947C79.3998 61.5098 79.0632 62.0309 78.7468 62.5579C77.9074 63.7931 77.0529 65.0502 76.1832 66.3293C75.3211 67.5974 74.5015 68.8626 73.7245 70.1248L72.9703 71.3542C72.7991 71.6249 72.635 71.9086 72.478 72.2054ZM67.9341 69.2469C68.2209 68.7157 68.5297 68.1996 68.8604 67.6988C69.2831 67.0183 69.7095 66.3324 70.1398 65.641C70.7986 64.5727 71.4908 63.5031 72.2163 62.4323C72.9493 61.3505 73.6689 60.3 74.3749 59.2806C74.5276 59.0133 74.6858 58.7498 74.8495 58.4901C75.0207 58.2195 75.1937 57.9581 75.3683 57.706C75.5058 57.4606 75.6488 57.219 75.7973 56.9812C75.9534 56.7325 76.1111 56.4931 76.2706 56.2629C76.6957 55.6491 77.139 55.0559 77.6003 54.4835C78.0727 53.9187 78.5378 53.3407 78.9959 52.7497C79.3931 52.2464 79.803 51.76 80.2256 51.2905C80.5199 50.9592 80.7969 50.77 81.0566 50.723C81.3272 50.6835 81.658 50.7914 82.049 51.0465C82.6076 51.4341 83.1532 51.829 83.6858 52.231C84.2292 52.6406 84.7727 53.0502 85.3162 53.4598C85.6625 53.7326 85.962 54.0378 86.2147 54.3754C86.475 54.7021 86.7108 55.0524 86.9222 55.4263C87.2591 56.0171 87.4084 56.6563 87.3701 57.3438C87.3005 58.3342 87.1095 59.289 86.7971 60.2083C86.4924 61.1166 86.1122 62.005 85.6565 62.8736C85.2735 63.614 84.8466 64.324 84.3759 65.0035C83.9237 65.6797 83.5006 66.3842 83.1066 67.117L81.8717 68.8648L81.1593 69.9285L80.8568 70.4002C80.538 70.8606 80.1955 71.2965 79.8295 71.7078C79.5048 72.083 79.1636 72.4467 78.806 72.7991L78.8225 72.8105C78.8587 72.8518 78.8367 72.9421 78.7566 73.0812C78.6688 73.2313 78.4997 73.4872 78.2491 73.8489L77.099 75.5095C77.5481 75.8211 78.0044 76.1459 78.4678 76.4837C78.7779 76.7151 78.9573 76.9127 79.0061 77.0764C79.0659 77.2477 79.0161 77.4484 78.8566 77.6786L78.0785 78.6966C77.9351 78.8568 77.7968 78.9394 77.6636 78.9443C77.5305 78.9493 77.3489 78.8719 77.1188 78.7123L76.8395 78.5185C76.5437 78.3132 76.2534 78.1118 75.9686 77.9141C75.6762 77.7275 75.3876 77.5353 75.1028 77.3377C75.0261 77.2844 74.904 77.1915 74.7363 77.059C74.561 76.9373 74.3622 76.7912 74.1397 76.6206C73.9097 76.461 73.667 76.2845 73.4117 76.0911C73.1673 75.9053 72.9285 75.7233 72.6951 75.5451C72.4541 75.3779 72.2333 75.2165 72.0328 75.0612C71.8356 74.9243 71.6768 74.8141 71.5563 74.7305C71.2715 74.5328 70.9867 74.3352 70.7018 74.1376C70.4204 73.9585 70.1352 73.7849 69.8461 73.6168L68.3673 72.5905C68.0058 72.3397 67.6313 72.096 67.2436 71.8595C66.8594 71.6415 66.4734 71.4143 66.0858 71.1777C65.8844 71.0704 65.6906 70.9521 65.5044 70.8229L65.2036 70.5898C64.8353 70.3019 64.7428 70.0023 64.9259 69.6912C65.0288 69.5191 65.1317 69.3471 65.2346 69.1751C65.3376 69.0031 65.446 68.8349 65.5598 68.6705C65.5978 68.6157 65.6505 68.563 65.718 68.5124C65.7669 68.4652 65.8213 68.4218 65.8811 68.3822C66.1021 68.2272 66.3642 68.2468 66.6676 68.4411C67.088 68.7004 67.5102 68.969 67.9341 69.2469ZM84.2605 83.3274C84.0161 83.1416 83.8738 82.9374 83.8334 82.7146C83.7855 82.5028 83.8375 82.2873 83.9893 82.0681L84.193 81.8443C84.3659 81.6884 84.5168 81.5172 84.6459 81.3309C84.7859 81.1522 84.9314 80.9772 85.0824 80.8061C85.2637 80.5911 85.5079 80.2737 85.815 79.8538C86.133 79.4416 86.4758 78.9816 86.8436 78.4741C87.2148 77.9851 87.5863 77.4721 87.9583 76.935C88.3489 76.3945 88.7036 75.8941 89.0225 75.4338C89.3599 74.9701 89.6462 74.5683 89.8816 74.2285C90.1279 73.8964 90.2852 73.6809 90.3536 73.5823C90.7028 73.0781 91.0655 72.5427 91.4418 71.9761C91.8256 71.3985 92.2225 70.8138 92.6324 70.2219L92.9285 69.7944C92.9741 69.7287 92.9787 69.6751 92.9425 69.6337C92.8574 69.6396 92.7811 69.6678 92.7136 69.7183C92.6647 69.7655 92.6065 69.8144 92.5391 69.865C91.7658 70.5131 90.9925 71.1612 90.2192 71.8093C89.4459 72.4574 88.6616 73.0979 87.8664 73.7308C86.8123 74.5736 85.7839 75.4261 84.7812 76.2883C83.7786 77.1505 82.7481 77.9122 81.6899 78.5736C81.4057 78.7497 81.1309 78.9241 80.8652 79.0968C80.5996 79.2696 80.3269 79.4292 80.0469 79.5758C79.6211 79.8158 79.2384 79.8181 78.8989 79.5824L78.6752 79.3785C78.2725 78.953 78.2407 78.4603 78.5798 77.9004C78.6254 77.8346 78.6709 77.7689 78.7165 77.7031C78.773 77.6449 78.8295 77.5868 78.886 77.5286C79.802 76.3466 80.7442 75.1503 81.7125 73.9396C82.6994 72.7256 83.6938 71.5007 84.6958 70.2647C85.5882 69.1637 86.4456 68.0546 87.2681 66.9375C88.0981 65.8094 88.9155 64.6645 89.7202 63.5026C90.0315 63.0532 90.339 62.6093 90.6426 62.1709C90.9463 61.7324 91.2331 61.3067 91.5031 60.8935L92.4888 59.4353C92.6516 59.2237 92.835 59.0994 93.039 59.0624C93.2615 59.0221 93.479 59.0594 93.6914 59.1743L93.7242 59.1971C93.9104 59.3263 94.0313 59.4914 94.0868 59.6922C94.1424 59.893 94.1199 60.1128 94.0195 60.3514C93.9655 60.4762 93.9005 60.5935 93.8246 60.7031C93.7487 60.8127 93.6782 60.9261 93.6133 61.0433C93.4378 61.3435 93.2362 61.658 93.0084 61.9868C92.7992 62.3123 92.5807 62.6394 92.3529 62.9682L90.2867 65.9163C89.4136 67.1768 88.5098 68.3997 87.5752 69.585C86.6406 70.7704 85.6968 71.9574 84.7437 73.1462C84.6155 73.2844 84.489 73.4319 84.3641 73.5888C84.2469 73.7346 84.1313 73.8897 84.0174 74.0541C83.9491 74.1528 83.8825 74.2607 83.8175 74.3779C83.7601 74.4842 83.7044 74.5997 83.6504 74.7245C83.744 74.6596 83.8338 74.6002 83.9198 74.5463C84.0058 74.4924 84.0902 74.4292 84.1728 74.3567C84.7994 73.8502 85.4166 73.3454 86.0247 72.8423C86.6436 72.3467 87.2609 71.8419 87.8765 71.3278C89.5243 69.9557 91.1552 68.5963 92.7693 67.2495C94.4019 65.8994 95.9363 64.4568 97.3726 62.9217C97.5801 62.6925 97.7858 62.5593 97.9898 62.5224C98.2048 62.493 98.4568 62.5624 98.7458 62.7305C99.0787 62.9291 99.4023 63.1293 99.7166 63.3311C100.031 63.533 100.347 63.7442 100.665 63.9646C101.125 64.2839 101.562 64.612 101.978 64.949C102.225 65.1533 102.367 65.3816 102.403 65.6339C102.451 65.8938 102.387 66.1498 102.212 66.4019L101.95 66.78C101.76 67.054 101.576 67.3319 101.397 67.6135C101.226 67.8841 101.046 68.1565 100.856 68.4305L100.628 68.7593C100.264 69.2374 99.9004 69.7394 99.536 70.2656C99.1716 70.7917 98.8034 71.3233 98.4314 71.8604C98.0214 72.4522 97.6152 73.0386 97.2129 73.6196C96.829 74.1971 96.4431 74.7895 96.055 75.3965L95.5362 76.1807L95.354 76.4437C95.225 76.6301 95.0411 76.8839 94.8024 77.2051C94.5822 77.5229 94.33 77.8754 94.0457 78.2624C93.7614 78.6493 93.4582 79.0637 93.136 79.5055C92.8213 79.9364 92.5105 80.3617 92.2035 80.7816C91.915 81.1981 91.6362 81.5889 91.3671 81.9539C91.0904 82.33 90.861 82.6495 90.6788 82.9126C90.4434 83.2524 90.1954 83.5753 89.9348 83.8813C89.6666 84.1983 89.4039 84.519 89.1466 84.8436C89.0099 85.0409 88.8404 85.2154 88.638 85.3671C88.2291 85.7 87.8109 85.7182 87.3837 85.4217C86.8613 85.0754 86.3389 84.7291 85.8164 84.3828C85.3049 84.0441 84.7863 83.6923 84.2605 83.3274Z" fill="white"/>
</svg>
